<svg width="1440" height="1024" viewBox="0 0 1440 1024" fill="none" xmlns="http://www.w3.org/2000/svg">
<g clip-path="url(#clip0_2_7)">
<rect width="1440" height="1024" fill="white"/>
<rect y="-3" width="299" height="1024" fill="#2977A3"/>
<rect x="299" y="-3" width="1141" height="108" fill="#3F91BF"/>
<path d="M32.0994 61.5H30.7784C30.7003 61.12 30.5636 60.7862 30.3683 60.4986C30.1765 60.2109 29.9421 59.9695 29.6651 59.7741C29.3917 59.5753 29.0881 59.4261 28.7543 59.3267C28.4205 59.2273 28.0724 59.1776 27.7102 59.1776C27.0497 59.1776 26.4513 59.3445 25.9151 59.6783C25.3825 60.0121 24.9581 60.5039 24.642 61.1538C24.3295 61.8036 24.1733 62.6009 24.1733 63.5455C24.1733 64.4901 24.3295 65.2873 24.642 65.9371C24.9581 66.587 25.3825 67.0788 25.9151 67.4126C26.4513 67.7464 27.0497 67.9134 27.7102 67.9134C28.0724 67.9134 28.4205 67.8636 28.7543 67.7642C29.0881 67.6648 29.3917 67.5174 29.6651 67.3221C29.9421 67.1232 30.1765 66.88 30.3683 66.5923C30.5636 66.3011 30.7003 65.9673 30.7784 65.5909H32.0994C32 66.1484 31.8189 66.6474 31.5561 67.0877C31.2933 67.5281 30.9666 67.9027 30.576 68.2116C30.1854 68.517 29.7468 68.7496 29.2603 68.9094C28.7773 69.0692 28.2607 69.1491 27.7102 69.1491C26.7798 69.1491 25.9524 68.9219 25.228 68.4673C24.5036 68.0128 23.9336 67.3665 23.5181 66.5284C23.1026 65.6903 22.8949 64.696 22.8949 63.5455C22.8949 62.3949 23.1026 61.4006 23.5181 60.5625C23.9336 59.7244 24.5036 59.0781 25.228 58.6236C25.9524 58.169 26.7798 57.9418 27.7102 57.9418C28.2607 57.9418 28.7773 58.0217 29.2603 58.1815C29.7468 58.3413 30.1854 58.5756 30.576 58.8846C30.9666 59.19 31.2933 59.5629 31.5561 60.0032C31.8189 60.44 32 60.9389 32.0994 61.5ZM39.2199 65.6548V60.8182H40.477V69H39.2199V67.6151H39.1347C38.9429 68.0305 38.6446 68.3839 38.2398 68.6751C37.835 68.9627 37.3236 69.1065 36.7057 69.1065C36.1943 69.1065 35.7398 68.9947 35.3421 68.771C34.9443 68.5437 34.6318 68.2028 34.4046 67.7482C34.1773 67.2901 34.0637 66.7131 34.0637 66.017V60.8182H35.3208V65.9318C35.3208 66.5284 35.4877 67.0043 35.8215 67.3594C36.1588 67.7145 36.5885 67.892 37.1105 67.892C37.423 67.892 37.7409 67.8121 38.064 67.6523C38.3907 67.4925 38.6642 67.2475 38.8843 66.9173C39.108 66.587 39.2199 66.1662 39.2199 65.6548ZM42.7795 69V60.8182H44.0366V69H42.7795ZM43.4187 59.4545C43.1737 59.4545 42.9624 59.3711 42.7848 59.2042C42.6108 59.0373 42.5238 58.8366 42.5238 58.6023C42.5238 58.3679 42.6108 58.1673 42.7848 58.0004C42.9624 57.8335 43.1737 57.75 43.4187 57.75C43.6637 57.75 43.8732 57.8335 44.0472 58.0004C44.2248 58.1673 44.3136 58.3679 44.3136 58.6023C44.3136 58.8366 44.2248 59.0373 44.0472 59.2042C43.8732 59.3711 43.6637 59.4545 43.4187 59.4545ZM52.1345 62.6506L51.0052 62.9702C50.9342 62.782 50.8295 62.5991 50.691 62.4215C50.556 62.2404 50.3714 62.0913 50.137 61.9741C49.9026 61.8569 49.6025 61.7983 49.2368 61.7983C48.7361 61.7983 48.3188 61.9137 47.985 62.1445C47.6547 62.3718 47.4896 62.6612 47.4896 63.0128C47.4896 63.3253 47.6032 63.5721 47.8305 63.7532C48.0578 63.9343 48.4129 64.0852 48.8959 64.206L50.1104 64.5043C50.8419 64.6818 51.387 64.9535 51.7457 65.3192C52.1043 65.6815 52.2836 66.1484 52.2836 66.7202C52.2836 67.1889 52.1487 67.608 51.8788 67.9773C51.6125 68.3466 51.2396 68.6378 50.7602 68.8509C50.2808 69.0639 49.7233 69.1705 49.0876 69.1705C48.2531 69.1705 47.5624 68.9893 47.0155 68.6271C46.4687 68.2649 46.1224 67.7358 45.9768 67.0398L47.17 66.7415C47.2836 67.1818 47.4985 67.5121 47.8145 67.7322C48.1341 67.9524 48.5514 68.0625 49.0663 68.0625C49.6523 68.0625 50.1175 67.9382 50.4619 67.6896C50.8099 67.4375 50.9839 67.1357 50.9839 66.7841C50.9839 66.5 50.8845 66.2621 50.6856 66.0703C50.4868 65.875 50.1814 65.7294 49.7694 65.6335L48.4058 65.3139C47.6565 65.1364 47.1061 64.8612 46.7545 64.4883C46.4065 64.1119 46.2325 63.6413 46.2325 63.0767C46.2325 62.6151 46.3621 62.2067 46.6214 61.8516C46.8841 61.4964 47.241 61.2177 47.692 61.0153C48.1466 60.8129 48.6615 60.7116 49.2368 60.7116C50.0464 60.7116 50.6821 60.8892 51.1437 61.2443C51.6089 61.5994 51.9392 62.0682 52.1345 62.6506ZM54.176 69V60.8182H55.4331V69H54.176ZM54.8152 59.4545C54.5701 59.4545 54.3588 59.3711 54.1813 59.2042C54.0073 59.0373 53.9203 58.8366 53.9203 58.6023C53.9203 58.3679 54.0073 58.1673 54.1813 58.0004C54.3588 57.8335 54.5701 57.75 54.8152 57.75C55.0602 57.75 55.2697 57.8335 55.4437 58.0004C55.6213 58.1673 55.71 58.3679 55.71 58.6023C55.71 58.8366 55.6213 59.0373 55.4437 59.2042C55.2697 59.3711 55.0602 59.4545 54.8152 59.4545ZM58.9926 64.0781V69H57.7355V60.8182H58.95V62.0966H59.0566C59.2483 61.6811 59.5395 61.3473 59.9301 61.0952C60.3208 60.8395 60.825 60.7116 61.4429 60.7116C61.9969 60.7116 62.4816 60.8253 62.8971 61.0526C63.3126 61.2763 63.6357 61.6172 63.8666 62.0753C64.0974 62.5298 64.2128 63.1051 64.2128 63.8011V69H62.9557V63.8864C62.9557 63.2436 62.7888 62.7429 62.455 62.3842C62.1212 62.022 61.6631 61.8409 61.0807 61.8409C60.6794 61.8409 60.3208 61.9279 60.0047 62.1019C59.6922 62.2759 59.4454 62.5298 59.2643 62.8636C59.0832 63.1974 58.9926 63.6023 58.9926 64.0781ZM69.9403 69.1705C69.152 69.1705 68.4719 68.9964 67.9002 68.6484C67.332 68.2969 66.8935 67.8068 66.5845 67.1783C66.2791 66.5462 66.1264 65.8111 66.1264 64.973C66.1264 64.1349 66.2791 63.3963 66.5845 62.7571C66.8935 62.1143 67.3232 61.6136 67.8736 61.255C68.4276 60.8928 69.0739 60.7116 69.8125 60.7116C70.2386 60.7116 70.6594 60.7827 71.0749 60.9247C71.4904 61.0668 71.8686 61.2976 72.2095 61.6172C72.5504 61.9332 72.8221 62.3523 73.0245 62.8743C73.2269 63.3963 73.3281 64.0391 73.3281 64.8026V65.3352H67.0213V64.2486H72.0497C72.0497 63.7869 71.9574 63.375 71.7727 63.0128C71.5916 62.6506 71.3324 62.3647 70.995 62.1552C70.6612 61.9457 70.267 61.8409 69.8125 61.8409C69.3118 61.8409 68.8786 61.9652 68.5128 62.2138C68.1506 62.4588 67.8718 62.7784 67.6765 63.1726C67.4812 63.5668 67.3835 63.9893 67.3835 64.4403V65.1648C67.3835 65.7827 67.4901 66.3065 67.7031 66.7362C67.9197 67.1623 68.2198 67.4872 68.6033 67.7109C68.9869 67.9311 69.4325 68.0412 69.9403 68.0412C70.2706 68.0412 70.5689 67.995 70.8352 67.9027C71.1051 67.8068 71.3377 67.6648 71.533 67.4766C71.7283 67.2848 71.8793 67.0469 71.9858 66.7628L73.2003 67.1037C73.0724 67.5156 72.8576 67.8778 72.5558 68.1903C72.2539 68.4993 71.881 68.7408 71.4371 68.9148C70.9933 69.0852 70.4943 69.1705 69.9403 69.1705ZM84.1467 63.7372V64.9091H79.3739V63.7372H84.1467ZM96.3728 62.6506L95.2435 62.9702C95.1725 62.782 95.0677 62.5991 94.9292 62.4215C94.7943 62.2404 94.6096 62.0913 94.3753 61.9741C94.1409 61.8569 93.8408 61.7983 93.4751 61.7983C92.9743 61.7983 92.5571 61.9137 92.2233 62.1445C91.893 62.3718 91.7279 62.6612 91.7279 63.0128C91.7279 63.3253 91.8415 63.5721 92.0688 63.7532C92.2961 63.9343 92.6512 64.0852 93.1341 64.206L94.3486 64.5043C95.0802 64.6818 95.6253 64.9535 95.9839 65.3192C96.3426 65.6815 96.5219 66.1484 96.5219 66.7202C96.5219 67.1889 96.387 67.608 96.1171 67.9773C95.8508 68.3466 95.4779 68.6378 94.9985 68.8509C94.5191 69.0639 93.9616 69.1705 93.3259 69.1705C92.4914 69.1705 91.8007 68.9893 91.2538 68.6271C90.7069 68.2649 90.3607 67.7358 90.2151 67.0398L91.4083 66.7415C91.5219 67.1818 91.7368 67.5121 92.0528 67.7322C92.3724 67.9524 92.7897 68.0625 93.3046 68.0625C93.8905 68.0625 94.3557 67.9382 94.7002 67.6896C95.0482 67.4375 95.2222 67.1357 95.2222 66.7841C95.2222 66.5 95.1228 66.2621 94.9239 66.0703C94.7251 65.875 94.4197 65.7294 94.0077 65.6335L92.6441 65.3139C91.8948 65.1364 91.3444 64.8612 90.9928 64.4883C90.6448 64.1119 90.4708 63.6413 90.4708 63.0767C90.4708 62.6151 90.6004 62.2067 90.8596 61.8516C91.1224 61.4964 91.4793 61.2177 91.9303 61.0153C92.3849 60.8129 92.8998 60.7116 93.4751 60.7116C94.2847 60.7116 94.9204 60.8892 95.382 61.2443C95.8472 61.5994 96.1775 62.0682 96.3728 62.6506ZM98.4142 69V60.8182H99.6713V69H98.4142ZM99.0534 59.4545C98.8084 59.4545 98.5971 59.3711 98.4196 59.2042C98.2456 59.0373 98.1586 58.8366 98.1586 58.6023C98.1586 58.3679 98.2456 58.1673 98.4196 58.0004C98.5971 57.8335 98.8084 57.75 99.0534 57.75C99.2985 57.75 99.508 57.8335 99.682 58.0004C99.8596 58.1673 99.9483 58.3679 99.9483 58.6023C99.9483 58.8366 99.8596 59.0373 99.682 59.2042C99.508 59.3711 99.2985 59.4545 99.0534 59.4545ZM101.974 69V60.8182H103.188V62.0966H103.295C103.465 61.6598 103.741 61.3207 104.12 61.0792C104.5 60.8342 104.957 60.7116 105.489 60.7116C106.029 60.7116 106.478 60.8342 106.837 61.0792C107.199 61.3207 107.482 61.6598 107.684 62.0966H107.769C107.979 61.674 108.293 61.3384 108.712 61.0898C109.131 60.8377 109.634 60.7116 110.22 60.7116C110.951 60.7116 111.549 60.9407 112.015 61.3988C112.48 61.8533 112.712 62.5618 112.712 63.5241V69H111.455V63.5241C111.455 62.9205 111.29 62.489 110.96 62.2298C110.63 61.9705 110.241 61.8409 109.793 61.8409C109.218 61.8409 108.772 62.0149 108.456 62.3629C108.14 62.7074 107.982 63.1442 107.982 63.6733V69H106.704V63.3963C106.704 62.9311 106.553 62.5565 106.251 62.2724C105.949 61.9847 105.56 61.8409 105.085 61.8409C104.758 61.8409 104.453 61.9279 104.168 62.1019C103.888 62.2759 103.661 62.5174 103.487 62.8263C103.316 63.1317 103.231 63.4851 103.231 63.8864V69H101.974ZM118.335 69.1705C117.596 69.1705 116.948 68.9947 116.391 68.6431C115.837 68.2915 115.403 67.7997 115.091 67.1676C114.782 66.5355 114.627 65.7969 114.627 64.9517C114.627 64.0994 114.782 63.3555 115.091 62.7198C115.403 62.0842 115.837 61.5906 116.391 61.239C116.948 60.8874 117.596 60.7116 118.335 60.7116C119.073 60.7116 119.72 60.8874 120.274 61.239C120.831 61.5906 121.264 62.0842 121.573 62.7198C121.886 63.3555 122.042 64.0994 122.042 64.9517C122.042 65.7969 121.886 66.5355 121.573 67.1676C121.264 67.7997 120.831 68.2915 120.274 68.6431C119.72 68.9947 119.073 69.1705 118.335 69.1705ZM118.335 68.0412C118.896 68.0412 119.358 67.8974 119.72 67.6097C120.082 67.3221 120.35 66.9439 120.524 66.4751C120.698 66.0064 120.785 65.4986 120.785 64.9517C120.785 64.4048 120.698 63.8952 120.524 63.4229C120.35 62.9506 120.082 62.5689 119.72 62.2777C119.358 61.9865 118.896 61.8409 118.335 61.8409C117.774 61.8409 117.312 61.9865 116.95 62.2777C116.588 62.5689 116.32 62.9506 116.146 63.4229C115.972 63.8952 115.884 64.4048 115.884 64.9517C115.884 65.4986 115.972 66.0064 116.146 66.4751C116.32 66.9439 116.588 67.3221 116.95 67.6097C117.312 67.8974 117.774 68.0412 118.335 68.0412ZM125.218 64.0781V69H123.961V60.8182H125.176V62.0966H125.282C125.474 61.6811 125.765 61.3473 126.156 61.0952C126.546 60.8395 127.051 60.7116 127.669 60.7116C128.222 60.7116 128.707 60.8253 129.123 61.0526C129.538 61.2763 129.861 61.6172 130.092 62.0753C130.323 62.5298 130.438 63.1051 130.438 63.8011V69H129.181V63.8864C129.181 63.2436 129.014 62.7429 128.681 62.3842C128.347 62.022 127.889 61.8409 127.306 61.8409C126.905 61.8409 126.546 61.9279 126.23 62.1019C125.918 62.2759 125.671 62.5298 125.49 62.8636C125.309 63.1974 125.218 63.6023 125.218 64.0781ZM134.611 67.5085L134.525 68.0838C134.465 68.4886 134.373 68.9219 134.248 69.3835C134.128 69.8452 134.002 70.2802 133.87 70.6886C133.739 71.0969 133.63 71.4219 133.545 71.6634H132.586C132.633 71.4361 132.693 71.136 132.767 70.7631C132.842 70.3903 132.917 69.973 132.991 69.5114C133.069 69.0533 133.133 68.5845 133.183 68.1051L133.247 67.5085H134.611ZM146.954 62.6506L145.825 62.9702C145.754 62.782 145.649 62.5991 145.51 62.4215C145.375 62.2404 145.191 62.0913 144.956 61.9741C144.722 61.8569 144.422 61.7983 144.056 61.7983C143.555 61.7983 143.138 61.9137 142.804 62.1445C142.474 62.3718 142.309 62.6612 142.309 63.0128C142.309 63.3253 142.423 63.5721 142.65 63.7532C142.877 63.9343 143.232 64.0852 143.715 64.206L144.93 64.5043C145.661 64.6818 146.206 64.9535 146.565 65.3192C146.924 65.6815 147.103 66.1484 147.103 66.7202C147.103 67.1889 146.968 67.608 146.698 67.9773C146.432 68.3466 146.059 68.6378 145.58 68.8509C145.1 69.0639 144.543 69.1705 143.907 69.1705C143.072 69.1705 142.382 68.9893 141.835 68.6271C141.288 68.2649 140.942 67.7358 140.796 67.0398L141.989 66.7415C142.103 67.1818 142.318 67.5121 142.634 67.7322C142.953 67.9524 143.371 68.0625 143.886 68.0625C144.472 68.0625 144.937 67.9382 145.281 67.6896C145.629 67.4375 145.803 67.1357 145.803 66.7841C145.803 66.5 145.704 66.2621 145.505 66.0703C145.306 65.875 145.001 65.7294 144.589 65.6335L143.225 65.3139C142.476 65.1364 141.925 64.8612 141.574 64.4883C141.226 64.1119 141.052 63.6413 141.052 63.0767C141.052 62.6151 141.181 62.2067 141.441 61.8516C141.703 61.4964 142.06 61.2177 142.511 61.0153C142.966 60.8129 143.481 60.7116 144.056 60.7116C144.866 60.7116 145.501 60.8892 145.963 61.2443C146.428 61.5994 146.759 62.0682 146.954 62.6506ZM151.403 69.1918C150.884 69.1918 150.414 69.0941 149.991 68.8988C149.569 68.6999 149.233 68.4141 148.985 68.0412C148.736 67.6648 148.612 67.2102 148.612 66.6776C148.612 66.2088 148.704 65.8288 148.889 65.5376C149.073 65.2429 149.32 65.0121 149.629 64.8452C149.938 64.6783 150.279 64.554 150.652 64.4723C151.028 64.3871 151.407 64.3196 151.786 64.2699C152.284 64.206 152.687 64.158 152.996 64.1261C153.308 64.0906 153.535 64.032 153.677 63.9503C153.823 63.8686 153.896 63.7266 153.896 63.5241V63.4815C153.896 62.956 153.752 62.5476 153.464 62.2564C153.18 61.9652 152.749 61.8196 152.17 61.8196C151.57 61.8196 151.099 61.951 150.758 62.2138C150.418 62.4766 150.178 62.7571 150.039 63.0554L148.846 62.6293C149.059 62.1321 149.343 61.745 149.698 61.468C150.057 61.1875 150.448 60.9922 150.87 60.8821C151.296 60.7685 151.715 60.7116 152.127 60.7116C152.39 60.7116 152.692 60.7436 153.033 60.8075C153.377 60.8679 153.709 60.994 154.029 61.1857C154.352 61.3775 154.62 61.6669 154.833 62.054C155.046 62.4411 155.153 62.9595 155.153 63.6094V69H153.896V67.892H153.832C153.747 68.0696 153.605 68.2596 153.406 68.462C153.207 68.6644 152.942 68.8366 152.612 68.9787C152.282 69.1207 151.879 69.1918 151.403 69.1918ZM151.595 68.0625C152.092 68.0625 152.511 67.9648 152.852 67.7695C153.196 67.5742 153.456 67.3221 153.63 67.0131C153.807 66.7042 153.896 66.3793 153.896 66.0384V64.8878C153.843 64.9517 153.725 65.0103 153.544 65.0636C153.367 65.1133 153.161 65.1577 152.926 65.1967C152.696 65.2322 152.47 65.2642 152.25 65.2926C152.033 65.3175 151.858 65.3388 151.723 65.3565C151.396 65.3991 151.09 65.4684 150.806 65.5643C150.526 65.6566 150.299 65.7969 150.125 65.9851C149.954 66.1697 149.869 66.4219 149.869 66.7415C149.869 67.1783 150.03 67.5085 150.354 67.7322C150.68 67.9524 151.094 68.0625 151.595 68.0625ZM163.243 62.6506L162.114 62.9702C162.043 62.782 161.938 62.5991 161.799 62.4215C161.664 62.2404 161.48 62.0913 161.245 61.9741C161.011 61.8569 160.711 61.7983 160.345 61.7983C159.844 61.7983 159.427 61.9137 159.093 62.1445C158.763 62.3718 158.598 62.6612 158.598 63.0128C158.598 63.3253 158.712 63.5721 158.939 63.7532C159.166 63.9343 159.521 64.0852 160.004 64.206L161.219 64.5043C161.95 64.6818 162.495 64.9535 162.854 65.3192C163.213 65.6815 163.392 66.1484 163.392 66.7202C163.392 67.1889 163.257 67.608 162.987 67.9773C162.721 68.3466 162.348 68.6378 161.869 68.8509C161.389 69.0639 160.832 69.1705 160.196 69.1705C159.362 69.1705 158.671 68.9893 158.124 68.6271C157.577 68.2649 157.231 67.7358 157.085 67.0398L158.278 66.7415C158.392 67.1818 158.607 67.5121 158.923 67.7322C159.243 67.9524 159.66 68.0625 160.175 68.0625C160.761 68.0625 161.226 67.9382 161.57 67.6896C161.918 67.4375 162.092 67.1357 162.092 66.7841C162.092 66.5 161.993 66.2621 161.794 66.0703C161.595 65.875 161.29 65.7294 160.878 65.6335L159.514 65.3139C158.765 65.1364 158.214 64.8612 157.863 64.4883C157.515 64.1119 157.341 63.6413 157.341 63.0767C157.341 62.6151 157.471 62.2067 157.73 61.8516C157.993 61.4964 158.349 61.2177 158.8 61.0153C159.255 60.8129 159.77 60.7116 160.345 60.7116C161.155 60.7116 161.79 60.8892 162.252 61.2443C162.717 61.5994 163.048 62.0682 163.243 62.6506ZM166.456 66.017L166.435 64.4616H166.691L170.27 60.8182H171.826L168.012 64.6747H167.905L166.456 66.017ZM165.284 69V58.0909H166.541V69H165.284ZM170.483 69L167.287 64.9517L168.182 64.0781L172.081 69H170.483ZM173.444 69V60.8182H174.701V69H173.444ZM174.083 59.4545C173.838 59.4545 173.626 59.3711 173.449 59.2042C173.275 59.0373 173.188 58.8366 173.188 58.6023C173.188 58.3679 173.275 58.1673 173.449 58.0004C173.626 57.8335 173.838 57.75 174.083 57.75C174.328 57.75 174.537 57.8335 174.711 58.0004C174.889 58.1673 174.978 58.3679 174.978 58.6023C174.978 58.8366 174.889 59.0373 174.711 59.2042C174.537 59.3711 174.328 59.4545 174.083 59.4545ZM179.411 69.1918C178.892 69.1918 178.422 69.0941 177.999 68.8988C177.577 68.6999 177.241 68.4141 176.992 68.0412C176.744 67.6648 176.62 67.2102 176.62 66.6776C176.62 66.2088 176.712 65.8288 176.897 65.5376C177.081 65.2429 177.328 65.0121 177.637 64.8452C177.946 64.6783 178.287 64.554 178.66 64.4723C179.036 64.3871 179.414 64.3196 179.794 64.2699C180.291 64.206 180.695 64.158 181.003 64.1261C181.316 64.0906 181.543 64.032 181.685 63.9503C181.831 63.8686 181.904 63.7266 181.904 63.5241V63.4815C181.904 62.956 181.76 62.5476 181.472 62.2564C181.188 61.9652 180.757 61.8196 180.178 61.8196C179.578 61.8196 179.107 61.951 178.766 62.2138C178.425 62.4766 178.186 62.7571 178.047 63.0554L176.854 62.6293C177.067 62.1321 177.351 61.745 177.706 61.468C178.065 61.1875 178.456 60.9922 178.878 60.8821C179.304 60.7685 179.723 60.7116 180.135 60.7116C180.398 60.7116 180.7 60.7436 181.041 60.8075C181.385 60.8679 181.717 60.994 182.037 61.1857C182.36 61.3775 182.628 61.6669 182.841 62.054C183.054 62.4411 183.161 62.9595 183.161 63.6094V69H181.904V67.892H181.84C181.755 68.0696 181.612 68.2596 181.414 68.462C181.215 68.6644 180.95 68.8366 180.62 68.9787C180.29 69.1207 179.887 69.1918 179.411 69.1918ZM179.603 68.0625C180.1 68.0625 180.519 67.9648 180.86 67.7695C181.204 67.5742 181.463 67.3221 181.637 67.0131C181.815 66.7042 181.904 66.3793 181.904 66.0384V64.8878C181.85 64.9517 181.733 65.0103 181.552 65.0636C181.375 65.1133 181.169 65.1577 180.934 65.1967C180.703 65.2322 180.478 65.2642 180.258 65.2926C180.041 65.3175 179.865 65.3388 179.73 65.3565C179.404 65.3991 179.098 65.4684 178.814 65.5643C178.534 65.6566 178.306 65.7969 178.132 65.9851C177.962 66.1697 177.877 66.4219 177.877 66.7415C177.877 67.1783 178.038 67.5085 178.361 67.7322C178.688 67.9524 179.102 68.0625 179.603 68.0625Z" fill="white"/>
<path d="M24.7685 108.091L28.0071 117.274H28.1349L31.3736 108.091H32.7585L28.7528 119H27.3892L23.3835 108.091H24.7685ZM34.2873 119V110.818H35.5444V119H34.2873ZM34.9265 109.455C34.6815 109.455 34.4702 109.371 34.2926 109.204C34.1186 109.037 34.0316 108.837 34.0316 108.602C34.0316 108.368 34.1186 108.167 34.2926 108C34.4702 107.833 34.6815 107.75 34.9265 107.75C35.1715 107.75 35.381 107.833 35.555 108C35.7326 108.167 35.8214 108.368 35.8214 108.602C35.8214 108.837 35.7326 109.037 35.555 109.204C35.381 109.371 35.1715 109.455 34.9265 109.455ZM39.104 108.091V119H37.8469V108.091H39.104ZM42.6635 108.091V119H41.4064V108.091H42.6635ZM47.3737 119.192C46.8552 119.192 46.3847 119.094 45.9621 118.899C45.5395 118.7 45.2039 118.414 44.9553 118.041C44.7068 117.665 44.5825 117.21 44.5825 116.678C44.5825 116.209 44.6748 115.829 44.8595 115.538C45.0441 115.243 45.2909 115.012 45.5999 114.845C45.9088 114.678 46.2497 114.554 46.6226 114.472C46.999 114.387 47.3772 114.32 47.7572 114.27C48.2544 114.206 48.6574 114.158 48.9664 114.126C49.2789 114.091 49.5061 114.032 49.6482 113.95C49.7938 113.869 49.8666 113.727 49.8666 113.524V113.482C49.8666 112.956 49.7227 112.548 49.4351 112.256C49.151 111.965 48.7195 111.82 48.1407 111.82C47.5406 111.82 47.07 111.951 46.7291 112.214C46.3882 112.477 46.1485 112.757 46.01 113.055L44.8169 112.629C45.0299 112.132 45.314 111.745 45.6691 111.468C46.0278 111.187 46.4184 110.992 46.841 110.882C47.2671 110.768 47.6862 110.712 48.0981 110.712C48.3609 110.712 48.6627 110.744 49.0036 110.808C49.3481 110.868 49.6801 110.994 49.9997 111.186C50.3229 111.377 50.591 111.667 50.8041 112.054C51.0171 112.441 51.1237 112.96 51.1237 113.609V119H49.8666V117.892H49.8026C49.7174 118.07 49.5754 118.26 49.3765 118.462C49.1776 118.664 48.9131 118.837 48.5828 118.979C48.2526 119.121 47.8495 119.192 47.3737 119.192ZM47.5654 118.062C48.0626 118.062 48.4816 117.965 48.8225 117.77C49.167 117.574 49.4262 117.322 49.6002 117.013C49.7778 116.704 49.8666 116.379 49.8666 116.038V114.888C49.8133 114.952 49.6961 115.01 49.515 115.064C49.3374 115.113 49.1315 115.158 48.8971 115.197C48.6663 115.232 48.4408 115.264 48.2206 115.293C48.004 115.317 47.8282 115.339 47.6933 115.357C47.3666 115.399 47.0612 115.468 46.7771 115.564C46.4965 115.657 46.2693 115.797 46.0953 115.985C45.9248 116.17 45.8396 116.422 45.8396 116.741C45.8396 117.178 46.0012 117.509 46.3243 117.732C46.651 117.952 47.0647 118.062 47.5654 118.062ZM56.7207 122.239C56.1135 122.239 55.5914 122.161 55.1547 122.004C54.7179 121.852 54.3539 121.649 54.0627 121.397C53.775 121.148 53.546 120.882 53.3755 120.598L54.377 119.895C54.4906 120.044 54.6344 120.214 54.8084 120.406C54.9824 120.602 55.2203 120.77 55.5222 120.912C55.8276 121.058 56.2271 121.131 56.7207 121.131C57.3812 121.131 57.9263 120.971 58.356 120.651C58.7857 120.332 59.0005 119.831 59.0005 119.149V117.487H58.894C58.8017 117.636 58.6703 117.821 58.4998 118.041C58.3329 118.258 58.0914 118.451 57.7754 118.622C57.4629 118.789 57.0403 118.872 56.5076 118.872C55.8471 118.872 55.2541 118.716 54.7285 118.403C54.2065 118.091 53.7928 117.636 53.4874 117.04C53.1855 116.443 53.0346 115.719 53.0346 114.866C53.0346 114.028 53.182 113.299 53.4767 112.677C53.7715 112.052 54.1816 111.569 54.7072 111.228C55.2328 110.884 55.84 110.712 56.5289 110.712C57.0616 110.712 57.4842 110.8 57.7967 110.978C58.1127 111.152 58.3542 111.351 58.5211 111.575C58.6916 111.795 58.823 111.976 58.9153 112.118H59.0431V110.818H60.2576V119.234C60.2576 119.938 60.0978 120.509 59.7782 120.95C59.4622 121.393 59.036 121.718 58.4998 121.924C57.9672 122.134 57.3741 122.239 56.7207 122.239ZM56.6781 117.743C57.1824 117.743 57.6085 117.627 57.9565 117.397C58.3045 117.166 58.5691 116.834 58.7502 116.401C58.9313 115.967 59.0218 115.449 59.0218 114.845C59.0218 114.256 58.9331 113.735 58.7555 113.284C58.5779 112.833 58.3152 112.48 57.9672 112.224C57.6191 111.969 57.1895 111.841 56.6781 111.841C56.1454 111.841 55.7015 111.976 55.3464 112.246C54.9949 112.516 54.7303 112.878 54.5527 113.332C54.3787 113.787 54.2917 114.291 54.2917 114.845C54.2917 115.413 54.3805 115.916 54.5581 116.353C54.7392 116.786 55.0055 117.127 55.3571 117.375C55.7122 117.62 56.1525 117.743 56.6781 117.743ZM65.9892 119.17C65.2008 119.17 64.5208 118.996 63.949 118.648C63.3809 118.297 62.9423 117.807 62.6333 117.178C62.3279 116.546 62.1752 115.811 62.1752 114.973C62.1752 114.135 62.3279 113.396 62.6333 112.757C62.9423 112.114 63.372 111.614 63.9224 111.255C64.4764 110.893 65.1227 110.712 65.8613 110.712C66.2875 110.712 66.7083 110.783 67.1238 110.925C67.5392 111.067 67.9174 111.298 68.2583 111.617C68.5993 111.933 68.8709 112.352 69.0733 112.874C69.2757 113.396 69.377 114.039 69.377 114.803V115.335H63.0701V114.249H68.0985C68.0985 113.787 68.0062 113.375 67.8216 113.013C67.6404 112.651 67.3812 112.365 67.0439 112.155C66.71 111.946 66.3159 111.841 65.8613 111.841C65.3606 111.841 64.9274 111.965 64.5616 112.214C64.1994 112.459 63.9206 112.778 63.7253 113.173C63.53 113.567 63.4324 113.989 63.4324 114.44V115.165C63.4324 115.783 63.5389 116.306 63.752 116.736C63.9686 117.162 64.2686 117.487 64.6522 117.711C65.0357 117.931 65.4814 118.041 65.9892 118.041C66.3194 118.041 66.6177 117.995 66.8841 117.903C67.1539 117.807 67.3865 117.665 67.5819 117.477C67.7772 117.285 67.9281 117.047 68.0346 116.763L69.2491 117.104C69.1213 117.516 68.9064 117.878 68.6046 118.19C68.3027 118.499 67.9299 118.741 67.486 118.915C67.0421 119.085 66.5431 119.17 65.9892 119.17ZM80.1955 113.737V114.909H75.4228V113.737H80.1955ZM92.4216 112.651L91.2923 112.97C91.2213 112.782 91.1166 112.599 90.9781 112.422C90.8431 112.24 90.6585 112.091 90.4241 111.974C90.1897 111.857 89.8896 111.798 89.5239 111.798C89.0232 111.798 88.6059 111.914 88.2721 112.145C87.9419 112.372 87.7767 112.661 87.7767 113.013C87.7767 113.325 87.8904 113.572 88.1176 113.753C88.3449 113.934 88.7 114.085 89.183 114.206L90.3975 114.504C91.129 114.682 91.6741 114.953 92.0328 115.319C92.3914 115.681 92.5708 116.148 92.5708 116.72C92.5708 117.189 92.4358 117.608 92.1659 117.977C91.8996 118.347 91.5267 118.638 91.0473 118.851C90.5679 119.064 90.0104 119.17 89.3747 119.17C88.5402 119.17 87.8495 118.989 87.3026 118.627C86.7558 118.265 86.4095 117.736 86.2639 117.04L87.4571 116.741C87.5708 117.182 87.7856 117.512 88.1017 117.732C88.4213 117.952 88.8385 118.062 89.3534 118.062C89.9394 118.062 90.4046 117.938 90.749 117.69C91.097 117.437 91.271 117.136 91.271 116.784C91.271 116.5 91.1716 116.262 90.9727 116.07C90.7739 115.875 90.4685 115.729 90.0566 115.634L88.6929 115.314C87.9436 115.136 87.3932 114.861 87.0416 114.488C86.6936 114.112 86.5196 113.641 86.5196 113.077C86.5196 112.615 86.6492 112.207 86.9085 111.852C87.1713 111.496 87.5281 111.218 87.9791 111.015C88.4337 110.813 88.9486 110.712 89.5239 110.712C90.3335 110.712 90.9692 110.889 91.4308 111.244C91.896 111.599 92.2263 112.068 92.4216 112.651ZM97.8935 119.17C97.1051 119.17 96.4251 118.996 95.8533 118.648C95.2852 118.297 94.8466 117.807 94.5376 117.178C94.2322 116.546 94.0795 115.811 94.0795 114.973C94.0795 114.135 94.2322 113.396 94.5376 112.757C94.8466 112.114 95.2763 111.614 95.8267 111.255C96.3807 110.893 97.027 110.712 97.7656 110.712C98.1918 110.712 98.6126 110.783 99.0281 110.925C99.4435 111.067 99.8217 111.298 100.163 111.617C100.504 111.933 100.775 112.352 100.978 112.874C101.18 113.396 101.281 114.039 101.281 114.803V115.335H94.9744V114.249H100.003C100.003 113.787 99.9105 113.375 99.7259 113.013C99.5447 112.651 99.2855 112.365 98.9482 112.155C98.6143 111.946 98.2202 111.841 97.7656 111.841C97.2649 111.841 96.8317 111.965 96.4659 112.214C96.1037 112.459 95.8249 112.778 95.6296 113.173C95.4343 113.567 95.3366 113.989 95.3366 114.44V115.165C95.3366 115.783 95.4432 116.306 95.6562 116.736C95.8729 117.162 96.1729 117.487 96.5565 117.711C96.94 117.931 97.3857 118.041 97.8935 118.041C98.2237 118.041 98.522 117.995 98.7884 117.903C99.0582 117.807 99.2908 117.665 99.4862 117.477C99.6815 117.285 99.8324 117.047 99.9389 116.763L101.153 117.104C101.026 117.516 100.811 117.878 100.509 118.19C100.207 118.499 99.8342 118.741 99.3903 118.915C98.9464 119.085 98.4474 119.17 97.8935 119.17ZM109.635 110.818L106.609 119H105.331L102.305 110.818H103.669L105.927 117.338H106.013L108.271 110.818H109.635ZM114.432 119.17C113.643 119.17 112.963 118.996 112.391 118.648C111.823 118.297 111.385 117.807 111.076 117.178C110.77 116.546 110.618 115.811 110.618 114.973C110.618 114.135 110.77 113.396 111.076 112.757C111.385 112.114 111.814 111.614 112.365 111.255C112.919 110.893 113.565 110.712 114.304 110.712C114.73 110.712 115.151 110.783 115.566 110.925C115.982 111.067 116.36 111.298 116.701 111.617C117.042 111.933 117.313 112.352 117.516 112.874C117.718 113.396 117.819 114.039 117.819 114.803V115.335H111.513V114.249H116.541C116.541 113.787 116.449 113.375 116.264 113.013C116.083 112.651 115.824 112.365 115.486 112.155C115.152 111.946 114.758 111.841 114.304 111.841C113.803 111.841 113.37 111.965 113.004 112.214C112.642 112.459 112.363 112.778 112.168 113.173C111.972 113.567 111.875 113.989 111.875 114.44V115.165C111.875 115.783 111.981 116.306 112.194 116.736C112.411 117.162 112.711 117.487 113.095 117.711C113.478 117.931 113.924 118.041 114.432 118.041C114.762 118.041 115.06 117.995 115.326 117.903C115.596 117.807 115.829 117.665 116.024 117.477C116.22 117.285 116.37 117.047 116.477 116.763L117.691 117.104C117.564 117.516 117.349 117.878 117.047 118.19C116.745 118.499 116.372 118.741 115.928 118.915C115.484 119.085 114.986 119.17 114.432 119.17ZM119.732 119V110.818H120.946V112.054H121.031C121.18 111.649 121.45 111.321 121.841 111.069C122.232 110.816 122.672 110.69 123.162 110.69C123.254 110.69 123.37 110.692 123.508 110.696C123.647 110.699 123.752 110.705 123.823 110.712V111.99C123.78 111.979 123.682 111.963 123.53 111.942C123.38 111.917 123.222 111.905 123.055 111.905C122.658 111.905 122.303 111.988 121.99 112.155C121.681 112.319 121.436 112.546 121.255 112.837C121.078 113.125 120.989 113.453 120.989 113.822V119H119.732ZM125.313 119V110.818H126.57V119H125.313ZM125.952 109.455C125.707 109.455 125.496 109.371 125.318 109.204C125.144 109.037 125.057 108.837 125.057 108.602C125.057 108.368 125.144 108.167 125.318 108C125.496 107.833 125.707 107.75 125.952 107.75C126.197 107.75 126.406 107.833 126.58 108C126.758 108.167 126.847 108.368 126.847 108.602C126.847 108.837 126.758 109.037 126.58 109.204C126.406 109.371 126.197 109.455 125.952 109.455ZM130.129 114.078V119H128.872V110.818H130.087V112.097H130.193C130.385 111.681 130.676 111.347 131.067 111.095C131.457 110.839 131.962 110.712 132.58 110.712C133.134 110.712 133.618 110.825 134.034 111.053C134.449 111.276 134.772 111.617 135.003 112.075C135.234 112.53 135.35 113.105 135.35 113.801V119H134.092V113.886C134.092 113.244 133.926 112.743 133.592 112.384C133.258 112.022 132.8 111.841 132.217 111.841C131.816 111.841 131.457 111.928 131.141 112.102C130.829 112.276 130.582 112.53 130.401 112.864C130.22 113.197 130.129 113.602 130.129 114.078Z" fill="white"/>
<path d="M23.321 165V154.091H29.8622V155.263H24.642V158.949H29.3722V160.121H24.642V165H23.321ZM34.6776 165.17C33.9389 165.17 33.2908 164.995 32.7333 164.643C32.1793 164.292 31.7461 163.8 31.4336 163.168C31.1246 162.536 30.9702 161.797 30.9702 160.952C30.9702 160.099 31.1246 159.355 31.4336 158.72C31.7461 158.084 32.1793 157.591 32.7333 157.239C33.2908 156.887 33.9389 156.712 34.6776 156.712C35.4162 156.712 36.0625 156.887 36.6165 157.239C37.174 157.591 37.6072 158.084 37.9162 158.72C38.2287 159.355 38.3849 160.099 38.3849 160.952C38.3849 161.797 38.2287 162.536 37.9162 163.168C37.6072 163.8 37.174 164.292 36.6165 164.643C36.0625 164.995 35.4162 165.17 34.6776 165.17ZM34.6776 164.041C35.2386 164.041 35.7003 163.897 36.0625 163.61C36.4247 163.322 36.6928 162.944 36.8668 162.475C37.0408 162.006 37.1278 161.499 37.1278 160.952C37.1278 160.405 37.0408 159.895 36.8668 159.423C36.6928 158.951 36.4247 158.569 36.0625 158.278C35.7003 157.987 35.2386 157.841 34.6776 157.841C34.1165 157.841 33.6548 157.987 33.2926 158.278C32.9304 158.569 32.6623 158.951 32.4883 159.423C32.3143 159.895 32.2273 160.405 32.2273 160.952C32.2273 161.499 32.3143 162.006 32.4883 162.475C32.6623 162.944 32.9304 163.322 33.2926 163.61C33.6548 163.897 34.1165 164.041 34.6776 164.041ZM40.3039 165V156.818H41.5184V158.054H41.6036C41.7528 157.649 42.0226 157.321 42.4133 157.069C42.8039 156.816 43.2442 156.69 43.7343 156.69C43.8266 156.69 43.942 156.692 44.0805 156.696C44.219 156.699 44.3238 156.705 44.3948 156.712V157.99C44.3522 157.979 44.2545 157.963 44.1018 157.942C43.9527 157.917 43.7947 157.905 43.6278 157.905C43.23 157.905 42.8749 157.988 42.5624 158.155C42.2535 158.319 42.0084 158.546 41.8273 158.837C41.6498 159.125 41.561 159.453 41.561 159.822V165H40.3039ZM49.0663 165.17C48.278 165.17 47.5979 164.996 47.0262 164.648C46.458 164.297 46.0194 163.807 45.7105 163.178C45.4051 162.546 45.2524 161.811 45.2524 160.973C45.2524 160.135 45.4051 159.396 45.7105 158.757C46.0194 158.114 46.4491 157.614 46.9996 157.255C47.5535 156.893 48.1998 156.712 48.9385 156.712C49.3646 156.712 49.7854 156.783 50.2009 156.925C50.6164 157.067 50.9946 157.298 51.3355 157.617C51.6764 157.933 51.9481 158.352 52.1505 158.874C52.3529 159.396 52.4541 160.039 52.4541 160.803V161.335H46.1473V160.249H51.1757C51.1757 159.787 51.0834 159.375 50.8987 159.013C50.7176 158.651 50.4584 158.365 50.121 158.155C49.7872 157.946 49.393 157.841 48.9385 157.841C48.4378 157.841 48.0045 157.965 47.6388 158.214C47.2765 158.459 46.9978 158.778 46.8025 159.173C46.6072 159.567 46.5095 159.989 46.5095 160.44V161.165C46.5095 161.783 46.616 162.306 46.8291 162.736C47.0457 163.162 47.3458 163.487 47.7293 163.711C48.1128 163.931 48.5585 164.041 49.0663 164.041C49.3966 164.041 49.6949 163.995 49.9612 163.903C50.2311 163.807 50.4637 163.665 50.659 163.477C50.8543 163.285 51.0052 163.047 51.1118 162.763L52.3263 163.104C52.1984 163.516 51.9836 163.878 51.6817 164.19C51.3799 164.499 51.007 164.741 50.5631 164.915C50.1192 165.085 49.6203 165.17 49.0663 165.17ZM57.9246 156.818V157.884H53.6846V156.818H57.9246ZM54.9204 154.858H56.1775V162.656C56.1775 163.011 56.229 163.278 56.3319 163.455C56.4385 163.629 56.5734 163.746 56.7368 163.807C56.9037 163.864 57.0795 163.892 57.2641 163.892C57.4026 163.892 57.5162 163.885 57.605 163.871C57.6938 163.853 57.7648 163.839 57.8181 163.828L58.0738 164.957C57.9885 164.989 57.8696 165.021 57.7169 165.053C57.5642 165.089 57.3707 165.107 57.1363 165.107C56.7812 165.107 56.4331 165.03 56.0922 164.877C55.7549 164.725 55.4743 164.492 55.2506 164.18C55.0305 163.867 54.9204 163.473 54.9204 162.997V154.858ZM68.7219 159.737V160.909H63.9491V159.737H68.7219ZM75.1525 165V156.818H76.367V158.097H76.4735C76.644 157.66 76.9192 157.321 77.2992 157.079C77.6792 156.834 78.1355 156.712 78.6681 156.712C79.2079 156.712 79.6571 156.834 80.0158 157.079C80.378 157.321 80.6603 157.66 80.8627 158.097H80.948C81.1575 157.674 81.4718 157.338 81.8908 157.09C82.3098 156.838 82.8123 156.712 83.3983 156.712C84.1298 156.712 84.7282 156.941 85.1934 157.399C85.6586 157.853 85.8912 158.562 85.8912 159.524V165H84.6341V159.524C84.6341 158.92 84.4689 158.489 84.1387 158.23C83.8084 157.971 83.4196 157.841 82.9721 157.841C82.3968 157.841 81.9512 158.015 81.6351 158.363C81.3191 158.707 81.161 159.144 81.161 159.673V165H79.8826V159.396C79.8826 158.931 79.7317 158.556 79.4299 158.272C79.128 157.985 78.7392 157.841 78.2633 157.841C77.9366 157.841 77.6312 157.928 77.3471 158.102C77.0666 158.276 76.8393 158.517 76.6653 158.826C76.4949 159.132 76.4096 159.485 76.4096 159.886V165H75.1525ZM91.5135 165.17C90.7749 165.17 90.1268 164.995 89.5692 164.643C89.0153 164.292 88.582 163.8 88.2695 163.168C87.9606 162.536 87.8061 161.797 87.8061 160.952C87.8061 160.099 87.9606 159.355 88.2695 158.72C88.582 158.084 89.0153 157.591 89.5692 157.239C90.1268 156.887 90.7749 156.712 91.5135 156.712C92.2521 156.712 92.8984 156.887 93.4524 157.239C94.0099 157.591 94.4432 158.084 94.7521 158.72C95.0646 159.355 95.2209 160.099 95.2209 160.952C95.2209 161.797 95.0646 162.536 94.7521 163.168C94.4432 163.8 94.0099 164.292 93.4524 164.643C92.8984 164.995 92.2521 165.17 91.5135 165.17ZM91.5135 164.041C92.0746 164.041 92.5362 163.897 92.8984 163.61C93.2607 163.322 93.5288 162.944 93.7028 162.475C93.8768 162.006 93.9638 161.499 93.9638 160.952C93.9638 160.405 93.8768 159.895 93.7028 159.423C93.5288 158.951 93.2607 158.569 92.8984 158.278C92.5362 157.987 92.0746 157.841 91.5135 157.841C90.9524 157.841 90.4908 157.987 90.1286 158.278C89.7663 158.569 89.4982 158.951 89.3242 159.423C89.1502 159.895 89.0632 160.405 89.0632 160.952C89.0632 161.499 89.1502 162.006 89.3242 162.475C89.4982 162.944 89.7663 163.322 90.1286 163.61C90.4908 163.897 90.9524 164.041 91.5135 164.041ZM97.1398 165V156.818H98.3543V158.054H98.4395C98.5887 157.649 98.8586 157.321 99.2492 157.069C99.6398 156.816 100.08 156.69 100.57 156.69C100.663 156.69 100.778 156.692 100.916 156.696C101.055 156.699 101.16 156.705 101.231 156.712V157.99C101.188 157.979 101.09 157.963 100.938 157.942C100.789 157.917 100.631 157.905 100.464 157.905C100.066 157.905 99.7108 157.988 99.3983 158.155C99.0894 158.319 98.8444 158.546 98.6633 158.837C98.4857 159.125 98.3969 159.453 98.3969 159.822V165H97.1398ZM105.774 168.239C105.167 168.239 104.645 168.161 104.208 168.004C103.772 167.852 103.408 167.649 103.116 167.397C102.829 167.148 102.6 166.882 102.429 166.598L103.431 165.895C103.544 166.044 103.688 166.214 103.862 166.406C104.036 166.602 104.274 166.77 104.576 166.912C104.881 167.058 105.281 167.131 105.774 167.131C106.435 167.131 106.98 166.971 107.41 166.651C107.839 166.332 108.054 165.831 108.054 165.149V163.487H107.948C107.855 163.636 107.724 163.821 107.554 164.041C107.387 164.258 107.145 164.451 106.829 164.622C106.517 164.789 106.094 164.872 105.561 164.872C104.901 164.872 104.308 164.716 103.782 164.403C103.26 164.091 102.847 163.636 102.541 163.04C102.239 162.443 102.088 161.719 102.088 160.866C102.088 160.028 102.236 159.299 102.53 158.677C102.825 158.052 103.235 157.569 103.761 157.228C104.286 156.884 104.894 156.712 105.583 156.712C106.115 156.712 106.538 156.8 106.85 156.978C107.166 157.152 107.408 157.351 107.575 157.575C107.745 157.795 107.877 157.976 107.969 158.118H108.097V156.818H109.311V165.234C109.311 165.938 109.152 166.509 108.832 166.95C108.516 167.393 108.09 167.718 107.554 167.924C107.021 168.134 106.428 168.239 105.774 168.239ZM105.732 163.743C106.236 163.743 106.662 163.627 107.01 163.397C107.358 163.166 107.623 162.834 107.804 162.401C107.985 161.967 108.076 161.449 108.076 160.845C108.076 160.256 107.987 159.735 107.809 159.284C107.632 158.833 107.369 158.48 107.021 158.224C106.673 157.969 106.243 157.841 105.732 157.841C105.199 157.841 104.755 157.976 104.4 158.246C104.049 158.516 103.784 158.878 103.606 159.332C103.432 159.787 103.345 160.291 103.345 160.845C103.345 161.413 103.434 161.916 103.612 162.353C103.793 162.786 104.059 163.127 104.411 163.375C104.766 163.62 105.206 163.743 105.732 163.743ZM114.02 165.192C113.502 165.192 113.031 165.094 112.609 164.899C112.186 164.7 111.85 164.414 111.602 164.041C111.353 163.665 111.229 163.21 111.229 162.678C111.229 162.209 111.321 161.829 111.506 161.538C111.691 161.243 111.937 161.012 112.246 160.845C112.555 160.678 112.896 160.554 113.269 160.472C113.646 160.387 114.024 160.32 114.404 160.27C114.901 160.206 115.304 160.158 115.613 160.126C115.925 160.091 116.153 160.032 116.295 159.95C116.44 159.869 116.513 159.727 116.513 159.524V159.482C116.513 158.956 116.369 158.548 116.082 158.256C115.797 157.965 115.366 157.82 114.787 157.82C114.187 157.82 113.717 157.951 113.376 158.214C113.035 158.477 112.795 158.757 112.657 159.055L111.463 158.629C111.676 158.132 111.96 157.745 112.316 157.468C112.674 157.187 113.065 156.992 113.487 156.882C113.914 156.768 114.333 156.712 114.745 156.712C115.007 156.712 115.309 156.744 115.65 156.808C115.995 156.868 116.327 156.994 116.646 157.186C116.969 157.377 117.237 157.667 117.451 158.054C117.664 158.441 117.77 158.96 117.77 159.609V165H116.513V163.892H116.449C116.364 164.07 116.222 164.26 116.023 164.462C115.824 164.664 115.56 164.837 115.229 164.979C114.899 165.121 114.496 165.192 114.02 165.192ZM114.212 164.062C114.709 164.062 115.128 163.965 115.469 163.77C115.813 163.574 116.073 163.322 116.247 163.013C116.424 162.704 116.513 162.379 116.513 162.038V160.888C116.46 160.952 116.343 161.01 116.161 161.064C115.984 161.113 115.778 161.158 115.544 161.197C115.313 161.232 115.087 161.264 114.867 161.293C114.65 161.317 114.475 161.339 114.34 161.357C114.013 161.399 113.708 161.468 113.424 161.564C113.143 161.657 112.916 161.797 112.742 161.985C112.571 162.17 112.486 162.422 112.486 162.741C112.486 163.178 112.648 163.509 112.971 163.732C113.297 163.952 113.711 164.062 114.212 164.062ZM121.322 160.078V165H120.065V156.818H121.279V158.097H121.386C121.577 157.681 121.869 157.347 122.259 157.095C122.65 156.839 123.154 156.712 123.772 156.712C124.326 156.712 124.811 156.825 125.226 157.053C125.642 157.276 125.965 157.617 126.196 158.075C126.426 158.53 126.542 159.105 126.542 159.801V165H125.285V159.886C125.285 159.244 125.118 158.743 124.784 158.384C124.45 158.022 123.992 157.841 123.41 157.841C123.009 157.841 122.65 157.928 122.334 158.102C122.021 158.276 121.775 158.53 121.593 158.864C121.412 159.197 121.322 159.602 121.322 160.078ZM132.269 165.17C131.481 165.17 130.801 164.996 130.229 164.648C129.661 164.297 129.223 163.807 128.914 163.178C128.608 162.546 128.456 161.811 128.456 160.973C128.456 160.135 128.608 159.396 128.914 158.757C129.223 158.114 129.652 157.614 130.203 157.255C130.757 156.893 131.403 156.712 132.142 156.712C132.568 156.712 132.989 156.783 133.404 156.925C133.82 157.067 134.198 157.298 134.539 157.617C134.88 157.933 135.151 158.352 135.354 158.874C135.556 159.396 135.657 160.039 135.657 160.803V161.335H129.35V160.249H134.379C134.379 159.787 134.286 159.375 134.102 159.013C133.921 158.651 133.661 158.365 133.324 158.155C132.99 157.946 132.596 157.841 132.142 157.841C131.641 157.841 131.208 157.965 130.842 158.214C130.48 158.459 130.201 158.778 130.006 159.173C129.81 159.567 129.713 159.989 129.713 160.44V161.165C129.713 161.783 129.819 162.306 130.032 162.736C130.249 163.162 130.549 163.487 130.932 163.711C131.316 163.931 131.762 164.041 132.269 164.041C132.6 164.041 132.898 163.995 133.164 163.903C133.434 163.807 133.667 163.665 133.862 163.477C134.057 163.285 134.208 163.047 134.315 162.763L135.529 163.104C135.402 163.516 135.187 163.878 134.885 164.19C134.583 164.499 134.21 164.741 133.766 164.915C133.322 165.085 132.823 165.17 132.269 165.17Z" fill="white"/>
<path d="M350.818 58V34.7273H364.773V37.2273H353.636V45.0909H363.727V47.5909H353.636V58H350.818ZM375.045 58.3636C373.47 58.3636 372.087 57.9886 370.898 57.2386C369.716 56.4886 368.792 55.4394 368.125 54.0909C367.466 52.7424 367.136 51.1667 367.136 49.3636C367.136 47.5455 367.466 45.9583 368.125 44.6023C368.792 43.2462 369.716 42.1932 370.898 41.4432C372.087 40.6932 373.47 40.3182 375.045 40.3182C376.621 40.3182 378 40.6932 379.182 41.4432C380.371 42.1932 381.295 43.2462 381.955 44.6023C382.621 45.9583 382.955 47.5455 382.955 49.3636C382.955 51.1667 382.621 52.7424 381.955 54.0909C381.295 55.4394 380.371 56.4886 379.182 57.2386C378 57.9886 376.621 58.3636 375.045 58.3636ZM375.045 55.9545C376.242 55.9545 377.227 55.6477 378 55.0341C378.773 54.4205 379.345 53.6136 379.716 52.6136C380.087 51.6136 380.273 50.5303 380.273 49.3636C380.273 48.197 380.087 47.1098 379.716 46.1023C379.345 45.0947 378.773 44.2803 378 43.6591C377.227 43.0379 376.242 42.7273 375.045 42.7273C373.848 42.7273 372.864 43.0379 372.091 43.6591C371.318 44.2803 370.746 45.0947 370.375 46.1023C370.004 47.1098 369.818 48.197 369.818 49.3636C369.818 50.5303 370.004 51.6136 370.375 52.6136C370.746 53.6136 371.318 54.4205 372.091 55.0341C372.864 55.6477 373.848 55.9545 375.045 55.9545ZM387.048 58V40.5455H389.639V43.1818H389.821C390.139 42.3182 390.715 41.6174 391.548 41.0795C392.382 40.5417 393.321 40.2727 394.366 40.2727C394.563 40.2727 394.81 40.2765 395.105 40.2841C395.401 40.2917 395.624 40.303 395.776 40.3182V43.0455C395.685 43.0227 395.476 42.9886 395.151 42.9432C394.832 42.8902 394.495 42.8636 394.139 42.8636C393.291 42.8636 392.533 43.0417 391.866 43.3977C391.207 43.7462 390.685 44.2311 390.298 44.8523C389.92 45.4659 389.73 46.1667 389.73 46.9545V58H387.048ZM405.741 58.3636C404.06 58.3636 402.609 57.9924 401.389 57.25C400.177 56.5 399.241 55.4545 398.582 54.1136C397.931 52.7652 397.605 51.197 397.605 49.4091C397.605 47.6212 397.931 46.0455 398.582 44.6818C399.241 43.3106 400.158 42.2424 401.332 41.4773C402.514 40.7045 403.893 40.3182 405.469 40.3182C406.378 40.3182 407.276 40.4697 408.162 40.7727C409.048 41.0758 409.855 41.5682 410.582 42.25C411.31 42.9242 411.889 43.8182 412.321 44.9318C412.753 46.0455 412.969 47.4167 412.969 49.0455V50.1818H399.514V47.8636H410.241C410.241 46.8788 410.045 46 409.651 45.2273C409.264 44.4545 408.711 43.8447 407.991 43.3977C407.279 42.9508 406.438 42.7273 405.469 42.7273C404.401 42.7273 403.476 42.9924 402.696 43.5227C401.923 44.0455 401.329 44.7273 400.912 45.5682C400.495 46.4091 400.287 47.3106 400.287 48.2727V49.8182C400.287 51.1364 400.514 52.2538 400.969 53.1705C401.431 54.0795 402.071 54.7727 402.889 55.25C403.707 55.7197 404.658 55.9545 405.741 55.9545C406.446 55.9545 407.082 55.8561 407.651 55.6591C408.226 55.4545 408.723 55.1515 409.139 54.75C409.556 54.3409 409.878 53.8333 410.105 53.2273L412.696 53.9545C412.423 54.8333 411.965 55.6061 411.321 56.2727C410.677 56.9318 409.882 57.447 408.935 57.8182C407.988 58.1818 406.923 58.3636 405.741 58.3636ZM424.639 40.5455V42.8182H415.594V40.5455H424.639ZM418.23 36.3636H420.912V53C420.912 53.7576 421.022 54.3258 421.241 54.7045C421.469 55.0758 421.757 55.3258 422.105 55.4545C422.461 55.5758 422.836 55.6364 423.23 55.6364C423.526 55.6364 423.768 55.6212 423.957 55.5909C424.147 55.553 424.298 55.5227 424.412 55.5L424.957 57.9091C424.776 57.9773 424.522 58.0455 424.196 58.1136C423.87 58.1894 423.457 58.2273 422.957 58.2273C422.2 58.2273 421.457 58.0644 420.73 57.7386C420.01 57.4129 419.412 56.9167 418.935 56.25C418.465 55.5833 418.23 54.7424 418.23 53.7273V36.3636Z" fill="white"/>
<path d="M337 926.5H1403C1415.43 926.5 1425.5 936.574 1425.5 949V984C1425.5 996.426 1415.43 1006.5 1403 1006.5H337C324.574 1006.5 314.5 996.426 314.5 984V949C314.5 936.574 324.574 926.5 337 926.5Z" stroke="black" stroke-width="3"/>
<path d="M348.5 950V987" stroke="black"/>
<path d="M18.5341 32V30.4659L27.9432 16.4205H18.4318V14.5455H30.4659V16.0795L21.0568 30.125H30.5682V32H18.5341ZM39.1591 32.2727C37.9773 32.2727 36.9403 31.9915 36.0483 31.429C35.1619 30.8665 34.4688 30.0795 33.9688 29.0682C33.4744 28.0568 33.2273 26.875 33.2273 25.5227C33.2273 24.1591 33.4744 22.9687 33.9688 21.9517C34.4688 20.9347 35.1619 20.1449 36.0483 19.5824C36.9403 19.0199 37.9773 18.7386 39.1591 18.7386C40.3409 18.7386 41.375 19.0199 42.2614 19.5824C43.1534 20.1449 43.8466 20.9347 44.3409 21.9517C44.8409 22.9687 45.0909 24.1591 45.0909 25.5227C45.0909 26.875 44.8409 28.0568 44.3409 29.0682C43.8466 30.0795 43.1534 30.8665 42.2614 31.429C41.375 31.9915 40.3409 32.2727 39.1591 32.2727ZM39.1591 30.4659C40.0568 30.4659 40.7955 30.2358 41.375 29.7756C41.9545 29.3153 42.3835 28.7102 42.6619 27.9602C42.9403 27.2102 43.0795 26.3977 43.0795 25.5227C43.0795 24.6477 42.9403 23.8324 42.6619 23.0767C42.3835 22.321 41.9545 21.7102 41.375 21.2443C40.7955 20.7784 40.0568 20.5455 39.1591 20.5455C38.2614 20.5455 37.5227 20.7784 36.9432 21.2443C36.3636 21.7102 35.9347 22.321 35.6562 23.0767C35.3778 23.8324 35.2386 24.6477 35.2386 25.5227C35.2386 26.3977 35.3778 27.2102 35.6562 27.9602C35.9347 28.7102 36.3636 29.3153 36.9432 29.7756C37.5227 30.2358 38.2614 30.4659 39.1591 30.4659ZM50.1726 24.125V32H48.1612V18.9091H50.1044V20.9545H50.2749C50.5817 20.2898 51.0476 19.7557 51.6726 19.3523C52.2976 18.9432 53.1044 18.7386 54.093 18.7386C54.9794 18.7386 55.755 18.9205 56.4197 19.2841C57.0845 19.642 57.6016 20.1875 57.9709 20.9205C58.3402 21.6477 58.5249 22.5682 58.5249 23.6818V32H56.5135V23.8182C56.5135 22.7898 56.2464 21.9886 55.7124 21.4148C55.1783 20.8352 54.4453 20.5455 53.5135 20.5455C52.8714 20.5455 52.2976 20.6847 51.7919 20.9631C51.2919 21.2415 50.897 21.6477 50.6072 22.1818C50.3175 22.7159 50.1726 23.3636 50.1726 24.125ZM67.6889 32.2727C66.4276 32.2727 65.3395 31.9943 64.4247 31.4375C63.5156 30.875 62.8139 30.0909 62.3196 29.0852C61.831 28.0739 61.5866 26.8977 61.5866 25.5568C61.5866 24.2159 61.831 23.0341 62.3196 22.0114C62.8139 20.983 63.5014 20.1818 64.3821 19.608C65.2685 19.0284 66.3026 18.7386 67.4844 18.7386C68.1662 18.7386 68.8395 18.8523 69.5043 19.0795C70.169 19.3068 70.7741 19.6761 71.3196 20.1875C71.8651 20.6932 72.2997 21.3636 72.6236 22.1989C72.9474 23.0341 73.1094 24.0625 73.1094 25.2841V26.1364H63.0185V24.3977H71.0639C71.0639 23.6591 70.9162 23 70.6207 22.4205C70.331 21.8409 69.9162 21.3835 69.3764 21.0483C68.8423 20.7131 68.2116 20.5455 67.4844 20.5455C66.6832 20.5455 65.9901 20.7443 65.4048 21.142C64.8253 21.5341 64.3793 22.0455 64.0668 22.6761C63.7543 23.3068 63.598 23.983 63.598 24.7045V25.8636C63.598 26.8523 63.7685 27.6903 64.1094 28.3778C64.456 29.0597 64.9361 29.5795 65.5497 29.9375C66.1634 30.2898 66.8764 30.4659 67.6889 30.4659C68.2173 30.4659 68.6946 30.392 69.1207 30.2443C69.5526 30.0909 69.9247 29.8636 70.2372 29.5625C70.5497 29.2557 70.7912 28.875 70.9616 28.4205L72.9048 28.9659C72.7003 29.625 72.3565 30.2045 71.8736 30.7045C71.3906 31.1989 70.794 31.5852 70.0838 31.8636C69.3736 32.1364 68.5753 32.2727 67.6889 32.2727ZM85.4418 21.8409L83.6349 22.3523C83.5213 22.0511 83.3537 21.7585 83.1321 21.4744C82.9162 21.1847 82.6207 20.946 82.2457 20.7585C81.8707 20.571 81.3906 20.4773 80.8054 20.4773C80.0043 20.4773 79.3366 20.6619 78.8026 21.0312C78.2741 21.3949 78.0099 21.858 78.0099 22.4205C78.0099 22.9205 78.1918 23.3153 78.5554 23.6051C78.919 23.8949 79.4872 24.1364 80.2599 24.3295L82.2031 24.8068C83.3736 25.0909 84.2457 25.5256 84.8196 26.1108C85.3935 26.6903 85.6804 27.4375 85.6804 28.3523C85.6804 29.1023 85.4645 29.7727 85.0327 30.3636C84.6065 30.9545 84.0099 31.4205 83.2429 31.7614C82.4759 32.1023 81.5838 32.2727 80.5668 32.2727C79.2315 32.2727 78.1264 31.983 77.2514 31.4034C76.3764 30.8239 75.8224 29.9773 75.5895 28.8636L77.4986 28.3864C77.6804 29.0909 78.0241 29.6193 78.5298 29.9716C79.0412 30.3239 79.7088 30.5 80.5327 30.5C81.4702 30.5 82.2145 30.3011 82.7656 29.9034C83.3224 29.5 83.6009 29.017 83.6009 28.4545C83.6009 28 83.4418 27.6193 83.1236 27.3125C82.8054 27 82.3168 26.767 81.6577 26.6136L79.4759 26.1023C78.277 25.8182 77.3963 25.3778 76.8338 24.7812C76.277 24.179 75.9986 23.4261 75.9986 22.5227C75.9986 21.7841 76.206 21.1307 76.6207 20.5625C77.0412 19.9943 77.6122 19.5483 78.3338 19.2244C79.0611 18.9006 79.8849 18.7386 80.8054 18.7386C82.1009 18.7386 83.1179 19.0227 83.8565 19.5909C84.6009 20.1591 85.1293 20.9091 85.4418 21.8409Z" fill="white"/>
<path d="M527 860L1277 860" stroke="#ABE3DF" stroke-width="31" stroke-linecap="round"/>
<path d="M530 595H995" stroke="#ABE3DF" stroke-width="31" stroke-linecap="round"/>
<path d="M530 791H1176" stroke="#ABE3DF" stroke-width="31" stroke-linecap="round"/>
<path d="M527 660L1135 660" stroke="#ABE3DF" stroke-width="31" stroke-linecap="round"/>
<path d="M530 530H1280" stroke="#ABE3DF" stroke-width="31" stroke-linecap="round"/>
<path d="M527 727L1277 727" stroke="#ABE3DF" stroke-width="31" stroke-linecap="round"/>
<rect x="343" y="639" width="140" height="42" rx="11" fill="#ED7E7E"/>
<path d="M363.114 648.545H365.636L371.568 663.034H371.773L377.705 648.545H380.227V666H378.25V652.739H378.08L372.625 666H370.716L365.261 652.739H365.091V666H363.114V648.545ZM388.045 666.307C387.215 666.307 386.462 666.151 385.786 665.838C385.11 665.52 384.573 665.062 384.175 664.466C383.778 663.864 383.579 663.136 383.579 662.284C383.579 661.534 383.727 660.926 384.022 660.46C384.317 659.989 384.712 659.619 385.207 659.352C385.701 659.085 386.246 658.886 386.843 658.756C387.445 658.619 388.05 658.511 388.658 658.432C389.454 658.33 390.099 658.253 390.593 658.202C391.093 658.145 391.457 658.051 391.684 657.92C391.917 657.79 392.033 657.562 392.033 657.239V657.17C392.033 656.33 391.803 655.676 391.343 655.21C390.888 654.744 390.198 654.511 389.272 654.511C388.312 654.511 387.559 654.722 387.013 655.142C386.468 655.562 386.085 656.011 385.863 656.489L383.954 655.807C384.295 655.011 384.749 654.392 385.317 653.949C385.891 653.5 386.516 653.187 387.192 653.011C387.874 652.83 388.545 652.739 389.204 652.739C389.624 652.739 390.107 652.79 390.653 652.892C391.204 652.989 391.735 653.19 392.246 653.497C392.763 653.804 393.192 654.267 393.533 654.886C393.874 655.506 394.045 656.335 394.045 657.375V666H392.033V664.227H391.931C391.795 664.511 391.567 664.815 391.249 665.139C390.931 665.463 390.508 665.739 389.979 665.966C389.451 666.193 388.806 666.307 388.045 666.307ZM388.352 664.5C389.147 664.5 389.817 664.344 390.363 664.031C390.914 663.719 391.329 663.315 391.607 662.821C391.891 662.327 392.033 661.807 392.033 661.261V659.42C391.948 659.523 391.761 659.616 391.471 659.702C391.187 659.781 390.857 659.852 390.482 659.915C390.113 659.972 389.752 660.023 389.4 660.068C389.053 660.108 388.772 660.142 388.556 660.17C388.033 660.239 387.545 660.349 387.09 660.503C386.641 660.651 386.278 660.875 385.999 661.176C385.727 661.472 385.59 661.875 385.59 662.386C385.59 663.085 385.849 663.614 386.366 663.972C386.888 664.324 387.55 664.5 388.352 664.5ZM397.716 666V652.909H399.659V654.886H399.795C400.034 654.239 400.466 653.713 401.091 653.31C401.716 652.906 402.42 652.705 403.205 652.705C403.352 652.705 403.537 652.707 403.759 652.713C403.98 652.719 404.148 652.727 404.261 652.739V654.784C404.193 654.767 404.037 654.741 403.793 654.707C403.554 654.668 403.301 654.648 403.034 654.648C402.398 654.648 401.83 654.781 401.33 655.048C400.835 655.31 400.443 655.673 400.153 656.139C399.869 656.599 399.727 657.125 399.727 657.716V666H397.716ZM415.918 655.841L414.112 656.352C413.998 656.051 413.83 655.759 413.609 655.474C413.393 655.185 413.097 654.946 412.722 654.759C412.347 654.571 411.867 654.477 411.282 654.477C410.481 654.477 409.813 654.662 409.279 655.031C408.751 655.395 408.487 655.858 408.487 656.42C408.487 656.92 408.668 657.315 409.032 657.605C409.396 657.895 409.964 658.136 410.737 658.33L412.68 658.807C413.85 659.091 414.722 659.526 415.296 660.111C415.87 660.69 416.157 661.437 416.157 662.352C416.157 663.102 415.941 663.773 415.509 664.364C415.083 664.955 414.487 665.42 413.719 665.761C412.952 666.102 412.06 666.273 411.043 666.273C409.708 666.273 408.603 665.983 407.728 665.403C406.853 664.824 406.299 663.977 406.066 662.864L407.975 662.386C408.157 663.091 408.501 663.619 409.006 663.972C409.518 664.324 410.185 664.5 411.009 664.5C411.947 664.5 412.691 664.301 413.242 663.903C413.799 663.5 414.077 663.017 414.077 662.455C414.077 662 413.918 661.619 413.6 661.312C413.282 661 412.793 660.767 412.134 660.614L409.952 660.102C408.754 659.818 407.873 659.378 407.31 658.781C406.754 658.179 406.475 657.426 406.475 656.523C406.475 655.784 406.683 655.131 407.097 654.562C407.518 653.994 408.089 653.548 408.81 653.224C409.538 652.901 410.362 652.739 411.282 652.739C412.577 652.739 413.594 653.023 414.333 653.591C415.077 654.159 415.606 654.909 415.918 655.841ZM424.503 666.273C423.321 666.273 422.284 665.991 421.392 665.429C420.506 664.866 419.812 664.08 419.312 663.068C418.818 662.057 418.571 660.875 418.571 659.523C418.571 658.159 418.818 656.969 419.312 655.952C419.812 654.935 420.506 654.145 421.392 653.582C422.284 653.02 423.321 652.739 424.503 652.739C425.685 652.739 426.719 653.02 427.605 653.582C428.497 654.145 429.19 654.935 429.685 655.952C430.185 656.969 430.435 658.159 430.435 659.523C430.435 660.875 430.185 662.057 429.685 663.068C429.19 664.08 428.497 664.866 427.605 665.429C426.719 665.991 425.685 666.273 424.503 666.273ZM424.503 664.466C425.401 664.466 426.139 664.236 426.719 663.776C427.298 663.315 427.727 662.71 428.006 661.96C428.284 661.21 428.423 660.398 428.423 659.523C428.423 658.648 428.284 657.832 428.006 657.077C427.727 656.321 427.298 655.71 426.719 655.244C426.139 654.778 425.401 654.545 424.503 654.545C423.605 654.545 422.866 654.778 422.287 655.244C421.707 655.71 421.278 656.321 421 657.077C420.722 657.832 420.582 658.648 420.582 659.523C420.582 660.398 420.722 661.21 421 661.96C421.278 662.71 421.707 663.315 422.287 663.776C422.866 664.236 423.605 664.466 424.503 664.466ZM441.755 660.648V652.909H443.766V666H441.755V663.784H441.619C441.312 664.449 440.835 665.014 440.187 665.48C439.539 665.94 438.721 666.17 437.732 666.17C436.914 666.17 436.187 665.991 435.55 665.634C434.914 665.27 434.414 664.724 434.05 663.997C433.687 663.264 433.505 662.341 433.505 661.227V652.909H435.516V661.091C435.516 662.045 435.783 662.807 436.317 663.375C436.857 663.943 437.545 664.227 438.38 664.227C438.88 664.227 439.388 664.099 439.906 663.844C440.428 663.588 440.866 663.196 441.218 662.668C441.576 662.139 441.755 661.466 441.755 660.648ZM447.45 666V652.909H449.462V666H447.45ZM448.473 650.727C448.081 650.727 447.743 650.594 447.459 650.327C447.18 650.06 447.041 649.739 447.041 649.364C447.041 648.989 447.18 648.668 447.459 648.401C447.743 648.134 448.081 648 448.473 648C448.865 648 449.2 648.134 449.479 648.401C449.763 648.668 449.905 648.989 449.905 649.364C449.905 649.739 449.763 650.06 449.479 650.327C449.2 650.594 448.865 650.727 448.473 650.727ZM455.157 658.125V666H453.146V652.909H455.089V654.955H455.259C455.566 654.29 456.032 653.756 456.657 653.352C457.282 652.943 458.089 652.739 459.077 652.739C459.964 652.739 460.739 652.92 461.404 653.284C462.069 653.642 462.586 654.188 462.955 654.92C463.325 655.648 463.509 656.568 463.509 657.682V666H461.498V657.818C461.498 656.79 461.231 655.989 460.697 655.415C460.163 654.835 459.43 654.545 458.498 654.545C457.856 654.545 457.282 654.685 456.776 654.963C456.276 655.241 455.881 655.648 455.592 656.182C455.302 656.716 455.157 657.364 455.157 658.125Z" fill="white"/>
<rect x="343" y="509" width="140" height="42" rx="11" fill="#494949"/>
<path d="M381.633 536V518.545H392.167V520.42H383.747V526.318H391.622V528.193H383.747V534.125H392.304V536H381.633ZM406.409 522.909L401.568 536H399.522L394.681 522.909H396.863L400.477 533.341H400.613L404.227 522.909H406.409ZM414.083 536.273C412.822 536.273 411.734 535.994 410.819 535.438C409.91 534.875 409.208 534.091 408.714 533.085C408.225 532.074 407.981 530.898 407.981 529.557C407.981 528.216 408.225 527.034 408.714 526.011C409.208 524.983 409.896 524.182 410.777 523.608C411.663 523.028 412.697 522.739 413.879 522.739C414.561 522.739 415.234 522.852 415.899 523.08C416.564 523.307 417.169 523.676 417.714 524.188C418.26 524.693 418.694 525.364 419.018 526.199C419.342 527.034 419.504 528.062 419.504 529.284V530.136H409.413V528.398H417.458C417.458 527.659 417.311 527 417.015 526.42C416.725 525.841 416.311 525.384 415.771 525.048C415.237 524.713 414.606 524.545 413.879 524.545C413.078 524.545 412.385 524.744 411.799 525.142C411.22 525.534 410.774 526.045 410.461 526.676C410.149 527.307 409.993 527.983 409.993 528.705V529.864C409.993 530.852 410.163 531.69 410.504 532.378C410.85 533.06 411.331 533.58 411.944 533.938C412.558 534.29 413.271 534.466 414.083 534.466C414.612 534.466 415.089 534.392 415.515 534.244C415.947 534.091 416.319 533.864 416.632 533.562C416.944 533.256 417.186 532.875 417.356 532.42L419.299 532.966C419.095 533.625 418.751 534.205 418.268 534.705C417.785 535.199 417.189 535.585 416.478 535.864C415.768 536.136 414.97 536.273 414.083 536.273ZM424.575 528.125V536H422.564V522.909H424.507V524.955H424.677C424.984 524.29 425.45 523.756 426.075 523.352C426.7 522.943 427.507 522.739 428.495 522.739C429.382 522.739 430.157 522.92 430.822 523.284C431.487 523.642 432.004 524.188 432.373 524.92C432.743 525.648 432.927 526.568 432.927 527.682V536H430.916V527.818C430.916 526.79 430.649 525.989 430.115 525.415C429.581 524.835 428.848 524.545 427.916 524.545C427.274 524.545 426.7 524.685 426.194 524.963C425.694 525.241 425.299 525.648 425.01 526.182C424.72 526.716 424.575 527.364 424.575 528.125ZM442.296 522.909V524.614H435.512V522.909H442.296ZM437.489 519.773H439.5V532.25C439.5 532.818 439.583 533.244 439.748 533.528C439.918 533.807 440.134 533.994 440.395 534.091C440.662 534.182 440.944 534.227 441.239 534.227C441.461 534.227 441.642 534.216 441.784 534.193C441.926 534.165 442.04 534.142 442.125 534.125L442.534 535.932C442.398 535.983 442.208 536.034 441.963 536.085C441.719 536.142 441.409 536.17 441.034 536.17C440.466 536.17 439.909 536.048 439.364 535.804C438.824 535.56 438.375 535.188 438.017 534.688C437.665 534.188 437.489 533.557 437.489 532.795V519.773Z" fill="white"/>
<rect x="340" y="151" width="140" height="42" rx="11" fill="#494949"/>
<path d="M390.211 178V160.545H396.109C397.478 160.545 398.598 160.793 399.467 161.287C400.342 161.776 400.99 162.438 401.41 163.273C401.831 164.108 402.041 165.04 402.041 166.068C402.041 167.097 401.831 168.031 401.41 168.872C400.995 169.713 400.353 170.384 399.484 170.884C398.615 171.378 397.501 171.625 396.143 171.625H391.916V169.75H396.075C397.012 169.75 397.765 169.588 398.333 169.264C398.902 168.94 399.314 168.503 399.569 167.952C399.831 167.395 399.961 166.767 399.961 166.068C399.961 165.369 399.831 164.744 399.569 164.193C399.314 163.642 398.899 163.21 398.325 162.898C397.751 162.58 396.99 162.42 396.041 162.42H392.325V178H390.211ZM410.35 178.273C409.169 178.273 408.132 177.991 407.24 177.429C406.353 176.866 405.66 176.08 405.16 175.068C404.666 174.057 404.419 172.875 404.419 171.523C404.419 170.159 404.666 168.969 405.16 167.952C405.66 166.935 406.353 166.145 407.24 165.582C408.132 165.02 409.169 164.739 410.35 164.739C411.532 164.739 412.566 165.02 413.453 165.582C414.345 166.145 415.038 166.935 415.532 167.952C416.032 168.969 416.282 170.159 416.282 171.523C416.282 172.875 416.032 174.057 415.532 175.068C415.038 176.08 414.345 176.866 413.453 177.429C412.566 177.991 411.532 178.273 410.35 178.273ZM410.35 176.466C411.248 176.466 411.987 176.236 412.566 175.776C413.146 175.315 413.575 174.71 413.853 173.96C414.132 173.21 414.271 172.398 414.271 171.523C414.271 170.648 414.132 169.832 413.853 169.077C413.575 168.321 413.146 167.71 412.566 167.244C411.987 166.778 411.248 166.545 410.35 166.545C409.453 166.545 408.714 166.778 408.135 167.244C407.555 167.71 407.126 168.321 406.848 169.077C406.569 169.832 406.43 170.648 406.43 171.523C406.43 172.398 406.569 173.21 406.848 173.96C407.126 174.71 407.555 175.315 408.135 175.776C408.714 176.236 409.453 176.466 410.35 176.466ZM421.364 160.545V178H419.353V160.545H421.364ZM427.059 160.545V178H425.048V160.545H427.059Z" fill="white"/>
<rect x="343" y="706" width="140" height="42" rx="11" fill="#EDB37E"/>
<path d="M363.114 715.545H365.636L371.568 730.034H371.773L377.705 715.545H380.227V733H378.25V719.739H378.08L372.625 733H370.716L365.261 719.739H365.091V733H363.114V715.545ZM388.045 733.307C387.215 733.307 386.462 733.151 385.786 732.838C385.11 732.52 384.573 732.062 384.175 731.466C383.778 730.864 383.579 730.136 383.579 729.284C383.579 728.534 383.727 727.926 384.022 727.46C384.317 726.989 384.712 726.619 385.207 726.352C385.701 726.085 386.246 725.886 386.843 725.756C387.445 725.619 388.05 725.511 388.658 725.432C389.454 725.33 390.099 725.253 390.593 725.202C391.093 725.145 391.457 725.051 391.684 724.92C391.917 724.79 392.033 724.562 392.033 724.239V724.17C392.033 723.33 391.803 722.676 391.343 722.21C390.888 721.744 390.198 721.511 389.272 721.511C388.312 721.511 387.559 721.722 387.013 722.142C386.468 722.562 386.085 723.011 385.863 723.489L383.954 722.807C384.295 722.011 384.749 721.392 385.317 720.949C385.891 720.5 386.516 720.187 387.192 720.011C387.874 719.83 388.545 719.739 389.204 719.739C389.624 719.739 390.107 719.79 390.653 719.892C391.204 719.989 391.735 720.19 392.246 720.497C392.763 720.804 393.192 721.267 393.533 721.886C393.874 722.506 394.045 723.335 394.045 724.375V733H392.033V731.227H391.931C391.795 731.511 391.567 731.815 391.249 732.139C390.931 732.463 390.508 732.739 389.979 732.966C389.451 733.193 388.806 733.307 388.045 733.307ZM388.352 731.5C389.147 731.5 389.817 731.344 390.363 731.031C390.914 730.719 391.329 730.315 391.607 729.821C391.891 729.327 392.033 728.807 392.033 728.261V726.42C391.948 726.523 391.761 726.616 391.471 726.702C391.187 726.781 390.857 726.852 390.482 726.915C390.113 726.972 389.752 727.023 389.4 727.068C389.053 727.108 388.772 727.142 388.556 727.17C388.033 727.239 387.545 727.349 387.09 727.503C386.641 727.651 386.278 727.875 385.999 728.176C385.727 728.472 385.59 728.875 385.59 729.386C385.59 730.085 385.849 730.614 386.366 730.972C386.888 731.324 387.55 731.5 388.352 731.5ZM397.716 733V719.909H399.659V721.886H399.795C400.034 721.239 400.466 720.713 401.091 720.31C401.716 719.906 402.42 719.705 403.205 719.705C403.352 719.705 403.537 719.707 403.759 719.713C403.98 719.719 404.148 719.727 404.261 719.739V721.784C404.193 721.767 404.037 721.741 403.793 721.707C403.554 721.668 403.301 721.648 403.034 721.648C402.398 721.648 401.83 721.781 401.33 722.048C400.835 722.31 400.443 722.673 400.153 723.139C399.869 723.599 399.727 724.125 399.727 724.716V733H397.716ZM415.918 722.841L414.112 723.352C413.998 723.051 413.83 722.759 413.609 722.474C413.393 722.185 413.097 721.946 412.722 721.759C412.347 721.571 411.867 721.477 411.282 721.477C410.481 721.477 409.813 721.662 409.279 722.031C408.751 722.395 408.487 722.858 408.487 723.42C408.487 723.92 408.668 724.315 409.032 724.605C409.396 724.895 409.964 725.136 410.737 725.33L412.68 725.807C413.85 726.091 414.722 726.526 415.296 727.111C415.87 727.69 416.157 728.437 416.157 729.352C416.157 730.102 415.941 730.773 415.509 731.364C415.083 731.955 414.487 732.42 413.719 732.761C412.952 733.102 412.06 733.273 411.043 733.273C409.708 733.273 408.603 732.983 407.728 732.403C406.853 731.824 406.299 730.977 406.066 729.864L407.975 729.386C408.157 730.091 408.501 730.619 409.006 730.972C409.518 731.324 410.185 731.5 411.009 731.5C411.947 731.5 412.691 731.301 413.242 730.903C413.799 730.5 414.077 730.017 414.077 729.455C414.077 729 413.918 728.619 413.6 728.312C413.282 728 412.793 727.767 412.134 727.614L409.952 727.102C408.754 726.818 407.873 726.378 407.31 725.781C406.754 725.179 406.475 724.426 406.475 723.523C406.475 722.784 406.683 722.131 407.097 721.562C407.518 720.994 408.089 720.548 408.81 720.224C409.538 719.901 410.362 719.739 411.282 719.739C412.577 719.739 413.594 720.023 414.333 720.591C415.077 721.159 415.606 721.909 415.918 722.841ZM424.503 733.273C423.321 733.273 422.284 732.991 421.392 732.429C420.506 731.866 419.812 731.08 419.312 730.068C418.818 729.057 418.571 727.875 418.571 726.523C418.571 725.159 418.818 723.969 419.312 722.952C419.812 721.935 420.506 721.145 421.392 720.582C422.284 720.02 423.321 719.739 424.503 719.739C425.685 719.739 426.719 720.02 427.605 720.582C428.497 721.145 429.19 721.935 429.685 722.952C430.185 723.969 430.435 725.159 430.435 726.523C430.435 727.875 430.185 729.057 429.685 730.068C429.19 731.08 428.497 731.866 427.605 732.429C426.719 732.991 425.685 733.273 424.503 733.273ZM424.503 731.466C425.401 731.466 426.139 731.236 426.719 730.776C427.298 730.315 427.727 729.71 428.006 728.96C428.284 728.21 428.423 727.398 428.423 726.523C428.423 725.648 428.284 724.832 428.006 724.077C427.727 723.321 427.298 722.71 426.719 722.244C426.139 721.778 425.401 721.545 424.503 721.545C423.605 721.545 422.866 721.778 422.287 722.244C421.707 722.71 421.278 723.321 421 724.077C420.722 724.832 420.582 725.648 420.582 726.523C420.582 727.398 420.722 728.21 421 728.96C421.278 729.71 421.707 730.315 422.287 730.776C422.866 731.236 423.605 731.466 424.503 731.466ZM441.755 727.648V719.909H443.766V733H441.755V730.784H441.619C441.312 731.449 440.835 732.014 440.187 732.48C439.539 732.94 438.721 733.17 437.732 733.17C436.914 733.17 436.187 732.991 435.55 732.634C434.914 732.27 434.414 731.724 434.05 730.997C433.687 730.264 433.505 729.341 433.505 728.227V719.909H435.516V728.091C435.516 729.045 435.783 729.807 436.317 730.375C436.857 730.943 437.545 731.227 438.38 731.227C438.88 731.227 439.388 731.099 439.906 730.844C440.428 730.588 440.866 730.196 441.218 729.668C441.576 729.139 441.755 728.466 441.755 727.648ZM447.45 733V719.909H449.462V733H447.45ZM448.473 717.727C448.081 717.727 447.743 717.594 447.459 717.327C447.18 717.06 447.041 716.739 447.041 716.364C447.041 715.989 447.18 715.668 447.459 715.401C447.743 715.134 448.081 715 448.473 715C448.865 715 449.2 715.134 449.479 715.401C449.763 715.668 449.905 715.989 449.905 716.364C449.905 716.739 449.763 717.06 449.479 717.327C449.2 717.594 448.865 717.727 448.473 717.727ZM455.157 725.125V733H453.146V719.909H455.089V721.955H455.259C455.566 721.29 456.032 720.756 456.657 720.352C457.282 719.943 458.089 719.739 459.077 719.739C459.964 719.739 460.739 719.92 461.404 720.284C462.069 720.642 462.586 721.188 462.955 721.92C463.325 722.648 463.509 723.568 463.509 724.682V733H461.498V724.818C461.498 723.79 461.231 722.989 460.697 722.415C460.163 721.835 459.43 721.545 458.498 721.545C457.856 721.545 457.282 721.685 456.776 721.963C456.276 722.241 455.881 722.648 455.592 723.182C455.302 723.716 455.157 724.364 455.157 725.125Z" fill="white"/>
<rect x="343" y="706" width="140" height="42" rx="11" fill="#EDB37E"/>
<path d="M372.659 719.909C372.557 719.045 372.142 718.375 371.415 717.898C370.688 717.42 369.795 717.182 368.739 717.182C367.966 717.182 367.29 717.307 366.71 717.557C366.136 717.807 365.688 718.151 365.364 718.588C365.045 719.026 364.886 719.523 364.886 720.08C364.886 720.545 364.997 720.946 365.219 721.281C365.446 721.611 365.736 721.886 366.088 722.108C366.44 722.324 366.81 722.503 367.196 722.645C367.582 722.781 367.938 722.892 368.261 722.977L370.034 723.455C370.489 723.574 370.994 723.739 371.551 723.949C372.114 724.159 372.651 724.446 373.162 724.81C373.679 725.168 374.105 725.628 374.44 726.19C374.776 726.753 374.943 727.443 374.943 728.261C374.943 729.205 374.696 730.057 374.202 730.818C373.713 731.58 372.997 732.185 372.054 732.634C371.116 733.082 369.977 733.307 368.636 733.307C367.386 733.307 366.304 733.105 365.389 732.702C364.48 732.298 363.764 731.736 363.241 731.014C362.724 730.293 362.432 729.455 362.364 728.5H364.545C364.602 729.159 364.824 729.705 365.21 730.136C365.602 730.562 366.097 730.881 366.693 731.091C367.295 731.295 367.943 731.398 368.636 731.398C369.443 731.398 370.168 731.267 370.81 731.006C371.452 730.739 371.96 730.369 372.335 729.898C372.71 729.42 372.898 728.864 372.898 728.227C372.898 727.648 372.736 727.176 372.412 726.812C372.088 726.449 371.662 726.153 371.134 725.926C370.605 725.699 370.034 725.5 369.42 725.33L367.273 724.716C365.909 724.324 364.83 723.764 364.034 723.037C363.239 722.31 362.841 721.358 362.841 720.182C362.841 719.205 363.105 718.352 363.634 717.625C364.168 716.892 364.884 716.324 365.781 715.92C366.685 715.511 367.693 715.307 368.807 715.307C369.932 715.307 370.932 715.509 371.807 715.912C372.682 716.31 373.375 716.855 373.886 717.548C374.403 718.241 374.676 719.028 374.705 719.909H372.659ZM386.396 727.648V719.909H388.407V733H386.396V730.784H386.259C385.952 731.449 385.475 732.014 384.827 732.48C384.18 732.94 383.362 733.17 382.373 733.17C381.555 733.17 380.827 732.991 380.191 732.634C379.555 732.27 379.055 731.724 378.691 730.997C378.327 730.264 378.146 729.341 378.146 728.227V719.909H380.157V728.091C380.157 729.045 380.424 729.807 380.958 730.375C381.498 730.943 382.185 731.227 383.021 731.227C383.521 731.227 384.029 731.099 384.546 730.844C385.069 730.588 385.506 730.196 385.859 729.668C386.217 729.139 386.396 728.466 386.396 727.648ZM392.091 733V719.909H394.034V721.886H394.17C394.409 721.239 394.841 720.713 395.466 720.31C396.091 719.906 396.795 719.705 397.58 719.705C397.727 719.705 397.912 719.707 398.134 719.713C398.355 719.719 398.523 719.727 398.636 719.739V721.784C398.568 721.767 398.412 721.741 398.168 721.707C397.929 721.668 397.676 721.648 397.409 721.648C396.773 721.648 396.205 721.781 395.705 722.048C395.21 722.31 394.818 722.673 394.528 723.139C394.244 723.599 394.102 724.125 394.102 724.716V733H392.091ZM401.021 733V719.909H402.964V721.886H403.1C403.339 721.239 403.771 720.713 404.396 720.31C405.021 719.906 405.725 719.705 406.509 719.705C406.657 719.705 406.842 719.707 407.063 719.713C407.285 719.719 407.452 719.727 407.566 719.739V721.784C407.498 721.767 407.342 721.741 407.097 721.707C406.859 721.668 406.606 721.648 406.339 721.648C405.702 721.648 405.134 721.781 404.634 722.048C404.14 722.31 403.748 722.673 403.458 723.139C403.174 723.599 403.032 724.125 403.032 724.716V733H401.021ZM409.95 733V719.909H411.962V733H409.95ZM410.973 717.727C410.581 717.727 410.243 717.594 409.959 717.327C409.68 717.06 409.541 716.739 409.541 716.364C409.541 715.989 409.68 715.668 409.959 715.401C410.243 715.134 410.581 715 410.973 715C411.365 715 411.7 715.134 411.979 715.401C412.263 715.668 412.405 715.989 412.405 716.364C412.405 716.739 412.263 717.06 411.979 717.327C411.7 717.594 411.365 717.727 410.973 717.727ZM420.964 733.273C419.737 733.273 418.68 732.983 417.793 732.403C416.907 731.824 416.225 731.026 415.748 730.009C415.271 728.991 415.032 727.83 415.032 726.523C415.032 725.193 415.276 724.02 415.765 723.003C416.259 721.98 416.947 721.182 417.827 720.608C418.714 720.028 419.748 719.739 420.93 719.739C421.85 719.739 422.68 719.909 423.418 720.25C424.157 720.591 424.762 721.068 425.234 721.682C425.705 722.295 425.998 723.011 426.112 723.83H424.1C423.947 723.233 423.606 722.705 423.077 722.244C422.555 721.778 421.85 721.545 420.964 721.545C420.18 721.545 419.492 721.75 418.901 722.159C418.316 722.562 417.859 723.134 417.529 723.872C417.205 724.605 417.043 725.466 417.043 726.455C417.043 727.466 417.202 728.347 417.521 729.097C417.844 729.847 418.299 730.429 418.884 730.844C419.475 731.259 420.168 731.466 420.964 731.466C421.487 731.466 421.961 731.375 422.387 731.193C422.813 731.011 423.174 730.75 423.469 730.409C423.765 730.068 423.975 729.659 424.1 729.182H426.112C425.998 729.955 425.717 730.651 425.268 731.27C424.825 731.884 424.237 732.372 423.504 732.736C422.776 733.094 421.93 733.273 420.964 733.273ZM432.904 733.307C432.075 733.307 431.322 733.151 430.646 732.838C429.969 732.52 429.433 732.062 429.035 731.466C428.637 730.864 428.438 730.136 428.438 729.284C428.438 728.534 428.586 727.926 428.881 727.46C429.177 726.989 429.572 726.619 430.066 726.352C430.56 726.085 431.106 725.886 431.702 725.756C432.305 725.619 432.91 725.511 433.518 725.432C434.313 725.33 434.958 725.253 435.452 725.202C435.952 725.145 436.316 725.051 436.543 724.92C436.776 724.79 436.893 724.562 436.893 724.239V724.17C436.893 723.33 436.663 722.676 436.202 722.21C435.748 721.744 435.058 721.511 434.131 721.511C433.171 721.511 432.418 721.722 431.873 722.142C431.327 722.562 430.944 723.011 430.722 723.489L428.813 722.807C429.154 722.011 429.609 721.392 430.177 720.949C430.751 720.5 431.376 720.187 432.052 720.011C432.734 719.83 433.404 719.739 434.063 719.739C434.484 719.739 434.967 719.79 435.512 719.892C436.063 719.989 436.594 720.19 437.106 720.497C437.623 720.804 438.052 721.267 438.393 721.886C438.734 722.506 438.904 723.335 438.904 724.375V733H436.893V731.227H436.79C436.654 731.511 436.427 731.815 436.109 732.139C435.79 732.463 435.367 732.739 434.839 732.966C434.31 733.193 433.665 733.307 432.904 733.307ZM433.211 731.5C434.006 731.5 434.677 731.344 435.222 731.031C435.773 730.719 436.188 730.315 436.467 729.821C436.751 729.327 436.893 728.807 436.893 728.261V726.42C436.808 726.523 436.62 726.616 436.33 726.702C436.046 726.781 435.717 726.852 435.342 726.915C434.972 726.972 434.612 727.023 434.259 727.068C433.913 727.108 433.631 727.142 433.415 727.17C432.893 727.239 432.404 727.349 431.95 727.503C431.501 727.651 431.137 727.875 430.859 728.176C430.586 728.472 430.45 728.875 430.45 729.386C430.45 730.085 430.708 730.614 431.225 730.972C431.748 731.324 432.41 731.5 433.211 731.5ZM448.268 719.909V721.614H441.484V719.909H448.268ZM443.462 716.773H445.473V729.25C445.473 729.818 445.555 730.244 445.72 730.528C445.891 730.807 446.107 730.994 446.368 731.091C446.635 731.182 446.916 731.227 447.212 731.227C447.433 731.227 447.615 731.216 447.757 731.193C447.899 731.165 448.013 731.142 448.098 731.125L448.507 732.932C448.371 732.983 448.18 733.034 447.936 733.085C447.692 733.142 447.382 733.17 447.007 733.17C446.439 733.17 445.882 733.048 445.337 732.804C444.797 732.56 444.348 732.188 443.99 731.688C443.638 731.188 443.462 730.557 443.462 729.795V716.773ZM456.642 733.273C455.381 733.273 454.293 732.994 453.378 732.438C452.469 731.875 451.767 731.091 451.273 730.085C450.784 729.074 450.54 727.898 450.54 726.557C450.54 725.216 450.784 724.034 451.273 723.011C451.767 721.983 452.455 721.182 453.335 720.608C454.222 720.028 455.256 719.739 456.438 719.739C457.119 719.739 457.793 719.852 458.457 720.08C459.122 720.307 459.727 720.676 460.273 721.188C460.818 721.693 461.253 722.364 461.577 723.199C461.901 724.034 462.062 725.062 462.062 726.284V727.136H451.972V725.398H460.017C460.017 724.659 459.869 724 459.574 723.42C459.284 722.841 458.869 722.384 458.33 722.048C457.795 721.713 457.165 721.545 456.438 721.545C455.636 721.545 454.943 721.744 454.358 722.142C453.778 722.534 453.332 723.045 453.02 723.676C452.707 724.307 452.551 724.983 452.551 725.705V726.864C452.551 727.852 452.722 728.69 453.062 729.378C453.409 730.06 453.889 730.58 454.503 730.938C455.116 731.29 455.83 731.466 456.642 731.466C457.17 731.466 457.648 731.392 458.074 731.244C458.506 731.091 458.878 730.864 459.19 730.562C459.503 730.256 459.744 729.875 459.915 729.42L461.858 729.966C461.653 730.625 461.31 731.205 460.827 731.705C460.344 732.199 459.747 732.585 459.037 732.864C458.327 733.136 457.528 733.273 456.642 733.273Z" fill="white"/>
<rect x="343" y="839" width="140" height="42" rx="11" fill="#32C76E"/>
<path d="M363.114 848.545H365.636L371.568 863.034H371.773L377.705 848.545H380.227V866H378.25V852.739H378.08L372.625 866H370.716L365.261 852.739H365.091V866H363.114V848.545ZM388.045 866.307C387.215 866.307 386.462 866.151 385.786 865.838C385.11 865.52 384.573 865.062 384.175 864.466C383.778 863.864 383.579 863.136 383.579 862.284C383.579 861.534 383.727 860.926 384.022 860.46C384.317 859.989 384.712 859.619 385.207 859.352C385.701 859.085 386.246 858.886 386.843 858.756C387.445 858.619 388.05 858.511 388.658 858.432C389.454 858.33 390.099 858.253 390.593 858.202C391.093 858.145 391.457 858.051 391.684 857.92C391.917 857.79 392.033 857.562 392.033 857.239V857.17C392.033 856.33 391.803 855.676 391.343 855.21C390.888 854.744 390.198 854.511 389.272 854.511C388.312 854.511 387.559 854.722 387.013 855.142C386.468 855.562 386.085 856.011 385.863 856.489L383.954 855.807C384.295 855.011 384.749 854.392 385.317 853.949C385.891 853.5 386.516 853.187 387.192 853.011C387.874 852.83 388.545 852.739 389.204 852.739C389.624 852.739 390.107 852.79 390.653 852.892C391.204 852.989 391.735 853.19 392.246 853.497C392.763 853.804 393.192 854.267 393.533 854.886C393.874 855.506 394.045 856.335 394.045 857.375V866H392.033V864.227H391.931C391.795 864.511 391.567 864.815 391.249 865.139C390.931 865.463 390.508 865.739 389.979 865.966C389.451 866.193 388.806 866.307 388.045 866.307ZM388.352 864.5C389.147 864.5 389.817 864.344 390.363 864.031C390.914 863.719 391.329 863.315 391.607 862.821C391.891 862.327 392.033 861.807 392.033 861.261V859.42C391.948 859.523 391.761 859.616 391.471 859.702C391.187 859.781 390.857 859.852 390.482 859.915C390.113 859.972 389.752 860.023 389.4 860.068C389.053 860.108 388.772 860.142 388.556 860.17C388.033 860.239 387.545 860.349 387.09 860.503C386.641 860.651 386.278 860.875 385.999 861.176C385.727 861.472 385.59 861.875 385.59 862.386C385.59 863.085 385.849 863.614 386.366 863.972C386.888 864.324 387.55 864.5 388.352 864.5ZM397.716 866V852.909H399.659V854.886H399.795C400.034 854.239 400.466 853.713 401.091 853.31C401.716 852.906 402.42 852.705 403.205 852.705C403.352 852.705 403.537 852.707 403.759 852.713C403.98 852.719 404.148 852.727 404.261 852.739V854.784C404.193 854.767 404.037 854.741 403.793 854.707C403.554 854.668 403.301 854.648 403.034 854.648C402.398 854.648 401.83 854.781 401.33 855.048C400.835 855.31 400.443 855.673 400.153 856.139C399.869 856.599 399.727 857.125 399.727 857.716V866H397.716ZM415.918 855.841L414.112 856.352C413.998 856.051 413.83 855.759 413.609 855.474C413.393 855.185 413.097 854.946 412.722 854.759C412.347 854.571 411.867 854.477 411.282 854.477C410.481 854.477 409.813 854.662 409.279 855.031C408.751 855.395 408.487 855.858 408.487 856.42C408.487 856.92 408.668 857.315 409.032 857.605C409.396 857.895 409.964 858.136 410.737 858.33L412.68 858.807C413.85 859.091 414.722 859.526 415.296 860.111C415.87 860.69 416.157 861.437 416.157 862.352C416.157 863.102 415.941 863.773 415.509 864.364C415.083 864.955 414.487 865.42 413.719 865.761C412.952 866.102 412.06 866.273 411.043 866.273C409.708 866.273 408.603 865.983 407.728 865.403C406.853 864.824 406.299 863.977 406.066 862.864L407.975 862.386C408.157 863.091 408.501 863.619 409.006 863.972C409.518 864.324 410.185 864.5 411.009 864.5C411.947 864.5 412.691 864.301 413.242 863.903C413.799 863.5 414.077 863.017 414.077 862.455C414.077 862 413.918 861.619 413.6 861.312C413.282 861 412.793 860.767 412.134 860.614L409.952 860.102C408.754 859.818 407.873 859.378 407.31 858.781C406.754 858.179 406.475 857.426 406.475 856.523C406.475 855.784 406.683 855.131 407.097 854.562C407.518 853.994 408.089 853.548 408.81 853.224C409.538 852.901 410.362 852.739 411.282 852.739C412.577 852.739 413.594 853.023 414.333 853.591C415.077 854.159 415.606 854.909 415.918 855.841ZM424.503 866.273C423.321 866.273 422.284 865.991 421.392 865.429C420.506 864.866 419.812 864.08 419.312 863.068C418.818 862.057 418.571 860.875 418.571 859.523C418.571 858.159 418.818 856.969 419.312 855.952C419.812 854.935 420.506 854.145 421.392 853.582C422.284 853.02 423.321 852.739 424.503 852.739C425.685 852.739 426.719 853.02 427.605 853.582C428.497 854.145 429.19 854.935 429.685 855.952C430.185 856.969 430.435 858.159 430.435 859.523C430.435 860.875 430.185 862.057 429.685 863.068C429.19 864.08 428.497 864.866 427.605 865.429C426.719 865.991 425.685 866.273 424.503 866.273ZM424.503 864.466C425.401 864.466 426.139 864.236 426.719 863.776C427.298 863.315 427.727 862.71 428.006 861.96C428.284 861.21 428.423 860.398 428.423 859.523C428.423 858.648 428.284 857.832 428.006 857.077C427.727 856.321 427.298 855.71 426.719 855.244C426.139 854.778 425.401 854.545 424.503 854.545C423.605 854.545 422.866 854.778 422.287 855.244C421.707 855.71 421.278 856.321 421 857.077C420.722 857.832 420.582 858.648 420.582 859.523C420.582 860.398 420.722 861.21 421 861.96C421.278 862.71 421.707 863.315 422.287 863.776C422.866 864.236 423.605 864.466 424.503 864.466ZM441.755 860.648V852.909H443.766V866H441.755V863.784H441.619C441.312 864.449 440.835 865.014 440.187 865.48C439.539 865.94 438.721 866.17 437.732 866.17C436.914 866.17 436.187 865.991 435.55 865.634C434.914 865.27 434.414 864.724 434.05 863.997C433.687 863.264 433.505 862.341 433.505 861.227V852.909H435.516V861.091C435.516 862.045 435.783 862.807 436.317 863.375C436.857 863.943 437.545 864.227 438.38 864.227C438.88 864.227 439.388 864.099 439.906 863.844C440.428 863.588 440.866 863.196 441.218 862.668C441.576 862.139 441.755 861.466 441.755 860.648ZM447.45 866V852.909H449.462V866H447.45ZM448.473 850.727C448.081 850.727 447.743 850.594 447.459 850.327C447.18 850.06 447.041 849.739 447.041 849.364C447.041 848.989 447.18 848.668 447.459 848.401C447.743 848.134 448.081 848 448.473 848C448.865 848 449.2 848.134 449.479 848.401C449.763 848.668 449.905 848.989 449.905 849.364C449.905 849.739 449.763 850.06 449.479 850.327C449.2 850.594 448.865 850.727 448.473 850.727ZM455.157 858.125V866H453.146V852.909H455.089V854.955H455.259C455.566 854.29 456.032 853.756 456.657 853.352C457.282 852.943 458.089 852.739 459.077 852.739C459.964 852.739 460.739 852.92 461.404 853.284C462.069 853.642 462.586 854.188 462.955 854.92C463.325 855.648 463.509 856.568 463.509 857.682V866H461.498V857.818C461.498 856.79 461.231 855.989 460.697 855.415C460.163 854.835 459.43 854.545 458.498 854.545C457.856 854.545 457.282 854.685 456.776 854.963C456.276 855.241 455.881 855.648 455.592 856.182C455.302 856.716 455.157 857.364 455.157 858.125Z" fill="white"/>
<rect x="343" y="839" width="140" height="42" rx="11" fill="#32C76E"/>
<path d="M386.504 866V848.545H388.618V864.125H396.732V866H386.504ZM399.386 870.909C399.045 870.909 398.741 870.881 398.474 870.824C398.207 870.773 398.023 870.722 397.92 870.67L398.432 868.898C398.92 869.023 399.352 869.068 399.727 869.034C400.102 869 400.435 868.832 400.724 868.531C401.02 868.236 401.29 867.756 401.534 867.091L401.909 866.068L397.068 852.909H399.25L402.864 863.341H403L406.614 852.909H408.795L403.239 867.909C402.989 868.585 402.679 869.145 402.31 869.588C401.94 870.037 401.511 870.369 401.023 870.585C400.54 870.801 399.994 870.909 399.386 870.909ZM413.462 858.125V866H411.45V852.909H413.393V854.955H413.564C413.871 854.29 414.337 853.756 414.962 853.352C415.587 852.943 416.393 852.739 417.382 852.739C418.268 852.739 419.044 852.92 419.709 853.284C420.374 853.642 420.891 854.188 421.26 854.92C421.629 855.648 421.814 856.568 421.814 857.682V866H419.803V857.818C419.803 856.79 419.536 855.989 419.001 855.415C418.467 854.835 417.734 854.545 416.803 854.545C416.161 854.545 415.587 854.685 415.081 854.963C414.581 855.241 414.186 855.648 413.896 856.182C413.607 856.716 413.462 857.364 413.462 858.125ZM426.989 852.909L430.126 858.261L433.262 852.909H435.58L431.353 859.455L435.58 866H433.262L430.126 860.92L426.989 866H424.671L428.83 859.455L424.671 852.909H426.989Z" fill="white"/>
<rect x="530.5" y="165.5" width="746" height="308" rx="25.5" stroke="#C4C4C4" stroke-width="7"/>
<rect x="637" y="187" width="178" height="25" rx="12" fill="#F0B7B7"/>
<path d="M579.97 221.336C578.818 221.336 578.066 220.792 577.714 219.704L574.258 209.72L564.466 211.88L561.346 219.752C561.154 220.2 560.866 220.568 560.482 220.856C560.13 221.144 559.682 221.288 559.138 221.288C558.498 221.288 557.938 221.064 557.458 220.616C556.978 220.168 556.738 219.64 556.738 219.032C556.738 218.616 556.85 218.136 557.074 217.592L558.994 212.792C558.802 212.728 558.658 212.664 558.562 212.6C557.73 212.184 557.314 211.48 557.314 210.488C557.314 209.912 557.474 209.416 557.794 209C558.146 208.584 558.594 208.312 559.138 208.184L560.914 207.8L568.018 189.752C568.21 189.272 568.514 188.904 568.93 188.648C569.346 188.392 569.794 188.264 570.274 188.264C570.786 188.264 571.234 188.392 571.618 188.648C572.002 188.904 572.29 189.304 572.482 189.848L582.034 217.544C582.066 217.608 582.13 217.8 582.226 218.12C582.322 218.408 582.37 218.712 582.37 219.032C582.37 219.64 582.146 220.184 581.698 220.664C581.25 221.112 580.674 221.336 579.97 221.336ZM572.674 205.256L570.082 197.528L566.482 206.6L572.674 205.256Z" fill="#FF0809"/>
<rect x="640.5" y="182.5" width="583" height="34" rx="7.5" stroke="#C4C4C4" stroke-width="9"/>
<rect x="637" y="264" width="126" height="25" rx="12" fill="#F0B7B7"/>
<path d="M560.712 298.384C559.688 298.384 558.968 298.176 558.552 297.76C558.136 297.344 557.928 296.672 557.928 295.744V268.192C557.928 267.552 558.168 267.008 558.648 266.56C559.128 266.08 559.672 265.84 560.28 265.84H568.44C570.744 265.84 572.712 266.24 574.344 267.04C576.008 267.808 577.256 268.848 578.088 270.16C578.92 271.44 579.336 272.832 579.336 274.336C579.336 276.736 578.6 278.736 577.128 280.336C578.76 281.104 579.976 282.128 580.776 283.408C581.576 284.656 581.976 286.208 581.976 288.064C581.976 291.392 580.2 293.952 576.648 295.744C573.096 297.504 567.784 298.384 560.712 298.384ZM570.072 278.848C571.384 278.848 572.456 278.4 573.288 277.504C574.152 276.576 574.584 275.536 574.584 274.384C574.584 273.264 574.04 272.336 572.952 271.6C571.896 270.832 570.392 270.448 568.44 270.448H562.728V278.848H570.072ZM562.728 293.824C566.984 293.76 570.456 293.248 573.144 292.288C575.864 291.328 577.224 289.92 577.224 288.064C577.224 286.688 576.6 285.584 575.352 284.752C574.104 283.888 572.344 283.456 570.072 283.456H562.728V293.824Z" fill="#FF0809"/>
<rect x="640.5" y="259.5" width="583" height="34" rx="7.5" stroke="#C4C4C4" stroke-width="9"/>
<rect x="637" y="337" width="250" height="25" rx="12" fill="#BFF0B7"/>
<path d="M571.022 371.288C568.462 371.288 566.11 370.712 563.966 369.56C561.822 368.408 560.126 366.744 558.878 364.568C557.63 362.36 557.006 359.784 557.006 356.84C557.006 353.736 557.726 350.776 559.166 347.96C560.638 345.112 562.526 342.84 564.83 341.144C567.166 339.416 569.55 338.552 571.982 338.552C573.006 338.552 574.014 338.712 575.006 339.032C576.03 339.352 576.942 339.752 577.742 340.232C578.126 339.848 578.606 339.656 579.182 339.656C579.822 339.656 580.35 339.88 580.766 340.328C581.182 340.744 581.39 341.256 581.39 341.864V344.936C581.39 345.576 581.15 346.136 580.67 346.616C580.222 347.096 579.662 347.336 578.99 347.336C578.35 347.336 577.806 347.144 577.358 346.76C576.942 346.376 576.734 345.928 576.734 345.416V345.08C575.55 343.832 573.854 343.208 571.646 343.208C570.046 343.208 568.478 343.864 566.942 345.176C565.406 346.456 564.158 348.152 563.198 350.264C562.27 352.376 561.806 354.568 561.806 356.84C561.806 358.856 562.222 360.616 563.054 362.12C563.886 363.592 564.99 364.728 566.366 365.528C567.774 366.296 569.326 366.68 571.022 366.68C574.126 366.68 576.686 365.352 578.702 362.696C578.99 362.344 579.278 362.104 579.566 361.976C579.854 361.816 580.19 361.736 580.574 361.736C581.246 361.736 581.806 361.96 582.254 362.408C582.734 362.824 582.974 363.4 582.974 364.136C582.974 364.68 582.83 365.16 582.542 365.576C581.23 367.432 579.566 368.856 577.55 369.848C575.566 370.808 573.39 371.288 571.022 371.288Z" fill="#00CC45"/>
<rect x="640.5" y="332.5" width="583" height="34" rx="7.5" stroke="#C4C4C4" stroke-width="9"/>
<rect x="637" y="410" width="160" height="25" rx="12" fill="#F0B7B7"/>
<path d="M565.231 444.576C564.111 444.576 562.975 444.464 561.823 444.24C560.671 444.048 559.887 443.888 559.471 443.76C558.959 443.6 558.527 443.296 558.175 442.848C557.823 442.4 557.647 441.92 557.647 441.408V414.192C557.647 413.52 557.871 412.96 558.319 412.512C558.799 412.064 559.375 411.84 560.047 411.84C563.279 411.84 566.543 412.32 569.839 413.28C573.135 414.24 575.983 416.032 578.383 418.656C580.815 421.28 582.031 424.912 582.031 429.552C582.031 432.912 581.295 435.728 579.823 438C578.351 440.24 576.351 441.904 573.823 442.992C571.295 444.048 568.431 444.576 565.231 444.576ZM565.231 439.776C568.975 439.776 571.903 438.912 574.015 437.184C576.159 435.456 577.231 432.912 577.231 429.552C577.231 425.392 575.871 422.304 573.151 420.288C570.463 418.272 566.895 417.088 562.447 416.736V439.488C563.535 439.68 564.463 439.776 565.231 439.776Z" fill="#FF0809"/>
<rect x="640.5" y="405.5" width="583" height="34" rx="7.5" stroke="#C4C4C4" stroke-width="9"/>
<rect y="907" width="299" height="117" fill="#C4C4C4"/>
<path d="M53.0455 948.909V978H49.5227V948.909H53.0455ZM63.0064 964.875V978H59.6541V956.182H62.8928V959.591H63.1768C63.6882 958.483 64.4647 957.593 65.5064 956.92C66.5481 956.239 67.8928 955.898 69.5405 955.898C71.0178 955.898 72.3104 956.201 73.4183 956.807C74.5263 957.403 75.388 958.312 76.0036 959.534C76.6191 960.746 76.9268 962.28 76.9268 964.136V978H73.5746V964.364C73.5746 962.65 73.1295 961.314 72.2393 960.358C71.3492 959.392 70.1276 958.909 68.5746 958.909C67.5045 958.909 66.5481 959.141 65.7053 959.605C64.8719 960.069 64.2138 960.746 63.7308 961.636C63.2479 962.527 63.0064 963.606 63.0064 964.875ZM100.112 956.182L92.044 978H88.6349L80.5668 956.182H84.2031L90.2259 973.568H90.4531L96.4759 956.182H100.112ZM112.903 978.455C110.801 978.455 108.988 977.991 107.463 977.062C105.948 976.125 104.778 974.818 103.955 973.142C103.14 971.456 102.733 969.496 102.733 967.261C102.733 965.027 103.14 963.057 103.955 961.352C104.778 959.638 105.924 958.303 107.392 957.347C108.869 956.381 110.593 955.898 112.562 955.898C113.699 955.898 114.821 956.087 115.929 956.466C117.037 956.845 118.045 957.46 118.955 958.312C119.864 959.155 120.588 960.273 121.128 961.665C121.668 963.057 121.938 964.771 121.938 966.807V968.227H105.119V965.33H118.528C118.528 964.098 118.282 963 117.79 962.034C117.307 961.068 116.616 960.306 115.716 959.747C114.826 959.188 113.775 958.909 112.562 958.909C111.227 958.909 110.072 959.241 109.097 959.903C108.131 960.557 107.387 961.409 106.866 962.46C106.346 963.511 106.085 964.638 106.085 965.841V967.773C106.085 969.42 106.369 970.817 106.938 971.963C107.515 973.099 108.315 973.966 109.338 974.562C110.361 975.15 111.549 975.443 112.903 975.443C113.784 975.443 114.58 975.32 115.29 975.074C116.009 974.818 116.63 974.439 117.151 973.938C117.671 973.426 118.074 972.792 118.358 972.034L121.597 972.943C121.256 974.042 120.683 975.008 119.878 975.841C119.073 976.665 118.079 977.309 116.895 977.773C115.711 978.227 114.381 978.455 112.903 978.455ZM130.389 964.875V978H127.037V956.182H130.276V959.591H130.56C131.071 958.483 131.848 957.593 132.889 956.92C133.931 956.239 135.276 955.898 136.923 955.898C138.401 955.898 139.693 956.201 140.801 956.807C141.909 957.403 142.771 958.312 143.386 959.534C144.002 960.746 144.31 962.28 144.31 964.136V978H140.957V964.364C140.957 962.65 140.512 961.314 139.622 960.358C138.732 959.392 137.51 958.909 135.957 958.909C134.887 958.909 133.931 959.141 133.088 959.605C132.255 960.069 131.597 960.746 131.114 961.636C130.631 962.527 130.389 963.606 130.389 964.875ZM159.924 956.182V959.023H148.617V956.182H159.924ZM151.913 950.955H155.265V971.75C155.265 972.697 155.402 973.407 155.677 973.881C155.961 974.345 156.321 974.657 156.756 974.818C157.201 974.97 157.67 975.045 158.163 975.045C158.532 975.045 158.835 975.027 159.072 974.989C159.308 974.941 159.498 974.903 159.64 974.875L160.322 977.886C160.094 977.972 159.777 978.057 159.37 978.142C158.963 978.237 158.447 978.284 157.822 978.284C156.875 978.284 155.947 978.08 155.038 977.673C154.138 977.266 153.39 976.646 152.793 975.812C152.206 974.979 151.913 973.928 151.913 972.659V950.955ZM171.387 978.511C170.004 978.511 168.75 978.251 167.623 977.73C166.496 977.2 165.601 976.438 164.938 975.443C164.275 974.439 163.944 973.227 163.944 971.807C163.944 970.557 164.19 969.544 164.683 968.767C165.175 967.981 165.833 967.366 166.657 966.92C167.481 966.475 168.39 966.144 169.384 965.926C170.388 965.699 171.397 965.519 172.41 965.386C173.736 965.216 174.81 965.088 175.634 965.003C176.468 964.908 177.074 964.752 177.452 964.534C177.841 964.316 178.035 963.937 178.035 963.398V963.284C178.035 961.883 177.651 960.794 176.884 960.017C176.127 959.241 174.976 958.852 173.433 958.852C171.832 958.852 170.577 959.203 169.668 959.903C168.759 960.604 168.12 961.352 167.751 962.148L164.569 961.011C165.137 959.686 165.895 958.653 166.842 957.915C167.798 957.167 168.84 956.646 169.967 956.352C171.103 956.049 172.22 955.898 173.319 955.898C174.02 955.898 174.825 955.983 175.734 956.153C176.652 956.314 177.538 956.651 178.39 957.162C179.252 957.673 179.967 958.445 180.535 959.477C181.103 960.509 181.387 961.892 181.387 963.625V978H178.035V975.045H177.864C177.637 975.519 177.258 976.026 176.728 976.565C176.198 977.105 175.492 977.564 174.612 977.943C173.731 978.322 172.656 978.511 171.387 978.511ZM171.898 975.5C173.224 975.5 174.342 975.24 175.251 974.719C176.169 974.198 176.861 973.526 177.325 972.702C177.798 971.878 178.035 971.011 178.035 970.102V967.034C177.893 967.205 177.58 967.361 177.097 967.503C176.624 967.635 176.075 967.754 175.45 967.858C174.834 967.953 174.233 968.038 173.646 968.114C173.068 968.18 172.599 968.237 172.239 968.284C171.368 968.398 170.554 968.582 169.796 968.838C169.048 969.084 168.442 969.458 167.978 969.96C167.523 970.453 167.296 971.125 167.296 971.977C167.296 973.142 167.727 974.023 168.589 974.619C169.46 975.206 170.563 975.5 171.898 975.5ZM187.506 978V956.182H190.858V978H187.506ZM189.21 952.545C188.557 952.545 187.993 952.323 187.52 951.878C187.056 951.433 186.824 950.898 186.824 950.273C186.824 949.648 187.056 949.113 187.52 948.668C187.993 948.223 188.557 948 189.21 948C189.864 948 190.422 948.223 190.886 948.668C191.36 949.113 191.597 949.648 191.597 950.273C191.597 950.898 191.36 951.433 190.886 951.878C190.422 952.323 189.864 952.545 189.21 952.545ZM196.998 978V956.182H200.237V959.477H200.464C200.862 958.398 201.581 957.522 202.623 956.849C203.665 956.177 204.839 955.841 206.146 955.841C206.392 955.841 206.7 955.846 207.069 955.855C207.438 955.865 207.718 955.879 207.907 955.898V959.307C207.793 959.278 207.533 959.236 207.126 959.179C206.728 959.113 206.307 959.08 205.862 959.08C204.801 959.08 203.854 959.302 203.021 959.747C202.197 960.183 201.543 960.789 201.06 961.565C200.587 962.332 200.35 963.208 200.35 964.193V978H196.998ZM220.364 978.455C218.262 978.455 216.449 977.991 214.924 977.062C213.409 976.125 212.239 974.818 211.415 973.142C210.601 971.456 210.194 969.496 210.194 967.261C210.194 965.027 210.601 963.057 211.415 961.352C212.239 959.638 213.385 958.303 214.853 957.347C216.33 956.381 218.054 955.898 220.023 955.898C221.16 955.898 222.282 956.087 223.39 956.466C224.498 956.845 225.506 957.46 226.415 958.312C227.325 959.155 228.049 960.273 228.589 961.665C229.129 963.057 229.398 964.771 229.398 966.807V968.227H212.58V965.33H225.989C225.989 964.098 225.743 963 225.251 962.034C224.768 961.068 224.076 960.306 223.177 959.747C222.287 959.188 221.236 958.909 220.023 958.909C218.688 958.909 217.533 959.241 216.558 959.903C215.592 960.557 214.848 961.409 214.327 962.46C213.807 963.511 213.546 964.638 213.546 965.841V967.773C213.546 969.42 213.83 970.817 214.398 971.963C214.976 973.099 215.776 973.966 216.799 974.562C217.822 975.15 219.01 975.443 220.364 975.443C221.245 975.443 222.04 975.32 222.751 975.074C223.47 974.818 224.091 974.439 224.612 973.938C225.132 973.426 225.535 972.792 225.819 972.034L229.058 972.943C228.717 974.042 228.144 975.008 227.339 975.841C226.534 976.665 225.54 977.309 224.356 977.773C223.172 978.227 221.842 978.455 220.364 978.455Z" fill="black"/>
</g>
<defs>
<clipPath id="clip0_2_7">
<rect width="1440" height="1024" fill="white"/>
</clipPath>
</defs>
</svg>
