<?xml version="1.0" encoding="UTF-8" standalone="no"?><svg xmlns="http://www.w3.org/2000/svg" xmlns:xlink="http://www.w3.org/1999/xlink" contentScriptType="application/ecmascript" contentStyleType="text/css" height="510px" preserveAspectRatio="none" style="width:402px;height:510px;background:#FFFFFF;" version="1.1" viewBox="0 0 402 510" width="402px" zoomAndPan="magnify"><defs><filter height="300%" id="f9tp7fits7cza" width="300%" x="-1" y="-1"><feGaussianBlur result="blurOut" stdDeviation="2.0"/><feColorMatrix in="blurOut" result="blurOut2" type="matrix" values="0 0 0 0 0 0 0 0 0 0 0 0 0 0 0 0 0 0 .4 0"/><feOffset dx="4.0" dy="4.0" in="blurOut2" result="blurOut3"/><feBlend in="SourceGraphic" in2="blurOut3" mode="normal"/></filter></defs><g><text fill="#000000" font-family="sans-serif" font-size="18" lengthAdjust="spacing" textLength="332" x="28.5" y="16.708">Dev-Web-2022 Architecture Diagram</text><!--MD5=[979da56a7f83e2393dc758167ae295d0]
cluster Server--><polygon fill="#FFFFFF" filter="url(#f9tp7fits7cza)" points="16,298.2521,26,288.2521,385,288.2521,385,493.2521,375,503.2521,16,503.2521,16,298.2521" style="stroke:#000000;stroke-width:1.5;"/><line style="stroke:#000000;stroke-width:1.5;" x1="375" x2="385" y1="298.2521" y2="288.2521"/><line style="stroke:#000000;stroke-width:1.5;" x1="16" x2="375" y1="298.2521" y2="298.2521"/><line style="stroke:#000000;stroke-width:1.5;" x1="375" x2="375" y1="298.2521" y2="503.2521"/><text fill="#000000" font-family="sans-serif" font-size="14" font-weight="bold" lengthAdjust="spacing" textLength="53" x="170" y="314.2472">Server</text><!--MD5=[aa2f05b2676d7d34ffa7e771fb7634f3]
cluster client--><polygon fill="#FFFFFF" filter="url(#f9tp7fits7cza)" points="66,147.2521,76,137.2521,335,137.2521,335,229.2521,325,239.2521,66,239.2521,66,147.2521" style="stroke:#000000;stroke-width:1.5;"/><line style="stroke:#000000;stroke-width:1.5;" x1="325" x2="335" y1="147.2521" y2="137.2521"/><line style="stroke:#000000;stroke-width:1.5;" x1="66" x2="325" y1="147.2521" y2="147.2521"/><line style="stroke:#000000;stroke-width:1.5;" x1="325" x2="325" y1="147.2521" y2="239.2521"/><text fill="#000000" font-family="sans-serif" font-size="14" font-weight="bold" lengthAdjust="spacing" textLength="47" x="173" y="163.2472">Client</text><!--MD5=[919189777b3f5bf61b4ba1d663898d51]
entity static--><rect fill="#FEFECE" filter="url(#f9tp7fits7cza)" height="32.2969" style="stroke:#A80036;stroke-width:1.5;" width="92" x="234" y="455.2521"/><rect fill="#FEFECE" height="32.2969" style="stroke:#A80036;stroke-width:1.5;" width="92" x="230" y="451.2521"/><text fill="#000000" font-family="sans-serif" font-size="14" lengthAdjust="spacing" textLength="76" x="238" y="472.2472">Static Files</text><!--MD5=[2b431765b699368ca0c0739a76653bcc]
entity server_sock--><rect fill="#FEFECE" filter="url(#f9tp7fits7cza)" height="46.2969" style="stroke:#A80036;stroke-width:1.5;" width="120" x="32" y="328.2521"/><rect fill="#FEFECE" height="10" style="stroke:#A80036;stroke-width:1.5;" width="15" x="132" y="333.2521"/><rect fill="#FEFECE" height="2" style="stroke:#A80036;stroke-width:1.5;" width="4" x="130" y="335.2521"/><rect fill="#FEFECE" height="2" style="stroke:#A80036;stroke-width:1.5;" width="4" x="130" y="339.2521"/><text fill="#000000" font-family="sans-serif" font-size="14" lengthAdjust="spacing" textLength="80" x="47" y="361.2472">WebSocket</text><!--MD5=[6d151e53a42aadf92577082572a20d90]
entity express--><rect fill="#FEFECE" filter="url(#f9tp7fits7cza)" height="46.2969" style="stroke:#A80036;stroke-width:1.5;" width="182" x="187" y="328.2521"/><rect fill="#FEFECE" height="10" style="stroke:#A80036;stroke-width:1.5;" width="15" x="349" y="333.2521"/><rect fill="#FEFECE" height="2" style="stroke:#A80036;stroke-width:1.5;" width="4" x="347" y="335.2521"/><rect fill="#FEFECE" height="2" style="stroke:#A80036;stroke-width:1.5;" width="4" x="347" y="339.2521"/><text fill="#000000" font-family="sans-serif" font-size="14" lengthAdjust="spacing" textLength="142" x="202" y="361.2472">Express Web Server</text><!--MD5=[cb3d66c929489a99ecf6c8633ae21583]
entity react--><rect fill="#FEFECE" filter="url(#f9tp7fits7cza)" height="46.2969" style="stroke:#A80036;stroke-width:1.5;" width="81" x="237.5" y="177.2521"/><rect fill="#FEFECE" height="10" style="stroke:#A80036;stroke-width:1.5;" width="15" x="298.5" y="182.2521"/><rect fill="#FEFECE" height="2" style="stroke:#A80036;stroke-width:1.5;" width="4" x="296.5" y="184.2521"/><rect fill="#FEFECE" height="2" style="stroke:#A80036;stroke-width:1.5;" width="4" x="296.5" y="188.2521"/><text fill="#000000" font-family="sans-serif" font-size="14" lengthAdjust="spacing" textLength="41" x="252.5" y="210.2472">React</text><!--MD5=[5a4472c71bcc832f6383708bfe9fe632]
entity client_sock--><rect fill="#FEFECE" filter="url(#f9tp7fits7cza)" height="46.2969" style="stroke:#A80036;stroke-width:1.5;" width="120" x="82" y="177.2521"/><rect fill="#FEFECE" height="10" style="stroke:#A80036;stroke-width:1.5;" width="15" x="182" y="182.2521"/><rect fill="#FEFECE" height="2" style="stroke:#A80036;stroke-width:1.5;" width="4" x="180" y="184.2521"/><rect fill="#FEFECE" height="2" style="stroke:#A80036;stroke-width:1.5;" width="4" x="180" y="188.2521"/><text fill="#000000" font-family="sans-serif" font-size="14" lengthAdjust="spacing" textLength="80" x="97" y="210.2472">WebSocket</text><!--MD5=[0add4c58fbd269291201b05c75643de3]
entity www--><path d="M212.1832,36.9844 C215.8534,31.795 219.2912,30.2655 224.008,35.8339 C227.7546,30.4488 232.6424,30.68 235.306,36.8892 C238.5181,30.579 242.2641,31.1892 246.6402,35.6662 C249.2428,30.3212 254.6563,30.3515 257.8661,34.9829 C260.0913,30.3225 263.708,30.1484 267.1476,33.5921 C271.2109,26.9531 277.0286,27.2707 280.024,34.5781 C283.0781,30.379 287.3421,29.0781 290.4487,34.5214 C293.8954,28.5223 298.2847,28.5271 301.702,34.5489 C305.4133,30.0031 310.4791,30.0218 312.4301,36.2945 C315.8837,31.2375 319.2397,31.3006 323.3329,35.5448 C326.6239,30.5582 331.7624,29.913 334.435,36.156 C337.6832,31.4346 341.8202,31.2957 344.9585,36.2752 C354.8823,41.0276 354.1378,46.7197 346.7971,53.3331 C352.8311,57.852 351.5452,64.3106 344.8168,66.9772 C341.9361,72.3763 337.9713,72.929 333.7976,68.4145 C330.941,73.8354 326.8524,75.2568 322.2844,70.3162 C319.0202,75.2511 315.6105,75.826 311.3315,71.5188 C309.2514,76.8477 305.012,77.6525 301.1547,73.4081 C298.5661,79.389 294.2698,80.3525 289.9167,75.1871 C286.2237,80.5845 282.887,79.9258 279.4296,74.949 C275.6343,79.9463 271.3884,81.3771 267.6473,74.8934 C263.7948,79.2713 259.0671,79.4245 256.8434,73.2291 C252.688,78.7522 247.7289,77.4786 245.5812,71.2973 C241.1812,76.3133 237.6514,74.5694 234.728,69.6794 C231.9279,75.7218 226.6398,75.056 223.7334,69.7826 C218.9272,73.9793 215.0059,72.3599 212.8836,66.7984 C205.4118,63.0357 203.5848,58.0774 210.816,52.2282 C203.1726,46.5027 205.2746,41.4046 212.1832,36.9844 " fill="#FEFECE" filter="url(#f9tp7fits7cza)" style="stroke:#000000;stroke-width:1.5;"/><text fill="#000000" font-family="sans-serif" font-size="14" lengthAdjust="spacing" textLength="118" x="219" y="56.2472">World Wide Web</text><!--MD5=[7903db70c08de23ab22879fda5691d61]
link express to static--><path d="M278,374.3421 C278,394.9521 278,425.5221 278,446.1321 " fill="none" id="express-to-static" style="stroke:#000000;stroke-width:2.0;stroke-dasharray:1.0,3.0;"/><polygon fill="#000000" points="278,451.1421,282,442.1421,278,446.1421,274,442.1421,278,451.1421" style="stroke:#000000;stroke-width:2.0;"/><text fill="#000000" font-family="sans-serif" font-size="13" lengthAdjust="spacing" textLength="43" x="279" y="417.319">serves</text><!--MD5=[57bb8877a7ada91d383e3f83addf6301]
link www to react--><path d="M278,79.3221 C278,105.6921 278,145.5621 278,171.9921 " fill="none" id="www-react" style="stroke:#0000FF;stroke-width:2.0;stroke-dasharray:7.0,7.0;"/><polygon fill="#0000FF" points="278,177.0921,282,168.0921,278,172.0921,274,168.0921,278,177.0921" style="stroke:#0000FF;stroke-width:2.0;"/><polygon fill="#0000FF" points="278,74.2621,274,83.2621,278,79.2621,282,83.2621,278,74.2621" style="stroke:#0000FF;stroke-width:2.0;"/><text fill="#000000" font-family="sans-serif" font-size="13" lengthAdjust="spacing" textLength="48" x="279" y="117.319">medias</text><!--MD5=[32ac68bf67424d7bb144c99a53b5a68c]
link react to express--><path d="M278,228.6921 C278,255.4221 278,295.8321 278,322.6221 " fill="none" id="react-express" style="stroke:#0000FF;stroke-width:2.0;stroke-dasharray:7.0,7.0;"/><polygon fill="#0000FF" points="278,327.7921,282,318.7921,278,322.7921,274,318.7921,278,327.7921" style="stroke:#0000FF;stroke-width:2.0;"/><polygon fill="#0000FF" points="278,223.5621,274,232.5621,278,228.5621,282,232.5621,278,223.5621" style="stroke:#0000FF;stroke-width:2.0;"/><text fill="#000000" font-family="sans-serif" font-size="13" lengthAdjust="spacing" textLength="63" x="279" y="268.319">resources</text><!--MD5=[86e0de3786995adc2b9778ba7bed8bcd]
link client_sock to server_sock--><path d="M105.14,223.3321 C94.35,231.8421 83.88,242.5921 78,255.2521 C68.03,276.7121 73.42,303.5921 80.2,323.2721 " fill="none" id="client_sock-to-server_sock" style="stroke:#008000;stroke-width:2.0;stroke-dasharray:7.0,7.0;"/><polygon fill="#008000" points="81.95,328.1121,82.6767,318.2901,80.262,323.4056,75.1464,320.9909,81.95,328.1121" style="stroke:#008000;stroke-width:2.0;"/><text fill="#000000" font-family="sans-serif" font-size="13" lengthAdjust="spacing" textLength="31" x="79" y="268.319">send</text><!--MD5=[84af2aa5ac47c0c675cd7264ede3c1eb]
reverse link client_sock to server_sock--><path d="M132.91,228.3421 C123.35,256.8421 108.47,301.1721 99.54,327.7921 " fill="none" id="client_sock-backto-server_sock" style="stroke:#008000;stroke-width:2.0;stroke-dasharray:7.0,7.0;"/><polygon fill="#008000" points="134.51,223.5621,127.8626,230.8293,132.9246,228.3041,135.4498,233.366,134.51,223.5621" style="stroke:#008000;stroke-width:2.0;"/><text fill="#000000" font-family="sans-serif" font-size="13" lengthAdjust="spacing" textLength="64" x="124" y="268.319">broadcast</text><!--MD5=[27c1cad27d313862f981e1ef9d284de4]
@startuml
title Dev-Web-2022 Architecture Diagram

cloud "World Wide Web" as www

node Server {
    collections "Static Files" as static
    component WebSocket as server_sock
    component "Express Web Server" as express
    express -[#black,dotted,thickness=2]down-> static : serves
}

node Client as client {
    component React as react
    react <-[#blue,dashed,thickness=2]up-> www : medias
    component WebSocket as client_sock
}

react <-[#blue,dashed,thickness=2]down-> express : resources
client_sock -[#green,dashed,thickness=2]down-> server_sock : send
server_sock -[#green,dashed,thickness=2]up-> client_sock : broadcast

@enduml

PlantUML version 1.2022.1(Tue Feb 01 19:19:58 CET 2022)
(GPL source distribution)
Java Runtime: OpenJDK Runtime Environment
JVM: OpenJDK 64-Bit Server VM
Default Encoding: UTF-8
Language: en
Country: US
--></g></svg>