<svg width="1440" height="1024" viewBox="0 0 1440 1024" fill="none" xmlns="http://www.w3.org/2000/svg">
<rect width="1440" height="1024" fill="white"/>
<rect x="169" y="185" width="1102" height="583" fill="#C4C4C4"/>
<path d="M218.682 121V94.8182H222.705V121H218.682ZM220.727 90.4545C219.943 90.4545 219.267 90.1875 218.699 89.6534C218.142 89.1193 217.864 88.4773 217.864 87.7273C217.864 86.9773 218.142 86.3352 218.699 85.8011C219.267 85.267 219.943 85 220.727 85C221.511 85 222.182 85.267 222.739 85.8011C223.307 86.3352 223.591 86.9773 223.591 87.7273C223.591 88.4773 223.307 89.1193 222.739 89.6534C222.182 90.1875 221.511 90.4545 220.727 90.4545ZM234.095 105.25V121H230.072V94.8182H233.959V98.9091H234.3C234.913 97.5795 235.845 96.5114 237.095 95.7045C238.345 94.8864 239.959 94.4773 241.936 94.4773C243.709 94.4773 245.26 94.8409 246.589 95.5682C247.919 96.2841 248.953 97.375 249.692 98.8409C250.43 100.295 250.8 102.136 250.8 104.364V121H246.777V104.636C246.777 102.58 246.243 100.977 245.175 99.8295C244.107 98.6705 242.641 98.0909 240.777 98.0909C239.493 98.0909 238.345 98.3693 237.334 98.9261C236.334 99.483 235.544 100.295 234.964 101.364C234.385 102.432 234.095 103.727 234.095 105.25ZM269.537 94.8182V98.2273H255.969V94.8182H269.537ZM259.923 88.5455H263.946V113.5C263.946 114.636 264.111 115.489 264.44 116.057C264.781 116.614 265.213 116.989 265.736 117.182C266.27 117.364 266.832 117.455 267.423 117.455C267.866 117.455 268.23 117.432 268.514 117.386C268.798 117.33 269.026 117.284 269.196 117.25L270.014 120.864C269.741 120.966 269.361 121.068 268.872 121.17C268.384 121.284 267.764 121.341 267.014 121.341C265.878 121.341 264.764 121.097 263.673 120.608C262.594 120.119 261.696 119.375 260.98 118.375C260.276 117.375 259.923 116.114 259.923 114.591V88.5455ZM286.284 121.545C283.761 121.545 281.585 120.989 279.756 119.875C277.938 118.75 276.534 117.182 275.545 115.17C274.568 113.148 274.08 110.795 274.08 108.114C274.08 105.432 274.568 103.068 275.545 101.023C276.534 98.9659 277.909 97.3636 279.67 96.2159C281.443 95.0568 283.511 94.4773 285.875 94.4773C287.239 94.4773 288.585 94.7045 289.915 95.1591C291.244 95.6136 292.455 96.3523 293.545 97.375C294.636 98.3864 295.506 99.7273 296.153 101.398C296.801 103.068 297.125 105.125 297.125 107.568V109.273H276.943V105.795H293.034C293.034 104.318 292.739 103 292.148 101.841C291.568 100.682 290.739 99.767 289.659 99.0966C288.591 98.4261 287.33 98.0909 285.875 98.0909C284.273 98.0909 282.886 98.4886 281.716 99.2841C280.557 100.068 279.665 101.091 279.04 102.352C278.415 103.614 278.102 104.966 278.102 106.409V108.727C278.102 110.705 278.443 112.381 279.125 113.756C279.818 115.119 280.778 116.159 282.006 116.875C283.233 117.58 284.659 117.932 286.284 117.932C287.341 117.932 288.295 117.784 289.148 117.489C290.011 117.182 290.756 116.727 291.381 116.125C292.006 115.511 292.489 114.75 292.83 113.841L296.716 114.932C296.307 116.25 295.619 117.409 294.653 118.409C293.688 119.398 292.494 120.17 291.074 120.727C289.653 121.273 288.057 121.545 286.284 121.545ZM303.244 121V94.8182H307.131V98.7727H307.403C307.881 97.4773 308.744 96.4261 309.994 95.6193C311.244 94.8125 312.653 94.4091 314.222 94.4091C314.517 94.4091 314.886 94.4148 315.33 94.4261C315.773 94.4375 316.108 94.4545 316.335 94.4773V98.5682C316.199 98.5341 315.886 98.483 315.398 98.4148C314.92 98.3352 314.415 98.2955 313.881 98.2955C312.608 98.2955 311.472 98.5625 310.472 99.0966C309.483 99.6193 308.699 100.347 308.119 101.278C307.551 102.199 307.267 103.25 307.267 104.432V121H303.244ZM334.403 94.8182V98.2273H320.29V94.8182H334.403ZM324.517 121V91.2045C324.517 89.7045 324.869 88.4545 325.574 87.4545C326.278 86.4545 327.193 85.7045 328.318 85.2045C329.443 84.7045 330.631 84.4545 331.881 84.4545C332.869 84.4545 333.676 84.5341 334.301 84.6932C334.926 84.8523 335.392 85 335.699 85.1364L334.54 88.6136C334.335 88.5455 334.051 88.4602 333.688 88.358C333.335 88.2557 332.869 88.2045 332.29 88.2045C330.96 88.2045 330 88.5398 329.409 89.2102C328.83 89.8807 328.54 90.8636 328.54 92.1591V121H324.517ZM346.996 121.614C345.337 121.614 343.831 121.301 342.479 120.676C341.126 120.04 340.053 119.125 339.257 117.932C338.462 116.727 338.064 115.273 338.064 113.568C338.064 112.068 338.359 110.852 338.95 109.92C339.541 108.977 340.331 108.239 341.32 107.705C342.308 107.17 343.399 106.773 344.592 106.511C345.797 106.239 347.007 106.023 348.223 105.864C349.814 105.659 351.104 105.506 352.092 105.403C353.092 105.29 353.82 105.102 354.274 104.841C354.74 104.58 354.973 104.125 354.973 103.477V103.341C354.973 101.659 354.513 100.352 353.592 99.4205C352.683 98.4886 351.303 98.0227 349.45 98.0227C347.53 98.0227 346.024 98.4432 344.933 99.2841C343.842 100.125 343.075 101.023 342.632 101.977L338.814 100.614C339.496 99.0227 340.405 97.7841 341.541 96.8977C342.689 96 343.939 95.375 345.291 95.0227C346.655 94.6591 347.996 94.4773 349.314 94.4773C350.155 94.4773 351.121 94.5795 352.212 94.7841C353.314 94.9773 354.376 95.3807 355.399 95.9943C356.433 96.608 357.291 97.5341 357.973 98.7727C358.655 100.011 358.996 101.67 358.996 103.75V121H354.973V117.455H354.768C354.496 118.023 354.041 118.631 353.405 119.278C352.768 119.926 351.922 120.477 350.865 120.932C349.808 121.386 348.518 121.614 346.996 121.614ZM347.609 118C349.2 118 350.541 117.688 351.632 117.062C352.734 116.438 353.564 115.631 354.121 114.642C354.689 113.653 354.973 112.614 354.973 111.523V107.841C354.803 108.045 354.428 108.233 353.848 108.403C353.28 108.562 352.621 108.705 351.871 108.83C351.132 108.943 350.411 109.045 349.706 109.136C349.013 109.216 348.45 109.284 348.018 109.341C346.973 109.477 345.996 109.699 345.087 110.006C344.189 110.301 343.462 110.75 342.905 111.352C342.359 111.943 342.087 112.75 342.087 113.773C342.087 115.17 342.604 116.227 343.638 116.943C344.683 117.648 346.007 118 347.609 118ZM376.974 121.545C374.52 121.545 372.406 120.966 370.634 119.807C368.861 118.648 367.497 117.051 366.543 115.017C365.588 112.983 365.111 110.659 365.111 108.045C365.111 105.386 365.599 103.04 366.577 101.006C367.565 98.9602 368.94 97.3636 370.702 96.2159C372.474 95.0568 374.543 94.4773 376.906 94.4773C378.747 94.4773 380.406 94.8182 381.884 95.5C383.361 96.1818 384.571 97.1364 385.514 98.3636C386.457 99.5909 387.043 101.023 387.27 102.659H383.247C382.94 101.466 382.259 100.409 381.202 99.4886C380.156 98.5568 378.747 98.0909 376.974 98.0909C375.406 98.0909 374.031 98.5 372.849 99.3182C371.679 100.125 370.764 101.267 370.105 102.744C369.457 104.21 369.134 105.932 369.134 107.909C369.134 109.932 369.452 111.693 370.088 113.193C370.736 114.693 371.645 115.858 372.815 116.688C373.997 117.517 375.384 117.932 376.974 117.932C378.02 117.932 378.969 117.75 379.821 117.386C380.673 117.023 381.395 116.5 381.986 115.818C382.577 115.136 382.997 114.318 383.247 113.364H387.27C387.043 114.909 386.48 116.301 385.582 117.54C384.696 118.767 383.52 119.744 382.054 120.472C380.599 121.188 378.906 121.545 376.974 121.545ZM404.128 121.545C401.605 121.545 399.429 120.989 397.599 119.875C395.781 118.75 394.378 117.182 393.389 115.17C392.412 113.148 391.923 110.795 391.923 108.114C391.923 105.432 392.412 103.068 393.389 101.023C394.378 98.9659 395.753 97.3636 397.514 96.2159C399.287 95.0568 401.355 94.4773 403.719 94.4773C405.082 94.4773 406.429 94.7045 407.759 95.1591C409.088 95.6136 410.298 96.3523 411.389 97.375C412.48 98.3864 413.349 99.7273 413.997 101.398C414.645 103.068 414.969 105.125 414.969 107.568V109.273H394.787V105.795H410.878C410.878 104.318 410.582 103 409.991 101.841C409.412 100.682 408.582 99.767 407.503 99.0966C406.435 98.4261 405.173 98.0909 403.719 98.0909C402.116 98.0909 400.73 98.4886 399.56 99.2841C398.401 100.068 397.509 101.091 396.884 102.352C396.259 103.614 395.946 104.966 395.946 106.409V108.727C395.946 110.705 396.287 112.381 396.969 113.756C397.662 115.119 398.622 116.159 399.849 116.875C401.077 117.58 402.503 117.932 404.128 117.932C405.185 117.932 406.139 117.784 406.991 117.489C407.855 117.182 408.599 116.727 409.224 116.125C409.849 115.511 410.332 114.75 410.673 113.841L414.56 114.932C414.151 116.25 413.463 117.409 412.497 118.409C411.531 119.398 410.338 120.17 408.918 120.727C407.497 121.273 405.901 121.545 404.128 121.545ZM453.134 100.682L449.52 101.705C449.293 101.102 448.957 100.517 448.514 99.9489C448.082 99.3693 447.491 98.892 446.741 98.517C445.991 98.142 445.031 97.9545 443.861 97.9545C442.259 97.9545 440.923 98.3239 439.855 99.0625C438.798 99.7898 438.27 100.716 438.27 101.841C438.27 102.841 438.634 103.631 439.361 104.21C440.088 104.79 441.224 105.273 442.77 105.659L446.656 106.614C448.997 107.182 450.741 108.051 451.889 109.222C453.037 110.381 453.611 111.875 453.611 113.705C453.611 115.205 453.179 116.545 452.315 117.727C451.463 118.909 450.27 119.841 448.736 120.523C447.202 121.205 445.418 121.545 443.384 121.545C440.713 121.545 438.503 120.966 436.753 119.807C435.003 118.648 433.895 116.955 433.429 114.727L437.247 113.773C437.611 115.182 438.298 116.239 439.31 116.943C440.332 117.648 441.668 118 443.315 118C445.19 118 446.679 117.602 447.781 116.807C448.895 116 449.452 115.034 449.452 113.909C449.452 113 449.134 112.239 448.497 111.625C447.861 111 446.884 110.534 445.565 110.227L441.202 109.205C438.804 108.636 437.043 107.756 435.918 106.562C434.804 105.358 434.247 103.852 434.247 102.045C434.247 100.568 434.662 99.2614 435.491 98.125C436.332 96.9886 437.474 96.0966 438.918 95.4489C440.372 94.8011 442.02 94.4773 443.861 94.4773C446.452 94.4773 448.486 95.0455 449.963 96.1818C451.452 97.3182 452.509 98.8182 453.134 100.682ZM459.666 121V94.8182H463.689V121H459.666ZM461.712 90.4545C460.928 90.4545 460.251 90.1875 459.683 89.6534C459.126 89.1193 458.848 88.4773 458.848 87.7273C458.848 86.9773 459.126 86.3352 459.683 85.8011C460.251 85.267 460.928 85 461.712 85C462.496 85 463.166 85.267 463.723 85.8011C464.291 86.3352 464.575 86.9773 464.575 87.7273C464.575 88.4773 464.291 89.1193 463.723 89.6534C463.166 90.1875 462.496 90.4545 461.712 90.4545ZM471.057 121V94.8182H474.943V98.9091H475.284C475.83 97.5114 476.71 96.4261 477.926 95.6534C479.142 94.8693 480.602 94.4773 482.307 94.4773C484.034 94.4773 485.472 94.8693 486.619 95.6534C487.778 96.4261 488.682 97.5114 489.33 98.9091H489.602C490.273 97.5568 491.278 96.483 492.619 95.6875C493.96 94.8807 495.568 94.4773 497.443 94.4773C499.784 94.4773 501.699 95.2102 503.188 96.6761C504.676 98.1307 505.42 100.398 505.42 103.477V121H501.398V103.477C501.398 101.545 500.869 100.165 499.812 99.3352C498.756 98.5057 497.511 98.0909 496.08 98.0909C494.239 98.0909 492.813 98.6477 491.801 99.7614C490.79 100.864 490.284 102.261 490.284 103.955V121H486.193V103.068C486.193 101.58 485.71 100.381 484.744 99.4716C483.778 98.5511 482.534 98.0909 481.011 98.0909C479.966 98.0909 478.989 98.3693 478.08 98.9261C477.182 99.483 476.455 100.256 475.898 101.244C475.352 102.222 475.08 103.352 475.08 104.636V121H471.057ZM512.776 121V94.8182H516.798V121H512.776ZM514.821 90.4545C514.037 90.4545 513.361 90.1875 512.793 89.6534C512.236 89.1193 511.957 88.4773 511.957 87.7273C511.957 86.9773 512.236 86.3352 512.793 85.8011C513.361 85.267 514.037 85 514.821 85C515.605 85 516.276 85.267 516.832 85.8011C517.401 86.3352 517.685 86.9773 517.685 87.7273C517.685 88.4773 517.401 89.1193 516.832 89.6534C516.276 90.1875 515.605 90.4545 514.821 90.4545ZM528.189 86.0909V121H524.166V86.0909H528.189ZM543.261 121.614C541.602 121.614 540.097 121.301 538.744 120.676C537.392 120.04 536.318 119.125 535.523 117.932C534.727 116.727 534.33 115.273 534.33 113.568C534.33 112.068 534.625 110.852 535.216 109.92C535.807 108.977 536.597 108.239 537.585 107.705C538.574 107.17 539.665 106.773 540.858 106.511C542.063 106.239 543.273 106.023 544.489 105.864C546.08 105.659 547.369 105.506 548.358 105.403C549.358 105.29 550.085 105.102 550.54 104.841C551.006 104.58 551.239 104.125 551.239 103.477V103.341C551.239 101.659 550.778 100.352 549.858 99.4205C548.949 98.4886 547.568 98.0227 545.716 98.0227C543.795 98.0227 542.29 98.4432 541.199 99.2841C540.108 100.125 539.341 101.023 538.898 101.977L535.08 100.614C535.761 99.0227 536.67 97.7841 537.807 96.8977C538.955 96 540.205 95.375 541.557 95.0227C542.92 94.6591 544.261 94.4773 545.58 94.4773C546.42 94.4773 547.386 94.5795 548.477 94.7841C549.58 94.9773 550.642 95.3807 551.665 95.9943C552.699 96.608 553.557 97.5341 554.239 98.7727C554.92 100.011 555.261 101.67 555.261 103.75V121H551.239V117.455H551.034C550.761 118.023 550.307 118.631 549.67 119.278C549.034 119.926 548.188 120.477 547.131 120.932C546.074 121.386 544.784 121.614 543.261 121.614ZM543.875 118C545.466 118 546.807 117.688 547.898 117.062C549 116.438 549.83 115.631 550.386 114.642C550.955 113.653 551.239 112.614 551.239 111.523V107.841C551.068 108.045 550.693 108.233 550.114 108.403C549.545 108.562 548.886 108.705 548.136 108.83C547.398 108.943 546.676 109.045 545.972 109.136C545.278 109.216 544.716 109.284 544.284 109.341C543.239 109.477 542.261 109.699 541.352 110.006C540.455 110.301 539.727 110.75 539.17 111.352C538.625 111.943 538.352 112.75 538.352 113.773C538.352 115.17 538.869 116.227 539.903 116.943C540.949 117.648 542.273 118 543.875 118ZM562.604 121V94.8182H566.626V121H562.604ZM564.649 90.4545C563.865 90.4545 563.189 90.1875 562.621 89.6534C562.064 89.1193 561.786 88.4773 561.786 87.7273C561.786 86.9773 562.064 86.3352 562.621 85.8011C563.189 85.267 563.865 85 564.649 85C565.433 85 566.104 85.267 566.661 85.8011C567.229 86.3352 567.513 86.9773 567.513 87.7273C567.513 88.4773 567.229 89.1193 566.661 89.6534C566.104 90.1875 565.433 90.4545 564.649 90.4545ZM573.994 121V94.8182H577.881V98.7727H578.153C578.631 97.4773 579.494 96.4261 580.744 95.6193C581.994 94.8125 583.403 94.4091 584.972 94.4091C585.267 94.4091 585.636 94.4148 586.08 94.4261C586.523 94.4375 586.858 94.4545 587.085 94.4773V98.5682C586.949 98.5341 586.636 98.483 586.148 98.4148C585.67 98.3352 585.165 98.2955 584.631 98.2955C583.358 98.2955 582.222 98.5625 581.222 99.0966C580.233 99.6193 579.449 100.347 578.869 101.278C578.301 102.199 578.017 103.25 578.017 104.432V121H573.994ZM602.034 121.545C599.511 121.545 597.335 120.989 595.506 119.875C593.688 118.75 592.284 117.182 591.295 115.17C590.318 113.148 589.83 110.795 589.83 108.114C589.83 105.432 590.318 103.068 591.295 101.023C592.284 98.9659 593.659 97.3636 595.42 96.2159C597.193 95.0568 599.261 94.4773 601.625 94.4773C602.989 94.4773 604.335 94.7045 605.665 95.1591C606.994 95.6136 608.205 96.3523 609.295 97.375C610.386 98.3864 611.256 99.7273 611.903 101.398C612.551 103.068 612.875 105.125 612.875 107.568V109.273H592.693V105.795H608.784C608.784 104.318 608.489 103 607.898 101.841C607.318 100.682 606.489 99.767 605.409 99.0966C604.341 98.4261 603.08 98.0909 601.625 98.0909C600.023 98.0909 598.636 98.4886 597.466 99.2841C596.307 100.068 595.415 101.091 594.79 102.352C594.165 103.614 593.852 104.966 593.852 106.409V108.727C593.852 110.705 594.193 112.381 594.875 113.756C595.568 115.119 596.528 116.159 597.756 116.875C598.983 117.58 600.409 117.932 602.034 117.932C603.091 117.932 604.045 117.784 604.898 117.489C605.761 117.182 606.506 116.727 607.131 116.125C607.756 115.511 608.239 114.75 608.58 113.841L612.466 114.932C612.057 116.25 611.369 117.409 610.403 118.409C609.438 119.398 608.244 120.17 606.824 120.727C605.403 121.273 603.807 121.545 602.034 121.545ZM640.199 121.614C638.54 121.614 637.034 121.301 635.682 120.676C634.33 120.04 633.256 119.125 632.46 117.932C631.665 116.727 631.267 115.273 631.267 113.568C631.267 112.068 631.563 110.852 632.153 109.92C632.744 108.977 633.534 108.239 634.523 107.705C635.511 107.17 636.602 106.773 637.795 106.511C639 106.239 640.21 106.023 641.426 105.864C643.017 105.659 644.307 105.506 645.295 105.403C646.295 105.29 647.023 105.102 647.477 104.841C647.943 104.58 648.176 104.125 648.176 103.477V103.341C648.176 101.659 647.716 100.352 646.795 99.4205C645.886 98.4886 644.506 98.0227 642.653 98.0227C640.733 98.0227 639.227 98.4432 638.136 99.2841C637.045 100.125 636.278 101.023 635.835 101.977L632.017 100.614C632.699 99.0227 633.608 97.7841 634.744 96.8977C635.892 96 637.142 95.375 638.494 95.0227C639.858 94.6591 641.199 94.4773 642.517 94.4773C643.358 94.4773 644.324 94.5795 645.415 94.7841C646.517 94.9773 647.58 95.3807 648.602 95.9943C649.636 96.608 650.494 97.5341 651.176 98.7727C651.858 100.011 652.199 101.67 652.199 103.75V121H648.176V117.455H647.972C647.699 118.023 647.244 118.631 646.608 119.278C645.972 119.926 645.125 120.477 644.068 120.932C643.011 121.386 641.722 121.614 640.199 121.614ZM640.812 118C642.403 118 643.744 117.688 644.835 117.062C645.938 116.438 646.767 115.631 647.324 114.642C647.892 113.653 648.176 112.614 648.176 111.523V107.841C648.006 108.045 647.631 108.233 647.051 108.403C646.483 108.562 645.824 108.705 645.074 108.83C644.335 108.943 643.614 109.045 642.909 109.136C642.216 109.216 641.653 109.284 641.222 109.341C640.176 109.477 639.199 109.699 638.29 110.006C637.392 110.301 636.665 110.75 636.108 111.352C635.563 111.943 635.29 112.75 635.29 113.773C635.29 115.17 635.807 116.227 636.841 116.943C637.886 117.648 639.21 118 640.812 118ZM641.085 91.2727L635.767 83.3636H640.472L644.631 91.2727H641.085ZM671.678 89.8409V86.0909H697.859V89.8409H686.882V121H682.655V89.8409H671.678ZM706.77 121L698.793 94.8182H703.02L708.679 114.864H708.952L714.543 94.8182H718.838L724.361 114.795H724.634L730.293 94.8182H734.52L726.543 121H722.588L716.861 100.886H716.452L710.724 121H706.77ZM739.838 121V94.8182H743.861V121H739.838ZM741.884 90.4545C741.099 90.4545 740.423 90.1875 739.855 89.6534C739.298 89.1193 739.02 88.4773 739.02 87.7273C739.02 86.9773 739.298 86.3352 739.855 85.8011C740.423 85.267 741.099 85 741.884 85C742.668 85 743.338 85.267 743.895 85.8011C744.463 86.3352 744.747 86.9773 744.747 87.7273C744.747 88.4773 744.463 89.1193 743.895 89.6534C743.338 90.1875 742.668 90.4545 741.884 90.4545ZM755.251 105.25V121H751.229V94.8182H755.115V98.9091H755.456C756.07 97.5795 757.001 96.5114 758.251 95.7045C759.501 94.8864 761.115 94.4773 763.092 94.4773C764.865 94.4773 766.416 94.8409 767.746 95.5682C769.075 96.2841 770.109 97.375 770.848 98.8409C771.587 100.295 771.956 102.136 771.956 104.364V121H767.933V104.636C767.933 102.58 767.399 100.977 766.331 99.8295C765.263 98.6705 763.797 98.0909 761.933 98.0909C760.649 98.0909 759.501 98.3693 758.49 98.9261C757.49 99.483 756.7 100.295 756.121 101.364C755.541 102.432 755.251 103.727 755.251 105.25ZM790.284 121.545C787.761 121.545 785.585 120.989 783.756 119.875C781.938 118.75 780.534 117.182 779.545 115.17C778.568 113.148 778.08 110.795 778.08 108.114C778.08 105.432 778.568 103.068 779.545 101.023C780.534 98.9659 781.909 97.3636 783.67 96.2159C785.443 95.0568 787.511 94.4773 789.875 94.4773C791.239 94.4773 792.585 94.7045 793.915 95.1591C795.244 95.6136 796.455 96.3523 797.545 97.375C798.636 98.3864 799.506 99.7273 800.153 101.398C800.801 103.068 801.125 105.125 801.125 107.568V109.273H780.943V105.795H797.034C797.034 104.318 796.739 103 796.148 101.841C795.568 100.682 794.739 99.767 793.659 99.0966C792.591 98.4261 791.33 98.0909 789.875 98.0909C788.273 98.0909 786.886 98.4886 785.716 99.2841C784.557 100.068 783.665 101.091 783.04 102.352C782.415 103.614 782.102 104.966 782.102 106.409V108.727C782.102 110.705 782.443 112.381 783.125 113.756C783.818 115.119 784.778 116.159 786.006 116.875C787.233 117.58 788.659 117.932 790.284 117.932C791.341 117.932 792.295 117.784 793.148 117.489C794.011 117.182 794.756 116.727 795.381 116.125C796.006 115.511 796.489 114.75 796.83 113.841L800.716 114.932C800.307 116.25 799.619 117.409 798.653 118.409C797.688 119.398 796.494 120.17 795.074 120.727C793.653 121.273 792.057 121.545 790.284 121.545ZM830.631 121.545C828.449 121.545 826.523 120.994 824.852 119.892C823.182 118.778 821.875 117.21 820.932 115.188C819.989 113.153 819.517 110.75 819.517 107.977C819.517 105.227 819.989 102.841 820.932 100.818C821.875 98.7955 823.188 97.233 824.869 96.1307C826.551 95.0284 828.494 94.4773 830.699 94.4773C832.403 94.4773 833.75 94.7614 834.739 95.3295C835.739 95.8864 836.5 96.5227 837.023 97.2386C837.557 97.9432 837.972 98.5227 838.267 98.9773H838.608V86.0909H842.631V121H838.744V116.977H838.267C837.972 117.455 837.551 118.057 837.006 118.784C836.46 119.5 835.682 120.142 834.67 120.71C833.659 121.267 832.313 121.545 830.631 121.545ZM831.176 117.932C832.79 117.932 834.153 117.511 835.267 116.67C836.381 115.818 837.227 114.642 837.807 113.142C838.386 111.631 838.676 109.886 838.676 107.909C838.676 105.955 838.392 104.244 837.824 102.778C837.256 101.301 836.415 100.153 835.301 99.3352C834.188 98.5057 832.813 98.0909 831.176 98.0909C829.472 98.0909 828.051 98.5284 826.915 99.4034C825.79 100.267 824.943 101.443 824.375 102.932C823.818 104.409 823.54 106.068 823.54 107.909C823.54 109.773 823.824 111.466 824.392 112.989C824.972 114.5 825.824 115.705 826.949 116.602C828.085 117.489 829.494 117.932 831.176 117.932ZM858.261 121.614C856.602 121.614 855.097 121.301 853.744 120.676C852.392 120.04 851.318 119.125 850.523 117.932C849.727 116.727 849.33 115.273 849.33 113.568C849.33 112.068 849.625 110.852 850.216 109.92C850.807 108.977 851.597 108.239 852.585 107.705C853.574 107.17 854.665 106.773 855.858 106.511C857.063 106.239 858.273 106.023 859.489 105.864C861.08 105.659 862.369 105.506 863.358 105.403C864.358 105.29 865.085 105.102 865.54 104.841C866.006 104.58 866.239 104.125 866.239 103.477V103.341C866.239 101.659 865.778 100.352 864.858 99.4205C863.949 98.4886 862.568 98.0227 860.716 98.0227C858.795 98.0227 857.29 98.4432 856.199 99.2841C855.108 100.125 854.341 101.023 853.898 101.977L850.08 100.614C850.761 99.0227 851.67 97.7841 852.807 96.8977C853.955 96 855.205 95.375 856.557 95.0227C857.92 94.6591 859.261 94.4773 860.58 94.4773C861.42 94.4773 862.386 94.5795 863.477 94.7841C864.58 94.9773 865.642 95.3807 866.665 95.9943C867.699 96.608 868.557 97.5341 869.239 98.7727C869.92 100.011 870.261 101.67 870.261 103.75V121H866.239V117.455H866.034C865.761 118.023 865.307 118.631 864.67 119.278C864.034 119.926 863.188 120.477 862.131 120.932C861.074 121.386 859.784 121.614 858.261 121.614ZM858.875 118C860.466 118 861.807 117.688 862.898 117.062C864 116.438 864.83 115.631 865.386 114.642C865.955 113.653 866.239 112.614 866.239 111.523V107.841C866.068 108.045 865.693 108.233 865.114 108.403C864.545 108.562 863.886 108.705 863.136 108.83C862.398 108.943 861.676 109.045 860.972 109.136C860.278 109.216 859.716 109.284 859.284 109.341C858.239 109.477 857.261 109.699 856.352 110.006C855.455 110.301 854.727 110.75 854.17 111.352C853.625 111.943 853.352 112.75 853.352 113.773C853.352 115.17 853.869 116.227 854.903 116.943C855.949 117.648 857.273 118 858.875 118ZM881.626 105.25V121H877.604V94.8182H881.49V98.9091H881.831C882.445 97.5795 883.376 96.5114 884.626 95.7045C885.876 94.8864 887.49 94.4773 889.467 94.4773C891.24 94.4773 892.791 94.8409 894.121 95.5682C895.45 96.2841 896.484 97.375 897.223 98.8409C897.962 100.295 898.331 102.136 898.331 104.364V121H894.308V104.636C894.308 102.58 893.774 100.977 892.706 99.8295C891.638 98.6705 890.172 98.0909 888.308 98.0909C887.024 98.0909 885.876 98.3693 884.865 98.9261C883.865 99.483 883.075 100.295 882.496 101.364C881.916 102.432 881.626 103.727 881.626 105.25ZM924.227 100.682L920.614 101.705C920.386 101.102 920.051 100.517 919.608 99.9489C919.176 99.3693 918.585 98.892 917.835 98.517C917.085 98.142 916.125 97.9545 914.955 97.9545C913.352 97.9545 912.017 98.3239 910.949 99.0625C909.892 99.7898 909.364 100.716 909.364 101.841C909.364 102.841 909.727 103.631 910.455 104.21C911.182 104.79 912.318 105.273 913.864 105.659L917.75 106.614C920.091 107.182 921.835 108.051 922.983 109.222C924.131 110.381 924.705 111.875 924.705 113.705C924.705 115.205 924.273 116.545 923.409 117.727C922.557 118.909 921.364 119.841 919.83 120.523C918.295 121.205 916.511 121.545 914.477 121.545C911.807 121.545 909.597 120.966 907.847 119.807C906.097 118.648 904.989 116.955 904.523 114.727L908.341 113.773C908.705 115.182 909.392 116.239 910.403 116.943C911.426 117.648 912.761 118 914.409 118C916.284 118 917.773 117.602 918.875 116.807C919.989 116 920.545 115.034 920.545 113.909C920.545 113 920.227 112.239 919.591 111.625C918.955 111 917.977 110.534 916.659 110.227L912.295 109.205C909.898 108.636 908.136 107.756 907.011 106.562C905.898 105.358 905.341 103.852 905.341 102.045C905.341 100.568 905.756 99.2614 906.585 98.125C907.426 96.9886 908.568 96.0966 910.011 95.4489C911.466 94.8011 913.114 94.4773 914.955 94.4773C917.545 94.4773 919.58 95.0455 921.057 96.1818C922.545 97.3182 923.602 98.8182 924.227 100.682ZM948.283 86.0909V121H944.26V86.0909H948.283ZM959.196 86.0909V89.1591C959.196 90.0909 959.026 91.0852 958.685 92.142C958.355 93.1875 957.866 94.2045 957.219 95.1932C956.582 96.1705 955.81 97.0227 954.901 97.75L952.719 95.9773C953.435 94.9545 954.054 93.892 954.577 92.7898C955.111 91.6761 955.378 90.4886 955.378 89.2273V86.0909H959.196ZM964.51 121V94.8182H968.533V121H964.51ZM966.555 90.4545C965.771 90.4545 965.095 90.1875 964.527 89.6534C963.97 89.1193 963.692 88.4773 963.692 87.7273C963.692 86.9773 963.97 86.3352 964.527 85.8011C965.095 85.267 965.771 85 966.555 85C967.339 85 968.01 85.267 968.567 85.8011C969.135 86.3352 969.419 86.9773 969.419 87.7273C969.419 88.4773 969.135 89.1193 968.567 89.6534C968.01 90.1875 967.339 90.4545 966.555 90.4545ZM985.787 121.545C983.605 121.545 981.679 120.994 980.009 119.892C978.338 118.778 977.031 117.21 976.088 115.188C975.145 113.153 974.673 110.75 974.673 107.977C974.673 105.227 975.145 102.841 976.088 100.818C977.031 98.7955 978.344 97.233 980.026 96.1307C981.707 95.0284 983.651 94.4773 985.855 94.4773C987.56 94.4773 988.906 94.7614 989.895 95.3295C990.895 95.8864 991.656 96.5227 992.179 97.2386C992.713 97.9432 993.128 98.5227 993.423 98.9773H993.764V86.0909H997.787V121H993.901V116.977H993.423C993.128 117.455 992.707 118.057 992.162 118.784C991.616 119.5 990.838 120.142 989.827 120.71C988.815 121.267 987.469 121.545 985.787 121.545ZM986.332 117.932C987.946 117.932 989.31 117.511 990.423 116.67C991.537 115.818 992.384 114.642 992.963 113.142C993.543 111.631 993.832 109.886 993.832 107.909C993.832 105.955 993.548 104.244 992.98 102.778C992.412 101.301 991.571 100.153 990.457 99.3352C989.344 98.5057 987.969 98.0909 986.332 98.0909C984.628 98.0909 983.207 98.5284 982.071 99.4034C980.946 100.267 980.099 101.443 979.531 102.932C978.974 104.409 978.696 106.068 978.696 107.909C978.696 109.773 978.98 111.466 979.548 112.989C980.128 114.5 980.98 115.705 982.105 116.602C983.241 117.489 984.651 117.932 986.332 117.932ZM1016.69 121.545C1014.17 121.545 1011.99 120.989 1010.16 119.875C1008.34 118.75 1006.94 117.182 1005.95 115.17C1004.97 113.148 1004.49 110.795 1004.49 108.114C1004.49 105.432 1004.97 103.068 1005.95 101.023C1006.94 98.9659 1008.32 97.3636 1010.08 96.2159C1011.85 95.0568 1013.92 94.4773 1016.28 94.4773C1017.64 94.4773 1018.99 94.7045 1020.32 95.1591C1021.65 95.6136 1022.86 96.3523 1023.95 97.375C1025.04 98.3864 1025.91 99.7273 1026.56 101.398C1027.21 103.068 1027.53 105.125 1027.53 107.568V109.273H1007.35V105.795H1023.44C1023.44 104.318 1023.14 103 1022.55 101.841C1021.97 100.682 1021.14 99.767 1020.07 99.0966C1019 98.4261 1017.74 98.0909 1016.28 98.0909C1014.68 98.0909 1013.29 98.4886 1012.12 99.2841C1010.96 100.068 1010.07 101.091 1009.45 102.352C1008.82 103.614 1008.51 104.966 1008.51 106.409V108.727C1008.51 110.705 1008.85 112.381 1009.53 113.756C1010.22 115.119 1011.18 116.159 1012.41 116.875C1013.64 117.58 1015.07 117.932 1016.69 117.932C1017.75 117.932 1018.7 117.784 1019.55 117.489C1020.42 117.182 1021.16 116.727 1021.79 116.125C1022.41 115.511 1022.89 114.75 1023.24 113.841L1027.12 114.932C1026.71 116.25 1026.03 117.409 1025.06 118.409C1024.09 119.398 1022.9 120.17 1021.48 120.727C1020.06 121.273 1018.46 121.545 1016.69 121.545ZM1014.24 91.2727L1018.39 83.3636H1023.1L1017.78 91.2727H1014.24ZM1041.36 121.614C1039.7 121.614 1038.19 121.301 1036.84 120.676C1035.49 120.04 1034.41 119.125 1033.62 117.932C1032.82 116.727 1032.42 115.273 1032.42 113.568C1032.42 112.068 1032.72 110.852 1033.31 109.92C1033.9 108.977 1034.69 108.239 1035.68 107.705C1036.67 107.17 1037.76 106.773 1038.95 106.511C1040.16 106.239 1041.37 106.023 1042.58 105.864C1044.17 105.659 1045.46 105.506 1046.45 105.403C1047.45 105.29 1048.18 105.102 1048.63 104.841C1049.1 104.58 1049.33 104.125 1049.33 103.477V103.341C1049.33 101.659 1048.87 100.352 1047.95 99.4205C1047.04 98.4886 1045.66 98.0227 1043.81 98.0227C1041.89 98.0227 1040.38 98.4432 1039.29 99.2841C1038.2 100.125 1037.43 101.023 1036.99 101.977L1033.17 100.614C1033.86 99.0227 1034.76 97.7841 1035.9 96.8977C1037.05 96 1038.3 95.375 1039.65 95.0227C1041.01 94.6591 1042.36 94.4773 1043.67 94.4773C1044.51 94.4773 1045.48 94.5795 1046.57 94.7841C1047.67 94.9773 1048.74 95.3807 1049.76 95.9943C1050.79 96.608 1051.65 97.5341 1052.33 98.7727C1053.01 100.011 1053.36 101.67 1053.36 103.75V121H1049.33V117.455H1049.13C1048.86 118.023 1048.4 118.631 1047.76 119.278C1047.13 119.926 1046.28 120.477 1045.22 120.932C1044.17 121.386 1042.88 121.614 1041.36 121.614ZM1041.97 118C1043.56 118 1044.9 117.688 1045.99 117.062C1047.09 116.438 1047.92 115.631 1048.48 114.642C1049.05 113.653 1049.33 112.614 1049.33 111.523V107.841C1049.16 108.045 1048.79 108.233 1048.21 108.403C1047.64 108.562 1046.98 108.705 1046.23 108.83C1045.49 108.943 1044.77 109.045 1044.07 109.136C1043.37 109.216 1042.81 109.284 1042.38 109.341C1041.33 109.477 1040.36 109.699 1039.45 110.006C1038.55 110.301 1037.82 110.75 1037.26 111.352C1036.72 111.943 1036.45 112.75 1036.45 113.773C1036.45 115.17 1036.96 116.227 1038 116.943C1039.04 117.648 1040.37 118 1041.97 118ZM1064.72 86.0909V121H1060.7V86.0909H1064.72Z" fill="black"/>
<path d="M53.9375 66.9906V95C53.9375 97.7614 56.1761 100 58.9375 100H61.4438C64.2052 100 66.4438 97.7614 66.4438 95V86.6084C66.4438 83.847 68.6823 81.6084 71.4437 81.6084H79.9875C82.7489 81.6084 84.9875 83.847 84.9875 86.6084V95C84.9875 97.7614 87.2261 100 89.9875 100H93.3563C96.1177 100 98.3563 97.7614 98.3563 95V66.6132C98.3563 64.7374 99.8768 63.2169 101.753 63.2169C104.785 63.2169 106.297 59.5446 104.144 57.4091L79.0209 32.492C77.0717 30.5588 73.9283 30.5588 71.9791 32.492L47.5064 56.7638C45.1141 59.1366 46.7943 63.2169 50.1638 63.2169C52.248 63.2169 53.9375 64.9064 53.9375 66.9906Z" fill="#010101"/>
</svg>
