<svg width="1440" height="1024" viewBox="0 0 1440 1024" fill="none" xmlns="http://www.w3.org/2000/svg">
<rect width="1440" height="1024" fill="white"/>
<g filter="url(#filter0_i_5_9)">
<rect x="83" y="291" width="405" height="221" rx="40" fill="#32C76E"/>
<path d="M116.523 418V388.909H120.045V414.875H133.568V418H116.523ZM144.989 418.511C143.606 418.511 142.351 418.251 141.224 417.73C140.098 417.2 139.203 416.438 138.54 415.443C137.877 414.439 137.545 413.227 137.545 411.807C137.545 410.557 137.792 409.544 138.284 408.767C138.777 407.981 139.435 407.366 140.259 406.92C141.082 406.475 141.991 406.144 142.986 405.926C143.99 405.699 144.998 405.519 146.011 405.386C147.337 405.216 148.412 405.088 149.236 405.003C150.069 404.908 150.675 404.752 151.054 404.534C151.442 404.316 151.636 403.937 151.636 403.398V403.284C151.636 401.883 151.253 400.794 150.486 400.017C149.728 399.241 148.578 398.852 147.034 398.852C145.434 398.852 144.179 399.203 143.27 399.903C142.361 400.604 141.722 401.352 141.352 402.148L138.17 401.011C138.739 399.686 139.496 398.653 140.443 397.915C141.4 397.167 142.441 396.646 143.568 396.352C144.705 396.049 145.822 395.898 146.92 395.898C147.621 395.898 148.426 395.983 149.335 396.153C150.254 396.314 151.139 396.651 151.991 397.162C152.853 397.673 153.568 398.445 154.136 399.477C154.705 400.509 154.989 401.892 154.989 403.625V418H151.636V415.045H151.466C151.239 415.519 150.86 416.026 150.33 416.565C149.799 417.105 149.094 417.564 148.213 417.943C147.332 418.322 146.258 418.511 144.989 418.511ZM145.5 415.5C146.826 415.5 147.943 415.24 148.852 414.719C149.771 414.198 150.462 413.526 150.926 412.702C151.4 411.878 151.636 411.011 151.636 410.102V407.034C151.494 407.205 151.182 407.361 150.699 407.503C150.225 407.635 149.676 407.754 149.051 407.858C148.436 407.953 147.834 408.038 147.247 408.114C146.67 408.18 146.201 408.237 145.841 408.284C144.97 408.398 144.155 408.582 143.398 408.838C142.65 409.084 142.044 409.458 141.58 409.96C141.125 410.453 140.898 411.125 140.898 411.977C140.898 413.142 141.329 414.023 142.19 414.619C143.062 415.206 144.165 415.5 145.5 415.5ZM164.46 404.875V418H161.107V396.182H164.346V399.591H164.63C165.141 398.483 165.918 397.593 166.96 396.92C168.001 396.239 169.346 395.898 170.994 395.898C172.471 395.898 173.763 396.201 174.871 396.807C175.979 397.403 176.841 398.312 177.457 399.534C178.072 400.746 178.38 402.28 178.38 404.136V418H175.028V404.364C175.028 402.65 174.583 401.314 173.692 400.358C172.802 399.392 171.581 398.909 170.028 398.909C168.958 398.909 168.001 399.141 167.158 399.605C166.325 400.069 165.667 400.746 165.184 401.636C164.701 402.527 164.46 403.606 164.46 404.875ZM193.369 418.455C191.324 418.455 189.563 417.972 188.085 417.006C186.608 416.04 185.472 414.709 184.676 413.014C183.881 411.319 183.483 409.383 183.483 407.205C183.483 404.989 183.89 403.033 184.705 401.338C185.528 399.634 186.674 398.303 188.142 397.347C189.619 396.381 191.343 395.898 193.312 395.898C194.847 395.898 196.229 396.182 197.46 396.75C198.691 397.318 199.7 398.114 200.486 399.136C201.272 400.159 201.759 401.352 201.949 402.716H198.597C198.341 401.722 197.773 400.841 196.892 400.074C196.021 399.297 194.847 398.909 193.369 398.909C192.063 398.909 190.917 399.25 189.932 399.932C188.956 400.604 188.194 401.556 187.645 402.787C187.105 404.009 186.835 405.443 186.835 407.091C186.835 408.777 187.1 410.244 187.631 411.494C188.17 412.744 188.928 413.715 189.903 414.406C190.888 415.098 192.044 415.443 193.369 415.443C194.241 415.443 195.031 415.292 195.741 414.989C196.452 414.686 197.053 414.25 197.545 413.682C198.038 413.114 198.388 412.432 198.597 411.636H201.949C201.759 412.924 201.291 414.084 200.543 415.116C199.804 416.139 198.824 416.954 197.602 417.56C196.39 418.156 194.979 418.455 193.369 418.455ZM215.997 418.455C213.895 418.455 212.081 417.991 210.557 417.062C209.042 416.125 207.872 414.818 207.048 413.142C206.234 411.456 205.827 409.496 205.827 407.261C205.827 405.027 206.234 403.057 207.048 401.352C207.872 399.638 209.018 398.303 210.486 397.347C211.963 396.381 213.687 395.898 215.656 395.898C216.793 395.898 217.915 396.087 219.023 396.466C220.131 396.845 221.139 397.46 222.048 398.312C222.957 399.155 223.682 400.273 224.222 401.665C224.761 403.057 225.031 404.771 225.031 406.807V408.227H208.213V405.33H221.622C221.622 404.098 221.376 403 220.884 402.034C220.401 401.068 219.709 400.306 218.81 399.747C217.92 399.188 216.868 398.909 215.656 398.909C214.321 398.909 213.166 399.241 212.19 399.903C211.224 400.557 210.481 401.409 209.96 402.46C209.439 403.511 209.179 404.638 209.179 405.841V407.773C209.179 409.42 209.463 410.817 210.031 411.963C210.609 413.099 211.409 413.966 212.432 414.562C213.455 415.15 214.643 415.443 215.997 415.443C216.878 415.443 217.673 415.32 218.384 415.074C219.103 414.818 219.723 414.439 220.244 413.938C220.765 413.426 221.168 412.792 221.452 412.034L224.69 412.943C224.349 414.042 223.777 415.008 222.972 415.841C222.167 416.665 221.172 417.309 219.989 417.773C218.805 418.227 217.474 418.455 215.997 418.455ZM230.131 418V396.182H233.369V399.477H233.597C233.994 398.398 234.714 397.522 235.756 396.849C236.797 396.177 237.972 395.841 239.278 395.841C239.525 395.841 239.832 395.846 240.202 395.855C240.571 395.865 240.85 395.879 241.04 395.898V399.307C240.926 399.278 240.666 399.236 240.259 399.179C239.861 399.113 239.439 399.08 238.994 399.08C237.934 399.08 236.987 399.302 236.153 399.747C235.33 400.183 234.676 400.789 234.193 401.565C233.72 402.332 233.483 403.208 233.483 404.193V418H230.131ZM270.013 409.08V396.182H273.366V418H270.013V414.307H269.786C269.275 415.415 268.479 416.357 267.4 417.134C266.32 417.901 264.957 418.284 263.309 418.284C261.945 418.284 260.733 417.986 259.673 417.389C258.612 416.783 257.779 415.874 257.173 414.662C256.567 413.44 256.263 411.902 256.263 410.045V396.182H259.616V409.818C259.616 411.409 260.061 412.678 260.951 413.625C261.851 414.572 262.996 415.045 264.388 415.045C265.222 415.045 266.069 414.832 266.931 414.406C267.802 413.98 268.531 413.327 269.119 412.446C269.715 411.565 270.013 410.443 270.013 409.08ZM282.858 404.875V418H279.506V396.182H282.744V399.591H283.028C283.54 398.483 284.316 397.593 285.358 396.92C286.4 396.239 287.744 395.898 289.392 395.898C290.869 395.898 292.162 396.201 293.27 396.807C294.378 397.403 295.24 398.312 295.855 399.534C296.471 400.746 296.778 402.28 296.778 404.136V418H293.426V404.364C293.426 402.65 292.981 401.314 292.091 400.358C291.201 399.392 289.979 398.909 288.426 398.909C287.356 398.909 286.4 399.141 285.557 399.605C284.723 400.069 284.065 400.746 283.582 401.636C283.099 402.527 282.858 403.606 282.858 404.875ZM312.052 418.455C309.95 418.455 308.136 417.991 306.612 417.062C305.096 416.125 303.927 414.818 303.103 413.142C302.289 411.456 301.881 409.496 301.881 407.261C301.881 405.027 302.289 403.057 303.103 401.352C303.927 399.638 305.073 398.303 306.54 397.347C308.018 396.381 309.741 395.898 311.711 395.898C312.847 395.898 313.969 396.087 315.077 396.466C316.185 396.845 317.194 397.46 318.103 398.312C319.012 399.155 319.737 400.273 320.276 401.665C320.816 403.057 321.086 404.771 321.086 406.807V408.227H304.268V405.33H317.677C317.677 404.098 317.431 403 316.938 402.034C316.455 401.068 315.764 400.306 314.864 399.747C313.974 399.188 312.923 398.909 311.711 398.909C310.376 398.909 309.22 399.241 308.245 399.903C307.279 400.557 306.536 401.409 306.015 402.46C305.494 403.511 305.234 404.638 305.234 405.841V407.773C305.234 409.42 305.518 410.817 306.086 411.963C306.664 413.099 307.464 413.966 308.487 414.562C309.509 415.15 310.698 415.443 312.052 415.443C312.933 415.443 313.728 415.32 314.438 415.074C315.158 414.818 315.778 414.439 316.299 413.938C316.82 413.426 317.222 412.792 317.506 412.034L320.745 412.943C320.404 414.042 319.831 415.008 319.026 415.841C318.221 416.665 317.227 417.309 316.043 417.773C314.86 418.227 313.529 418.455 312.052 418.455ZM337.435 426.182V396.182H340.674V399.648H341.072C341.318 399.269 341.659 398.786 342.094 398.199C342.54 397.602 343.174 397.072 343.998 396.608C344.831 396.134 345.958 395.898 347.379 395.898C349.216 395.898 350.835 396.357 352.237 397.276C353.638 398.194 354.732 399.496 355.518 401.182C356.304 402.867 356.697 404.856 356.697 407.148C356.697 409.458 356.304 411.461 355.518 413.156C354.732 414.842 353.643 416.149 352.251 417.077C350.859 417.995 349.254 418.455 347.435 418.455C346.034 418.455 344.912 418.223 344.069 417.759C343.226 417.285 342.577 416.75 342.123 416.153C341.668 415.547 341.318 415.045 341.072 414.648H340.788V426.182H337.435ZM340.731 407.091C340.731 408.739 340.972 410.192 341.455 411.452C341.938 412.702 342.644 413.682 343.572 414.392C344.5 415.093 345.636 415.443 346.981 415.443C348.382 415.443 349.552 415.074 350.489 414.335C351.436 413.587 352.147 412.583 352.62 411.324C353.103 410.055 353.344 408.644 353.344 407.091C353.344 405.557 353.108 404.174 352.634 402.943C352.17 401.703 351.465 400.723 350.518 400.003C349.58 399.274 348.401 398.909 346.981 398.909C345.617 398.909 344.471 399.255 343.543 399.946C342.615 400.628 341.915 401.584 341.441 402.815C340.968 404.037 340.731 405.462 340.731 407.091ZM368.231 418.511C366.848 418.511 365.594 418.251 364.467 417.73C363.34 417.2 362.445 416.438 361.782 415.443C361.119 414.439 360.788 413.227 360.788 411.807C360.788 410.557 361.034 409.544 361.526 408.767C362.019 407.981 362.677 407.366 363.501 406.92C364.325 406.475 365.234 406.144 366.228 405.926C367.232 405.699 368.24 405.519 369.254 405.386C370.579 405.216 371.654 405.088 372.478 405.003C373.311 404.908 373.917 404.752 374.296 404.534C374.684 404.316 374.879 403.937 374.879 403.398V403.284C374.879 401.883 374.495 400.794 373.728 400.017C372.97 399.241 371.82 398.852 370.276 398.852C368.676 398.852 367.421 399.203 366.512 399.903C365.603 400.604 364.964 401.352 364.594 402.148L361.413 401.011C361.981 399.686 362.738 398.653 363.685 397.915C364.642 397.167 365.683 396.646 366.81 396.352C367.947 396.049 369.064 395.898 370.163 395.898C370.863 395.898 371.668 395.983 372.577 396.153C373.496 396.314 374.381 396.651 375.234 397.162C376.095 397.673 376.81 398.445 377.379 399.477C377.947 400.509 378.231 401.892 378.231 403.625V418H374.879V415.045H374.708C374.481 415.519 374.102 416.026 373.572 416.565C373.041 417.105 372.336 417.564 371.455 417.943C370.575 418.322 369.5 418.511 368.231 418.511ZM368.742 415.5C370.068 415.5 371.185 415.24 372.094 414.719C373.013 414.198 373.704 413.526 374.168 412.702C374.642 411.878 374.879 411.011 374.879 410.102V407.034C374.737 407.205 374.424 407.361 373.941 407.503C373.468 407.635 372.918 407.754 372.293 407.858C371.678 407.953 371.076 408.038 370.489 408.114C369.912 408.18 369.443 408.237 369.083 408.284C368.212 408.398 367.397 408.582 366.64 408.838C365.892 409.084 365.286 409.458 364.822 409.96C364.367 410.453 364.14 411.125 364.14 411.977C364.14 413.142 364.571 414.023 365.433 414.619C366.304 415.206 367.407 415.5 368.742 415.5ZM384.349 418V396.182H387.588V399.477H387.815C388.213 398.398 388.933 397.522 389.974 396.849C391.016 396.177 392.19 395.841 393.497 395.841C393.743 395.841 394.051 395.846 394.42 395.855C394.79 395.865 395.069 395.879 395.259 395.898V399.307C395.145 399.278 394.884 399.236 394.477 399.179C394.08 399.113 393.658 399.08 393.213 399.08C392.152 399.08 391.205 399.302 390.372 399.747C389.548 400.183 388.895 400.789 388.412 401.565C387.938 402.332 387.702 403.208 387.702 404.193V418H384.349ZM410.088 396.182V399.023H398.781V396.182H410.088ZM402.077 390.955H405.429V411.75C405.429 412.697 405.566 413.407 405.841 413.881C406.125 414.345 406.485 414.657 406.92 414.818C407.366 414.97 407.834 415.045 408.327 415.045C408.696 415.045 408.999 415.027 409.236 414.989C409.473 414.941 409.662 414.903 409.804 414.875L410.486 417.886C410.259 417.972 409.941 418.057 409.534 418.142C409.127 418.237 408.611 418.284 407.986 418.284C407.039 418.284 406.111 418.08 405.202 417.673C404.302 417.266 403.554 416.646 402.957 415.812C402.37 414.979 402.077 413.928 402.077 412.659V390.955ZM415.131 418V396.182H418.483V418H415.131ZM416.835 392.545C416.182 392.545 415.618 392.323 415.145 391.878C414.681 391.433 414.449 390.898 414.449 390.273C414.449 389.648 414.681 389.113 415.145 388.668C415.618 388.223 416.182 388 416.835 388C417.489 388 418.047 388.223 418.511 388.668C418.985 389.113 419.222 389.648 419.222 390.273C419.222 390.898 418.985 391.433 418.511 391.878C418.047 392.323 417.489 392.545 416.835 392.545ZM433.771 418.455C431.668 418.455 429.855 417.991 428.33 417.062C426.815 416.125 425.646 414.818 424.822 413.142C424.007 411.456 423.6 409.496 423.6 407.261C423.6 405.027 424.007 403.057 424.822 401.352C425.646 399.638 426.791 398.303 428.259 397.347C429.737 396.381 431.46 395.898 433.43 395.898C434.566 395.898 435.688 396.087 436.796 396.466C437.904 396.845 438.913 397.46 439.822 398.312C440.731 399.155 441.455 400.273 441.995 401.665C442.535 403.057 442.805 404.771 442.805 406.807V408.227H425.987V405.33H439.396C439.396 404.098 439.149 403 438.657 402.034C438.174 401.068 437.483 400.306 436.583 399.747C435.693 399.188 434.642 398.909 433.43 398.909C432.094 398.909 430.939 399.241 429.964 399.903C428.998 400.557 428.254 401.409 427.734 402.46C427.213 403.511 426.952 404.638 426.952 405.841V407.773C426.952 409.42 427.237 410.817 427.805 411.963C428.382 413.099 429.183 413.966 430.205 414.562C431.228 415.15 432.416 415.443 433.771 415.443C434.651 415.443 435.447 415.32 436.157 415.074C436.877 414.818 437.497 414.439 438.018 413.938C438.539 413.426 438.941 412.792 439.225 412.034L442.464 412.943C442.123 414.042 441.55 415.008 440.745 415.841C439.94 416.665 438.946 417.309 437.762 417.773C436.578 418.227 435.248 418.455 433.771 418.455Z" fill="white"/>
</g>
<g filter="url(#filter1_i_5_9)">
<rect x="517" y="291" width="405" height="221" rx="40" fill="#31BBB3"/>
<path d="M532.523 418V388.909H542.352C544.625 388.909 546.491 389.297 547.949 390.074C549.407 390.841 550.487 391.897 551.188 393.241C551.888 394.586 552.239 396.116 552.239 397.83C552.239 399.544 551.888 401.063 551.188 402.389C550.487 403.715 549.412 404.757 547.963 405.514C546.514 406.262 544.663 406.636 542.409 406.636H534.455V403.455H542.295C543.848 403.455 545.098 403.227 546.045 402.773C547.002 402.318 547.693 401.674 548.119 400.841C548.555 399.998 548.773 398.994 548.773 397.83C548.773 396.665 548.555 395.647 548.119 394.776C547.684 393.904 546.988 393.232 546.031 392.759C545.075 392.276 543.811 392.034 542.239 392.034H536.045V418H532.523ZM546.216 404.932L553.375 418H549.284L542.239 404.932H546.216ZM566.567 418.455C564.465 418.455 562.652 417.991 561.127 417.062C559.612 416.125 558.442 414.818 557.619 413.142C556.804 411.456 556.397 409.496 556.397 407.261C556.397 405.027 556.804 403.057 557.619 401.352C558.442 399.638 559.588 398.303 561.056 397.347C562.533 396.381 564.257 395.898 566.227 395.898C567.363 395.898 568.485 396.087 569.593 396.466C570.701 396.845 571.71 397.46 572.619 398.312C573.528 399.155 574.252 400.273 574.792 401.665C575.332 403.057 575.602 404.771 575.602 406.807V408.227H558.783V405.33H572.192C572.192 404.098 571.946 403 571.454 402.034C570.971 401.068 570.28 400.306 569.38 399.747C568.49 399.188 567.439 398.909 566.227 398.909C564.891 398.909 563.736 399.241 562.761 399.903C561.795 400.557 561.051 401.409 560.531 402.46C560.01 403.511 559.749 404.638 559.749 405.841V407.773C559.749 409.42 560.033 410.817 560.602 411.963C561.179 413.099 561.979 413.966 563.002 414.562C564.025 415.15 565.213 415.443 566.567 415.443C567.448 415.443 568.244 415.32 568.954 415.074C569.674 414.818 570.294 414.439 570.815 413.938C571.335 413.426 571.738 412.792 572.022 412.034L575.261 412.943C574.92 414.042 574.347 415.008 573.542 415.841C572.737 416.665 571.743 417.309 570.559 417.773C569.375 418.227 568.045 418.455 566.567 418.455ZM580.701 396.182H584.053V419.591C584.053 420.936 583.821 422.1 583.357 423.085C582.903 424.07 582.211 424.832 581.283 425.372C580.365 425.912 579.205 426.182 577.803 426.182C577.69 426.182 577.576 426.182 577.462 426.182C577.349 426.182 577.235 426.182 577.121 426.182V423.057C577.235 423.057 577.339 423.057 577.434 423.057C577.529 423.057 577.633 423.057 577.746 423.057C578.769 423.057 579.517 422.754 579.991 422.148C580.464 421.551 580.701 420.699 580.701 419.591V396.182ZM582.349 392.545C581.695 392.545 581.132 392.323 580.658 391.878C580.194 391.433 579.962 390.898 579.962 390.273C579.962 389.648 580.194 389.113 580.658 388.668C581.132 388.223 581.695 388 582.349 388C583.002 388 583.561 388.223 584.025 388.668C584.498 389.113 584.735 389.648 584.735 390.273C584.735 390.898 584.498 391.433 584.025 391.878C583.561 392.323 583.002 392.545 582.349 392.545ZM599.057 418.455C597.087 418.455 595.359 417.986 593.872 417.048C592.395 416.111 591.24 414.799 590.406 413.114C589.582 411.428 589.17 409.458 589.17 407.205C589.17 404.932 589.582 402.948 590.406 401.253C591.24 399.558 592.395 398.241 593.872 397.304C595.359 396.366 597.087 395.898 599.057 395.898C601.027 395.898 602.75 396.366 604.227 397.304C605.714 398.241 606.869 399.558 607.693 401.253C608.527 402.948 608.943 404.932 608.943 407.205C608.943 409.458 608.527 411.428 607.693 413.114C606.869 414.799 605.714 416.111 604.227 417.048C602.75 417.986 601.027 418.455 599.057 418.455ZM599.057 415.443C600.553 415.443 601.784 415.06 602.75 414.293C603.716 413.526 604.431 412.517 604.895 411.267C605.359 410.017 605.591 408.663 605.591 407.205C605.591 405.746 605.359 404.387 604.895 403.128C604.431 401.868 603.716 400.85 602.75 400.074C601.784 399.297 600.553 398.909 599.057 398.909C597.561 398.909 596.33 399.297 595.364 400.074C594.398 400.85 593.683 401.868 593.219 403.128C592.755 404.387 592.523 405.746 592.523 407.205C592.523 408.663 592.755 410.017 593.219 411.267C593.683 412.517 594.398 413.526 595.364 414.293C596.33 415.06 597.561 415.443 599.057 415.443ZM614.06 418V396.182H617.413V418H614.06ZM615.765 392.545C615.112 392.545 614.548 392.323 614.075 391.878C613.611 391.433 613.379 390.898 613.379 390.273C613.379 389.648 613.611 389.113 614.075 388.668C614.548 388.223 615.112 388 615.765 388C616.418 388 616.977 388.223 617.441 388.668C617.915 389.113 618.151 389.648 618.151 390.273C618.151 390.898 617.915 391.433 617.441 391.878C616.977 392.323 616.418 392.545 615.765 392.545ZM626.905 404.875V418H623.553V396.182H626.791V399.591H627.075C627.587 398.483 628.363 397.593 629.405 396.92C630.446 396.239 631.791 395.898 633.439 395.898C634.916 395.898 636.209 396.201 637.317 396.807C638.425 397.403 639.286 398.312 639.902 399.534C640.518 400.746 640.825 402.28 640.825 404.136V418H637.473V404.364C637.473 402.65 637.028 401.314 636.138 400.358C635.248 399.392 634.026 398.909 632.473 398.909C631.403 398.909 630.446 399.141 629.604 399.605C628.77 400.069 628.112 400.746 627.629 401.636C627.146 402.527 626.905 403.606 626.905 404.875ZM655.19 418.455C653.371 418.455 651.766 417.995 650.374 417.077C648.982 416.149 647.893 414.842 647.107 413.156C646.321 411.461 645.928 409.458 645.928 407.148C645.928 404.856 646.321 402.867 647.107 401.182C647.893 399.496 648.987 398.194 650.388 397.276C651.79 396.357 653.409 395.898 655.246 395.898C656.667 395.898 657.789 396.134 658.613 396.608C659.446 397.072 660.081 397.602 660.516 398.199C660.961 398.786 661.307 399.269 661.553 399.648H661.837V388.909H665.19V418H661.951V414.648H661.553C661.307 415.045 660.957 415.547 660.502 416.153C660.048 416.75 659.399 417.285 658.556 417.759C657.713 418.223 656.591 418.455 655.19 418.455ZM655.644 415.443C656.989 415.443 658.125 415.093 659.053 414.392C659.981 413.682 660.687 412.702 661.17 411.452C661.653 410.192 661.894 408.739 661.894 407.091C661.894 405.462 661.657 404.037 661.184 402.815C660.71 401.584 660.01 400.628 659.082 399.946C658.154 399.255 657.008 398.909 655.644 398.909C654.224 398.909 653.04 399.274 652.093 400.003C651.156 400.723 650.45 401.703 649.977 402.943C649.513 404.174 649.281 405.557 649.281 407.091C649.281 408.644 649.517 410.055 649.991 411.324C650.474 412.583 651.184 413.587 652.121 414.335C653.068 415.074 654.243 415.443 655.644 415.443ZM671.795 418V396.182H675.033V399.477H675.261C675.658 398.398 676.378 397.522 677.42 396.849C678.461 396.177 679.636 395.841 680.942 395.841C681.189 395.841 681.496 395.846 681.866 395.855C682.235 395.865 682.514 395.879 682.704 395.898V399.307C682.59 399.278 682.33 399.236 681.923 399.179C681.525 399.113 681.103 399.08 680.658 399.08C679.598 399.08 678.651 399.302 677.817 399.747C676.994 400.183 676.34 400.789 675.857 401.565C675.384 402.332 675.147 403.208 675.147 404.193V418H671.795ZM695.161 418.455C693.059 418.455 691.246 417.991 689.721 417.062C688.206 416.125 687.036 414.818 686.212 413.142C685.398 411.456 684.991 409.496 684.991 407.261C684.991 405.027 685.398 403.057 686.212 401.352C687.036 399.638 688.182 398.303 689.65 397.347C691.127 396.381 692.851 395.898 694.82 395.898C695.957 395.898 697.079 396.087 698.187 396.466C699.295 396.845 700.303 397.46 701.212 398.312C702.121 399.155 702.846 400.273 703.386 401.665C703.925 403.057 704.195 404.771 704.195 406.807V408.227H687.377V405.33H700.786C700.786 404.098 700.54 403 700.048 402.034C699.565 401.068 698.873 400.306 697.974 399.747C697.084 399.188 696.032 398.909 694.82 398.909C693.485 398.909 692.33 399.241 691.354 399.903C690.388 400.557 689.645 401.409 689.124 402.46C688.603 403.511 688.343 404.638 688.343 405.841V407.773C688.343 409.42 688.627 410.817 689.195 411.963C689.773 413.099 690.573 413.966 691.596 414.562C692.619 415.15 693.807 415.443 695.161 415.443C696.042 415.443 696.837 415.32 697.548 415.074C698.267 414.818 698.888 414.439 699.408 413.938C699.929 413.426 700.332 412.792 700.616 412.034L703.854 412.943C703.513 414.042 702.941 415.008 702.136 415.841C701.331 416.665 700.336 417.309 699.153 417.773C697.969 418.227 696.638 418.455 695.161 418.455ZM734.295 409.08V396.182H737.647V418H734.295V414.307H734.067C733.556 415.415 732.761 416.357 731.681 417.134C730.602 417.901 729.238 418.284 727.59 418.284C726.227 418.284 725.014 417.986 723.954 417.389C722.893 416.783 722.06 415.874 721.454 414.662C720.848 413.44 720.545 411.902 720.545 410.045V396.182H723.897V409.818C723.897 411.409 724.342 412.678 725.232 413.625C726.132 414.572 727.278 415.045 728.67 415.045C729.503 415.045 730.351 414.832 731.212 414.406C732.084 413.98 732.813 413.327 733.4 412.446C733.996 411.565 734.295 410.443 734.295 409.08ZM747.139 404.875V418H743.787V396.182H747.026V399.591H747.31C747.821 398.483 748.598 397.593 749.639 396.92C750.681 396.239 752.026 395.898 753.673 395.898C755.151 395.898 756.443 396.201 757.551 396.807C758.659 397.403 759.521 398.312 760.136 399.534C760.752 400.746 761.06 402.28 761.06 404.136V418H757.707V404.364C757.707 402.65 757.262 401.314 756.372 400.358C755.482 399.392 754.26 398.909 752.707 398.909C751.637 398.909 750.681 399.141 749.838 399.605C749.005 400.069 748.347 400.746 747.864 401.636C747.381 402.527 747.139 403.606 747.139 404.875ZM776.333 418.455C774.231 418.455 772.417 417.991 770.893 417.062C769.378 416.125 768.208 414.818 767.384 413.142C766.57 411.456 766.163 409.496 766.163 407.261C766.163 405.027 766.57 403.057 767.384 401.352C768.208 399.638 769.354 398.303 770.822 397.347C772.299 396.381 774.022 395.898 775.992 395.898C777.129 395.898 778.251 396.087 779.359 396.466C780.467 396.845 781.475 397.46 782.384 398.312C783.293 399.155 784.018 400.273 784.558 401.665C785.097 403.057 785.367 404.771 785.367 406.807V408.227H768.549V405.33H781.958C781.958 404.098 781.712 403 781.219 402.034C780.737 401.068 780.045 400.306 779.146 399.747C778.255 399.188 777.204 398.909 775.992 398.909C774.657 398.909 773.502 399.241 772.526 399.903C771.56 400.557 770.817 401.409 770.296 402.46C769.775 403.511 769.515 404.638 769.515 405.841V407.773C769.515 409.42 769.799 410.817 770.367 411.963C770.945 413.099 771.745 413.966 772.768 414.562C773.79 415.15 774.979 415.443 776.333 415.443C777.214 415.443 778.009 415.32 778.719 415.074C779.439 414.818 780.059 414.439 780.58 413.938C781.101 413.426 781.504 412.792 781.788 412.034L785.026 412.943C784.685 414.042 784.112 415.008 783.308 415.841C782.503 416.665 781.508 417.309 780.325 417.773C779.141 418.227 777.81 418.455 776.333 418.455ZM801.717 426.182V396.182H804.955V399.648H805.353C805.599 399.269 805.94 398.786 806.376 398.199C806.821 397.602 807.455 397.072 808.279 396.608C809.112 396.134 810.239 395.898 811.66 395.898C813.497 395.898 815.116 396.357 816.518 397.276C817.919 398.194 819.013 399.496 819.799 401.182C820.585 402.867 820.978 404.856 820.978 407.148C820.978 409.458 820.585 411.461 819.799 413.156C819.013 414.842 817.924 416.149 816.532 417.077C815.14 417.995 813.535 418.455 811.717 418.455C810.315 418.455 809.193 418.223 808.35 417.759C807.507 417.285 806.859 416.75 806.404 416.153C805.95 415.547 805.599 415.045 805.353 414.648H805.069V426.182H801.717ZM805.012 407.091C805.012 408.739 805.254 410.192 805.737 411.452C806.219 412.702 806.925 413.682 807.853 414.392C808.781 415.093 809.917 415.443 811.262 415.443C812.664 415.443 813.833 415.074 814.771 414.335C815.718 413.587 816.428 412.583 816.901 411.324C817.384 410.055 817.626 408.644 817.626 407.091C817.626 405.557 817.389 404.174 816.915 402.943C816.451 401.703 815.746 400.723 814.799 400.003C813.862 399.274 812.683 398.909 811.262 398.909C809.898 398.909 808.753 399.255 807.825 399.946C806.897 400.628 806.196 401.584 805.722 402.815C805.249 404.037 805.012 405.462 805.012 407.091ZM832.512 418.511C831.129 418.511 829.875 418.251 828.748 417.73C827.621 417.2 826.726 416.438 826.063 415.443C825.4 414.439 825.069 413.227 825.069 411.807C825.069 410.557 825.315 409.544 825.808 408.767C826.3 407.981 826.958 407.366 827.782 406.92C828.606 406.475 829.515 406.144 830.509 405.926C831.513 405.699 832.522 405.519 833.535 405.386C834.861 405.216 835.935 405.088 836.759 405.003C837.593 404.908 838.199 404.752 838.577 404.534C838.966 404.316 839.16 403.937 839.16 403.398V403.284C839.16 401.883 838.776 400.794 838.009 400.017C837.252 399.241 836.101 398.852 834.558 398.852C832.957 398.852 831.702 399.203 830.793 399.903C829.884 400.604 829.245 401.352 828.876 402.148L825.694 401.011C826.262 399.686 827.02 398.653 827.967 397.915C828.923 397.167 829.965 396.646 831.092 396.352C832.228 396.049 833.345 395.898 834.444 395.898C835.145 395.898 835.95 395.983 836.859 396.153C837.777 396.314 838.663 396.651 839.515 397.162C840.377 397.673 841.092 398.445 841.66 399.477C842.228 400.509 842.512 401.892 842.512 403.625V418H839.16V415.045H838.989C838.762 415.519 838.383 416.026 837.853 416.565C837.323 417.105 836.617 417.564 835.737 417.943C834.856 418.322 833.781 418.511 832.512 418.511ZM833.023 415.5C834.349 415.5 835.467 415.24 836.376 414.719C837.294 414.198 837.986 413.526 838.45 412.702C838.923 411.878 839.16 411.011 839.16 410.102V407.034C839.018 407.205 838.705 407.361 838.222 407.503C837.749 407.635 837.2 407.754 836.575 407.858C835.959 407.953 835.358 408.038 834.771 408.114C834.193 408.18 833.724 408.237 833.364 408.284C832.493 408.398 831.679 408.582 830.921 408.838C830.173 409.084 829.567 409.458 829.103 409.96C828.648 410.453 828.421 411.125 828.421 411.977C828.421 413.142 828.852 414.023 829.714 414.619C830.585 415.206 831.688 415.5 833.023 415.5ZM848.631 418V396.182H851.869V399.477H852.097C852.494 398.398 853.214 397.522 854.256 396.849C855.297 396.177 856.472 395.841 857.778 395.841C858.025 395.841 858.332 395.846 858.702 395.855C859.071 395.865 859.35 395.879 859.54 395.898V399.307C859.426 399.278 859.166 399.236 858.759 399.179C858.361 399.113 857.939 399.08 857.494 399.08C856.434 399.08 855.487 399.302 854.653 399.747C853.83 400.183 853.176 400.789 852.693 401.565C852.22 402.332 851.983 403.208 851.983 404.193V418H848.631ZM874.369 396.182V399.023H863.062V396.182H874.369ZM866.358 390.955H869.71V411.75C869.71 412.697 869.848 413.407 870.122 413.881C870.406 414.345 870.766 414.657 871.202 414.818C871.647 414.97 872.116 415.045 872.608 415.045C872.977 415.045 873.28 415.027 873.517 414.989C873.754 414.941 873.943 414.903 874.085 414.875L874.767 417.886C874.54 417.972 874.223 418.057 873.815 418.142C873.408 418.237 872.892 418.284 872.267 418.284C871.32 418.284 870.392 418.08 869.483 417.673C868.583 417.266 867.835 416.646 867.239 415.812C866.652 414.979 866.358 413.928 866.358 412.659V390.955ZM879.412 418V396.182H882.764V418H879.412ZM881.116 392.545C880.463 392.545 879.9 392.323 879.426 391.878C878.962 391.433 878.73 390.898 878.73 390.273C878.73 389.648 878.962 389.113 879.426 388.668C879.9 388.223 880.463 388 881.116 388C881.77 388 882.329 388.223 882.793 388.668C883.266 389.113 883.503 389.648 883.503 390.273C883.503 390.898 883.266 391.433 882.793 391.878C882.329 392.323 881.77 392.545 881.116 392.545ZM898.052 418.455C895.95 418.455 894.136 417.991 892.612 417.062C891.096 416.125 889.927 414.818 889.103 413.142C888.289 411.456 887.881 409.496 887.881 407.261C887.881 405.027 888.289 403.057 889.103 401.352C889.927 399.638 891.073 398.303 892.54 397.347C894.018 396.381 895.741 395.898 897.711 395.898C898.847 395.898 899.969 396.087 901.077 396.466C902.185 396.845 903.194 397.46 904.103 398.312C905.012 399.155 905.737 400.273 906.276 401.665C906.816 403.057 907.086 404.771 907.086 406.807V408.227H890.268V405.33H903.677C903.677 404.098 903.431 403 902.938 402.034C902.455 401.068 901.764 400.306 900.864 399.747C899.974 399.188 898.923 398.909 897.711 398.909C896.376 398.909 895.22 399.241 894.245 399.903C893.279 400.557 892.536 401.409 892.015 402.46C891.494 403.511 891.234 404.638 891.234 405.841V407.773C891.234 409.42 891.518 410.817 892.086 411.963C892.664 413.099 893.464 413.966 894.487 414.562C895.509 415.15 896.698 415.443 898.052 415.443C898.933 415.443 899.728 415.32 900.438 415.074C901.158 414.818 901.778 414.439 902.299 413.938C902.82 413.426 903.222 412.792 903.506 412.034L906.745 412.943C906.404 414.042 905.831 415.008 905.026 415.841C904.221 416.665 903.227 417.309 902.043 417.773C900.86 418.227 899.529 418.455 898.052 418.455Z" fill="white"/>
</g>
<g filter="url(#filter2_i_5_9)">
<path d="M951 331C951 308.909 968.909 291 991 291H1308C1330.09 291 1348 308.909 1348 331V469C1348 491.091 1330.09 509 1308 509H991C968.909 509 951 491.091 951 469V331Z" fill="#8523D2"/>
<path d="M1007.93 395H1004.41C1004.2 393.987 1003.84 393.097 1003.32 392.33C1002.8 391.562 1002.18 390.919 1001.44 390.398C1000.71 389.867 999.902 389.47 999.011 389.205C998.121 388.939 997.193 388.807 996.227 388.807C994.466 388.807 992.87 389.252 991.44 390.142C990.02 391.032 988.888 392.344 988.045 394.077C987.212 395.81 986.795 397.936 986.795 400.455C986.795 402.973 987.212 405.099 988.045 406.832C988.888 408.565 990.02 409.877 991.44 410.767C992.87 411.657 994.466 412.102 996.227 412.102C997.193 412.102 998.121 411.97 999.011 411.705C999.902 411.439 1000.71 411.046 1001.44 410.526C1002.18 409.995 1002.8 409.347 1003.32 408.58C1003.84 407.803 1004.2 406.913 1004.41 405.909H1007.93C1007.67 407.396 1007.18 408.726 1006.48 409.901C1005.78 411.075 1004.91 412.074 1003.87 412.898C1002.83 413.712 1001.66 414.332 1000.36 414.759C999.073 415.185 997.695 415.398 996.227 415.398C993.746 415.398 991.54 414.792 989.608 413.58C987.676 412.367 986.156 410.644 985.048 408.409C983.94 406.174 983.386 403.523 983.386 400.455C983.386 397.386 983.94 394.735 985.048 392.5C986.156 390.265 987.676 388.542 989.608 387.33C991.54 386.117 993.746 385.511 996.227 385.511C997.695 385.511 999.073 385.724 1000.36 386.151C1001.66 386.577 1002.83 387.202 1003.87 388.026C1004.91 388.84 1005.78 389.834 1006.48 391.009C1007.18 392.173 1007.67 393.504 1007.93 395ZM1013.17 415V393.182H1016.41V396.477H1016.64C1017.03 395.398 1017.75 394.522 1018.79 393.849C1019.84 393.177 1021.01 392.841 1022.32 392.841C1022.56 392.841 1022.87 392.846 1023.24 392.855C1023.61 392.865 1023.89 392.879 1024.08 392.898V396.307C1023.97 396.278 1023.7 396.236 1023.3 396.179C1022.9 396.113 1022.48 396.08 1022.03 396.08C1020.97 396.08 1020.03 396.302 1019.19 396.747C1018.37 397.183 1017.72 397.789 1017.23 398.565C1016.76 399.332 1016.52 400.208 1016.52 401.193V415H1013.17ZM1036.54 415.455C1034.43 415.455 1032.62 414.991 1031.1 414.062C1029.58 413.125 1028.41 411.818 1027.59 410.142C1026.77 408.456 1026.37 406.496 1026.37 404.261C1026.37 402.027 1026.77 400.057 1027.59 398.352C1028.41 396.638 1029.56 395.303 1031.02 394.347C1032.5 393.381 1034.23 392.898 1036.2 392.898C1037.33 392.898 1038.45 393.087 1039.56 393.466C1040.67 393.845 1041.68 394.46 1042.59 395.312C1043.5 396.155 1044.22 397.273 1044.76 398.665C1045.3 400.057 1045.57 401.771 1045.57 403.807V405.227H1028.75V402.33H1042.16C1042.16 401.098 1041.92 400 1041.42 399.034C1040.94 398.068 1040.25 397.306 1039.35 396.747C1038.46 396.188 1037.41 395.909 1036.2 395.909C1034.86 395.909 1033.7 396.241 1032.73 396.903C1031.76 397.557 1031.02 398.409 1030.5 399.46C1029.98 400.511 1029.72 401.638 1029.72 402.841V404.773C1029.72 406.42 1030 407.817 1030.57 408.963C1031.15 410.099 1031.95 410.966 1032.97 411.562C1033.99 412.15 1035.18 412.443 1036.54 412.443C1037.42 412.443 1038.21 412.32 1038.92 412.074C1039.64 411.818 1040.26 411.439 1040.78 410.938C1041.3 410.426 1041.71 409.792 1041.99 409.034L1045.23 409.943C1044.89 411.042 1044.32 412.008 1043.51 412.841C1042.71 413.665 1041.71 414.309 1040.53 414.773C1039.34 415.227 1038.01 415.455 1036.54 415.455ZM1034.49 390.227L1037.96 383.636H1041.88L1037.45 390.227H1034.49ZM1059.82 415.455C1057.72 415.455 1055.9 414.991 1054.38 414.062C1052.86 413.125 1051.69 411.818 1050.87 410.142C1050.05 408.456 1049.65 406.496 1049.65 404.261C1049.65 402.027 1050.05 400.057 1050.87 398.352C1051.69 396.638 1052.84 395.303 1054.31 394.347C1055.78 393.381 1057.51 392.898 1059.48 392.898C1060.61 392.898 1061.74 393.087 1062.84 393.466C1063.95 393.845 1064.96 394.46 1065.87 395.312C1066.78 396.155 1067.5 397.273 1068.04 398.665C1068.58 400.057 1068.85 401.771 1068.85 403.807V405.227H1052.03V402.33H1065.44C1065.44 401.098 1065.2 400 1064.7 399.034C1064.22 398.068 1063.53 397.306 1062.63 396.747C1061.74 396.188 1060.69 395.909 1059.48 395.909C1058.14 395.909 1056.99 396.241 1056.01 396.903C1055.04 397.557 1054.3 398.409 1053.78 399.46C1053.26 400.511 1053 401.638 1053 402.841V404.773C1053 406.42 1053.28 407.817 1053.85 408.963C1054.43 410.099 1055.23 410.966 1056.25 411.562C1057.27 412.15 1058.46 412.443 1059.82 412.443C1060.7 412.443 1061.49 412.32 1062.2 412.074C1062.92 411.818 1063.54 411.439 1064.06 410.938C1064.59 410.426 1064.99 409.792 1065.27 409.034L1068.51 409.943C1068.17 411.042 1067.6 412.008 1066.79 412.841C1065.99 413.665 1064.99 414.309 1063.81 414.773C1062.63 415.227 1061.29 415.455 1059.82 415.455ZM1073.95 415V393.182H1077.19V396.477H1077.42C1077.81 395.398 1078.53 394.522 1079.58 393.849C1080.62 393.177 1081.79 392.841 1083.1 392.841C1083.34 392.841 1083.65 392.846 1084.02 392.855C1084.39 392.865 1084.67 392.879 1084.86 392.898V396.307C1084.75 396.278 1084.49 396.236 1084.08 396.179C1083.68 396.113 1083.26 396.08 1082.81 396.08C1081.75 396.08 1080.81 396.302 1079.97 396.747C1079.15 397.183 1078.5 397.789 1078.01 398.565C1077.54 399.332 1077.3 400.208 1077.3 401.193V415H1073.95ZM1113.83 406.08V393.182H1117.19V415H1113.83V411.307H1113.61C1113.1 412.415 1112.3 413.357 1111.22 414.134C1110.14 414.901 1108.78 415.284 1107.13 415.284C1105.77 415.284 1104.55 414.986 1103.49 414.389C1102.43 413.783 1101.6 412.874 1100.99 411.662C1100.39 410.44 1100.08 408.902 1100.08 407.045V393.182H1103.44V406.818C1103.44 408.409 1103.88 409.678 1104.77 410.625C1105.67 411.572 1106.82 412.045 1108.21 412.045C1109.04 412.045 1109.89 411.832 1110.75 411.406C1111.62 410.98 1112.35 410.327 1112.94 409.446C1113.54 408.565 1113.83 407.443 1113.83 406.08ZM1126.68 401.875V415H1123.33V393.182H1126.56V396.591H1126.85C1127.36 395.483 1128.14 394.593 1129.18 393.92C1130.22 393.239 1131.56 392.898 1133.21 392.898C1134.69 392.898 1135.98 393.201 1137.09 393.807C1138.2 394.403 1139.06 395.312 1139.68 396.534C1140.29 397.746 1140.6 399.28 1140.6 401.136V415H1137.25V401.364C1137.25 399.65 1136.8 398.314 1135.91 397.358C1135.02 396.392 1133.8 395.909 1132.25 395.909C1131.18 395.909 1130.22 396.141 1129.38 396.605C1128.54 397.069 1127.89 397.746 1127.4 398.636C1126.92 399.527 1126.68 400.606 1126.68 401.875ZM1155.87 415.455C1153.77 415.455 1151.96 414.991 1150.43 414.062C1148.92 413.125 1147.75 411.818 1146.92 410.142C1146.11 408.456 1145.7 406.496 1145.7 404.261C1145.7 402.027 1146.11 400.057 1146.92 398.352C1147.75 396.638 1148.89 395.303 1150.36 394.347C1151.84 393.381 1153.56 392.898 1155.53 392.898C1156.67 392.898 1157.79 393.087 1158.9 393.466C1160.01 393.845 1161.01 394.46 1161.92 395.312C1162.83 396.155 1163.56 397.273 1164.1 398.665C1164.64 400.057 1164.91 401.771 1164.91 403.807V405.227H1148.09V402.33H1161.5C1161.5 401.098 1161.25 400 1160.76 399.034C1160.28 398.068 1159.58 397.306 1158.68 396.747C1157.79 396.188 1156.74 395.909 1155.53 395.909C1154.2 395.909 1153.04 396.241 1152.07 396.903C1151.1 397.557 1150.36 398.409 1149.84 399.46C1149.31 400.511 1149.05 401.638 1149.05 402.841V404.773C1149.05 406.42 1149.34 407.817 1149.91 408.963C1150.48 410.099 1151.28 410.966 1152.31 411.562C1153.33 412.15 1154.52 412.443 1155.87 412.443C1156.75 412.443 1157.55 412.32 1158.26 412.074C1158.98 411.818 1159.6 411.439 1160.12 410.938C1160.64 410.426 1161.04 409.792 1161.33 409.034L1164.57 409.943C1164.22 411.042 1163.65 412.008 1162.85 412.841C1162.04 413.665 1161.05 414.309 1159.86 414.773C1158.68 415.227 1157.35 415.455 1155.87 415.455ZM1184.61 401.875V415H1181.26V385.909H1184.61V396.591H1184.89C1185.4 395.464 1186.17 394.569 1187.19 393.906C1188.23 393.234 1189.6 392.898 1191.31 392.898C1192.8 392.898 1194.1 393.196 1195.22 393.793C1196.34 394.38 1197.2 395.284 1197.82 396.506C1198.44 397.718 1198.76 399.261 1198.76 401.136V415H1195.4V401.364C1195.4 399.631 1194.95 398.291 1194.05 397.344C1193.16 396.387 1191.93 395.909 1190.35 395.909C1189.25 395.909 1188.26 396.141 1187.39 396.605C1186.53 397.069 1185.85 397.746 1185.35 398.636C1184.85 399.527 1184.61 400.606 1184.61 401.875ZM1204.89 415V393.182H1208.24V415H1204.89ZM1206.59 389.545C1205.94 389.545 1205.38 389.323 1204.9 388.878C1204.44 388.433 1204.21 387.898 1204.21 387.273C1204.21 386.648 1204.44 386.113 1204.9 385.668C1205.38 385.223 1205.94 385 1206.59 385C1207.25 385 1207.81 385.223 1208.27 385.668C1208.74 386.113 1208.98 386.648 1208.98 387.273C1208.98 387.898 1208.74 388.433 1208.27 388.878C1207.81 389.323 1207.25 389.545 1206.59 389.545ZM1229.84 398.068L1226.82 398.92C1226.63 398.419 1226.36 397.931 1225.99 397.457C1225.63 396.974 1225.13 396.577 1224.51 396.264C1223.88 395.952 1223.08 395.795 1222.11 395.795C1220.77 395.795 1219.66 396.103 1218.77 396.719C1217.89 397.325 1217.45 398.097 1217.45 399.034C1217.45 399.867 1217.75 400.526 1218.36 401.009C1218.96 401.491 1219.91 401.894 1221.2 402.216L1224.44 403.011C1226.39 403.485 1227.84 404.209 1228.8 405.185C1229.75 406.151 1230.23 407.396 1230.23 408.92C1230.23 410.17 1229.87 411.288 1229.15 412.273C1228.44 413.258 1227.45 414.034 1226.17 414.602C1224.89 415.17 1223.41 415.455 1221.71 415.455C1219.48 415.455 1217.64 414.972 1216.18 414.006C1214.73 413.04 1213.8 411.629 1213.41 409.773L1216.6 408.977C1216.9 410.152 1217.47 411.032 1218.32 411.619C1219.17 412.206 1220.28 412.5 1221.65 412.5C1223.22 412.5 1224.46 412.169 1225.38 411.506C1226.3 410.833 1226.77 410.028 1226.77 409.091C1226.77 408.333 1226.5 407.699 1225.97 407.188C1225.44 406.667 1224.63 406.278 1223.53 406.023L1219.89 405.17C1217.89 404.697 1216.43 403.963 1215.49 402.969C1214.56 401.965 1214.1 400.71 1214.1 399.205C1214.1 397.973 1214.44 396.884 1215.13 395.938C1215.83 394.991 1216.79 394.247 1217.99 393.707C1219.2 393.168 1220.57 392.898 1222.11 392.898C1224.27 392.898 1225.96 393.371 1227.19 394.318C1228.43 395.265 1229.31 396.515 1229.84 398.068ZM1244.77 393.182V396.023H1233.46V393.182H1244.77ZM1236.76 387.955H1240.11V408.75C1240.11 409.697 1240.25 410.407 1240.52 410.881C1240.8 411.345 1241.16 411.657 1241.6 411.818C1242.05 411.97 1242.51 412.045 1243.01 412.045C1243.38 412.045 1243.68 412.027 1243.92 411.989C1244.15 411.941 1244.34 411.903 1244.48 411.875L1245.17 414.886C1244.94 414.972 1244.62 415.057 1244.21 415.142C1243.81 415.237 1243.29 415.284 1242.67 415.284C1241.72 415.284 1240.79 415.08 1239.88 414.673C1238.98 414.266 1238.23 413.646 1237.64 412.812C1237.05 411.979 1236.76 410.928 1236.76 409.659V387.955ZM1258.44 415.455C1256.47 415.455 1254.74 414.986 1253.25 414.048C1251.78 413.111 1250.62 411.799 1249.79 410.114C1248.97 408.428 1248.55 406.458 1248.55 404.205C1248.55 401.932 1248.97 399.948 1249.79 398.253C1250.62 396.558 1251.78 395.241 1253.25 394.304C1254.74 393.366 1256.47 392.898 1258.44 392.898C1260.41 392.898 1262.13 393.366 1263.61 394.304C1265.1 395.241 1266.25 396.558 1267.08 398.253C1267.91 399.948 1268.33 401.932 1268.33 404.205C1268.33 406.458 1267.91 408.428 1267.08 410.114C1266.25 411.799 1265.1 413.111 1263.61 414.048C1262.13 414.986 1260.41 415.455 1258.44 415.455ZM1258.44 412.443C1259.94 412.443 1261.17 412.06 1262.13 411.293C1263.1 410.526 1263.81 409.517 1264.28 408.267C1264.74 407.017 1264.97 405.663 1264.97 404.205C1264.97 402.746 1264.74 401.387 1264.28 400.128C1263.81 398.868 1263.1 397.85 1262.13 397.074C1261.17 396.297 1259.94 395.909 1258.44 395.909C1256.94 395.909 1255.71 396.297 1254.75 397.074C1253.78 397.85 1253.07 398.868 1252.6 400.128C1252.14 401.387 1251.91 402.746 1251.91 404.205C1251.91 405.663 1252.14 407.017 1252.6 408.267C1253.07 409.517 1253.78 410.526 1254.75 411.293C1255.71 412.06 1256.94 412.443 1258.44 412.443ZM1273.44 415V393.182H1276.8V415H1273.44ZM1275.15 389.545C1274.49 389.545 1273.93 389.323 1273.46 388.878C1272.99 388.433 1272.76 387.898 1272.76 387.273C1272.76 386.648 1272.99 386.113 1273.46 385.668C1273.93 385.223 1274.49 385 1275.15 385C1275.8 385 1276.36 385.223 1276.82 385.668C1277.3 386.113 1277.53 386.648 1277.53 387.273C1277.53 387.898 1277.3 388.433 1276.82 388.878C1276.36 389.323 1275.8 389.545 1275.15 389.545ZM1282.94 415V393.182H1286.17V396.477H1286.4C1286.8 395.398 1287.52 394.522 1288.56 393.849C1289.6 393.177 1290.78 392.841 1292.08 392.841C1292.33 392.841 1292.64 392.846 1293.01 392.855C1293.38 392.865 1293.66 392.879 1293.84 392.898V396.307C1293.73 396.278 1293.47 396.236 1293.06 396.179C1292.67 396.113 1292.24 396.08 1291.8 396.08C1290.74 396.08 1289.79 396.302 1288.96 396.747C1288.13 397.183 1287.48 397.789 1287 398.565C1286.52 399.332 1286.29 400.208 1286.29 401.193V415H1282.94ZM1306.3 415.455C1304.2 415.455 1302.39 414.991 1300.86 414.062C1299.35 413.125 1298.18 411.818 1297.35 410.142C1296.54 408.456 1296.13 406.496 1296.13 404.261C1296.13 402.027 1296.54 400.057 1297.35 398.352C1298.18 396.638 1299.32 395.303 1300.79 394.347C1302.27 393.381 1303.99 392.898 1305.96 392.898C1307.1 392.898 1308.22 393.087 1309.33 393.466C1310.44 393.845 1311.44 394.46 1312.35 395.312C1313.26 396.155 1313.99 397.273 1314.53 398.665C1315.07 400.057 1315.34 401.771 1315.34 403.807V405.227H1298.52V402.33H1311.93C1311.93 401.098 1311.68 400 1311.19 399.034C1310.71 398.068 1310.01 397.306 1309.11 396.747C1308.22 396.188 1307.17 395.909 1305.96 395.909C1304.63 395.909 1303.47 396.241 1302.5 396.903C1301.53 397.557 1300.79 398.409 1300.26 399.46C1299.74 400.511 1299.48 401.638 1299.48 402.841V404.773C1299.48 406.42 1299.77 407.817 1300.34 408.963C1300.91 410.099 1301.71 410.966 1302.74 411.562C1303.76 412.15 1304.95 412.443 1306.3 412.443C1307.18 412.443 1307.98 412.32 1308.69 412.074C1309.41 411.818 1310.03 411.439 1310.55 410.938C1311.07 410.426 1311.47 409.792 1311.76 409.034L1315 409.943C1314.65 411.042 1314.08 412.008 1313.28 412.841C1312.47 413.665 1311.48 414.309 1310.29 414.773C1309.11 415.227 1307.78 415.455 1306.3 415.455Z" fill="white"/>
</g>
<defs>
<filter id="filter0_i_5_9" x="79" y="291" width="409" height="225" filterUnits="userSpaceOnUse" color-interpolation-filters="sRGB">
<feFlood flood-opacity="0" result="BackgroundImageFix"/>
<feBlend mode="normal" in="SourceGraphic" in2="BackgroundImageFix" result="shape"/>
<feColorMatrix in="SourceAlpha" type="matrix" values="0 0 0 0 0 0 0 0 0 0 0 0 0 0 0 0 0 0 127 0" result="hardAlpha"/>
<feOffset dx="-4" dy="4"/>
<feGaussianBlur stdDeviation="2"/>
<feComposite in2="hardAlpha" operator="arithmetic" k2="-1" k3="1"/>
<feColorMatrix type="matrix" values="0 0 0 0 0 0 0 0 0 0 0 0 0 0 0 0 0 0 0.25 0"/>
<feBlend mode="normal" in2="shape" result="effect1_innerShadow_5_9"/>
</filter>
<filter id="filter1_i_5_9" x="513" y="291" width="409" height="225" filterUnits="userSpaceOnUse" color-interpolation-filters="sRGB">
<feFlood flood-opacity="0" result="BackgroundImageFix"/>
<feBlend mode="normal" in="SourceGraphic" in2="BackgroundImageFix" result="shape"/>
<feColorMatrix in="SourceAlpha" type="matrix" values="0 0 0 0 0 0 0 0 0 0 0 0 0 0 0 0 0 0 127 0" result="hardAlpha"/>
<feOffset dx="-4" dy="4"/>
<feGaussianBlur stdDeviation="2"/>
<feComposite in2="hardAlpha" operator="arithmetic" k2="-1" k3="1"/>
<feColorMatrix type="matrix" values="0 0 0 0 0 0 0 0 0 0 0 0 0 0 0 0 0 0 0.25 0"/>
<feBlend mode="normal" in2="shape" result="effect1_innerShadow_5_9"/>
</filter>
<filter id="filter2_i_5_9" x="947" y="291" width="401" height="222" filterUnits="userSpaceOnUse" color-interpolation-filters="sRGB">
<feFlood flood-opacity="0" result="BackgroundImageFix"/>
<feBlend mode="normal" in="SourceGraphic" in2="BackgroundImageFix" result="shape"/>
<feColorMatrix in="SourceAlpha" type="matrix" values="0 0 0 0 0 0 0 0 0 0 0 0 0 0 0 0 0 0 127 0" result="hardAlpha"/>
<feOffset dx="-4" dy="4"/>
<feGaussianBlur stdDeviation="2"/>
<feComposite in2="hardAlpha" operator="arithmetic" k2="-1" k3="1"/>
<feColorMatrix type="matrix" values="0 0 0 0 0 0 0 0 0 0 0 0 0 0 0 0 0 0 0.25 0"/>
<feBlend mode="normal" in2="shape" result="effect1_innerShadow_5_9"/>
</filter>
</defs>
</svg>
