<svg width="1440" height="1024" viewBox="0 0 1440 1024" fill="none" xmlns="http://www.w3.org/2000/svg">
<rect width="1440" height="1024" fill="white"/>
<path d="M271.273 289V195.909H327.455V205.909H282.545V237.364H324.545V247.364H282.545V279H328.182V289H271.273ZM357.045 247V289H346.318V219.182H356.682V230.091H357.591C359.227 226.545 361.712 223.697 365.045 221.545C368.379 219.364 372.682 218.273 377.955 218.273C382.682 218.273 386.818 219.242 390.364 221.182C393.909 223.091 396.667 226 398.636 229.909C400.606 233.788 401.591 238.697 401.591 244.636V289H390.864V245.364C390.864 239.879 389.439 235.606 386.591 232.545C383.742 229.455 379.833 227.909 374.864 227.909C371.439 227.909 368.379 228.652 365.682 230.136C363.015 231.621 360.909 233.788 359.364 236.636C357.818 239.485 357.045 242.939 357.045 247ZM477.739 290.636C473.314 290.636 469.299 289.803 465.693 288.136C462.087 286.439 459.223 284 457.102 280.818C454.981 277.606 453.92 273.727 453.92 269.182C453.92 265.182 454.708 261.939 456.284 259.455C457.86 256.939 459.966 254.97 462.602 253.545C465.239 252.121 468.148 251.061 471.33 250.364C474.542 249.636 477.769 249.061 481.011 248.636C485.254 248.091 488.693 247.682 491.33 247.409C493.996 247.106 495.936 246.606 497.148 245.909C498.39 245.212 499.011 244 499.011 242.273V241.909C499.011 237.424 497.784 233.939 495.33 231.455C492.905 228.97 489.223 227.727 484.284 227.727C479.163 227.727 475.148 228.848 472.239 231.091C469.33 233.333 467.284 235.727 466.102 238.273L455.92 234.636C457.739 230.394 460.163 227.091 463.193 224.727C466.254 222.333 469.587 220.667 473.193 219.727C476.83 218.758 480.405 218.273 483.92 218.273C486.163 218.273 488.739 218.545 491.648 219.091C494.587 219.606 497.42 220.682 500.148 222.318C502.905 223.955 505.193 226.424 507.011 229.727C508.83 233.03 509.739 237.455 509.739 243V289H499.011V279.545H498.466C497.739 281.061 496.527 282.682 494.83 284.409C493.133 286.136 490.875 287.606 488.057 288.818C485.239 290.03 481.799 290.636 477.739 290.636ZM479.375 281C483.617 281 487.193 280.167 490.102 278.5C493.042 276.833 495.254 274.682 496.739 272.045C498.254 269.409 499.011 266.636 499.011 263.727V253.909C498.557 254.455 497.557 254.955 496.011 255.409C494.496 255.833 492.739 256.212 490.739 256.545C488.769 256.848 486.845 257.121 484.966 257.364C483.117 257.576 481.617 257.758 480.466 257.909C477.678 258.273 475.072 258.864 472.648 259.682C470.254 260.47 468.314 261.667 466.83 263.273C465.375 264.848 464.648 267 464.648 269.727C464.648 273.455 466.027 276.273 468.784 278.182C471.572 280.061 475.102 281 479.375 281ZM559.682 219.182V228.273H523.5V219.182H559.682ZM534.045 202.455H544.773V269C544.773 272.03 545.212 274.303 546.091 275.818C547 277.303 548.152 278.303 549.545 278.818C550.97 279.303 552.47 279.545 554.045 279.545C555.227 279.545 556.197 279.485 556.955 279.364C557.712 279.212 558.318 279.091 558.773 279L560.955 288.636C560.227 288.909 559.212 289.182 557.909 289.455C556.606 289.758 554.955 289.909 552.955 289.909C549.924 289.909 546.955 289.258 544.045 287.955C541.167 286.652 538.773 284.667 536.864 282C534.985 279.333 534.045 275.97 534.045 271.909V202.455ZM606.182 219.182V228.273H570V219.182H606.182ZM580.545 202.455H591.273V269C591.273 272.03 591.712 274.303 592.591 275.818C593.5 277.303 594.652 278.303 596.045 278.818C597.47 279.303 598.97 279.545 600.545 279.545C601.727 279.545 602.697 279.485 603.455 279.364C604.212 279.212 604.818 279.091 605.273 279L607.455 288.636C606.727 288.909 605.712 289.182 604.409 289.455C603.106 289.758 601.455 289.909 599.455 289.909C596.424 289.909 593.455 289.258 590.545 287.955C587.667 286.652 585.273 284.667 583.364 282C581.485 279.333 580.545 275.97 580.545 271.909V202.455ZM650.841 290.455C644.114 290.455 638.311 288.97 633.432 286C628.583 283 624.841 278.818 622.205 273.455C619.598 268.061 618.295 261.788 618.295 254.636C618.295 247.485 619.598 241.182 622.205 235.727C624.841 230.242 628.508 225.97 633.205 222.909C637.932 219.818 643.447 218.273 649.75 218.273C653.386 218.273 656.977 218.879 660.523 220.091C664.068 221.303 667.295 223.273 670.205 226C673.114 228.697 675.432 232.273 677.159 236.727C678.886 241.182 679.75 246.667 679.75 253.182V257.727H625.932V248.455H668.841C668.841 244.515 668.053 241 666.477 237.909C664.932 234.818 662.72 232.379 659.841 230.591C656.992 228.803 653.629 227.909 649.75 227.909C645.477 227.909 641.78 228.97 638.659 231.091C635.568 233.182 633.189 235.909 631.523 239.273C629.856 242.636 629.023 246.242 629.023 250.091V256.273C629.023 261.545 629.932 266.015 631.75 269.682C633.598 273.318 636.159 276.091 639.432 278C642.705 279.879 646.508 280.818 650.841 280.818C653.659 280.818 656.205 280.424 658.477 279.636C660.78 278.818 662.765 277.606 664.432 276C666.098 274.364 667.386 272.333 668.295 269.909L678.659 272.818C677.568 276.333 675.735 279.424 673.159 282.091C670.583 284.727 667.402 286.788 663.614 288.273C659.826 289.727 655.568 290.455 650.841 290.455ZM706.795 247V289H696.068V219.182H706.432V230.091H707.341C708.977 226.545 711.462 223.697 714.795 221.545C718.129 219.364 722.432 218.273 727.705 218.273C732.432 218.273 736.568 219.242 740.114 221.182C743.659 223.091 746.417 226 748.386 229.909C750.356 233.788 751.341 238.697 751.341 244.636V289H740.614V245.364C740.614 239.879 739.189 235.606 736.341 232.545C733.492 229.455 729.583 227.909 724.614 227.909C721.189 227.909 718.129 228.652 715.432 230.136C712.765 231.621 710.659 233.788 709.114 236.636C707.568 239.485 706.795 242.939 706.795 247ZM801.307 219.182V228.273H765.125V219.182H801.307ZM775.67 202.455H786.398V269C786.398 272.03 786.837 274.303 787.716 275.818C788.625 277.303 789.777 278.303 791.17 278.818C792.595 279.303 794.095 279.545 795.67 279.545C796.852 279.545 797.822 279.485 798.58 279.364C799.337 279.212 799.943 279.091 800.398 279L802.58 288.636C801.852 288.909 800.837 289.182 799.534 289.455C798.231 289.758 796.58 289.909 794.58 289.909C791.549 289.909 788.58 289.258 785.67 287.955C782.792 286.652 780.398 284.667 778.489 282C776.61 279.333 775.67 275.97 775.67 271.909V202.455ZM845.966 290.455C839.239 290.455 833.436 288.97 828.557 286C823.708 283 819.966 278.818 817.33 273.455C814.723 268.061 813.42 261.788 813.42 254.636C813.42 247.485 814.723 241.182 817.33 235.727C819.966 230.242 823.633 225.97 828.33 222.909C833.057 219.818 838.572 218.273 844.875 218.273C848.511 218.273 852.102 218.879 855.648 220.091C859.193 221.303 862.42 223.273 865.33 226C868.239 228.697 870.557 232.273 872.284 236.727C874.011 241.182 874.875 246.667 874.875 253.182V257.727H821.057V248.455H863.966C863.966 244.515 863.178 241 861.602 237.909C860.057 234.818 857.845 232.379 854.966 230.591C852.117 228.803 848.754 227.909 844.875 227.909C840.602 227.909 836.905 228.97 833.784 231.091C830.693 233.182 828.314 235.909 826.648 239.273C824.981 242.636 824.148 246.242 824.148 250.091V256.273C824.148 261.545 825.057 266.015 826.875 269.682C828.723 273.318 831.284 276.091 834.557 278C837.83 279.879 841.633 280.818 845.966 280.818C848.784 280.818 851.33 280.424 853.602 279.636C855.905 278.818 857.89 277.606 859.557 276C861.223 274.364 862.511 272.333 863.42 269.909L873.784 272.818C872.693 276.333 870.86 279.424 868.284 282.091C865.708 284.727 862.527 286.788 858.739 288.273C854.951 289.727 850.693 290.455 845.966 290.455ZM953.557 290.455C947.739 290.455 942.602 288.985 938.148 286.045C933.693 283.076 930.208 278.894 927.693 273.5C925.178 268.076 923.92 261.667 923.92 254.273C923.92 246.939 925.178 240.576 927.693 235.182C930.208 229.788 933.708 225.621 938.193 222.682C942.678 219.742 947.86 218.273 953.739 218.273C958.284 218.273 961.875 219.03 964.511 220.545C967.178 222.03 969.208 223.727 970.602 225.636C972.027 227.515 973.133 229.061 973.92 230.273H974.83V195.909H985.557V289H975.193V278.273H973.92C973.133 279.545 972.011 281.152 970.557 283.091C969.102 285 967.027 286.712 964.33 288.227C961.633 289.712 958.042 290.455 953.557 290.455ZM955.011 280.818C959.314 280.818 962.951 279.697 965.92 277.455C968.89 275.182 971.148 272.045 972.693 268.045C974.239 264.015 975.011 259.364 975.011 254.091C975.011 248.879 974.254 244.318 972.739 240.409C971.223 236.47 968.981 233.409 966.011 231.227C963.042 229.015 959.375 227.909 955.011 227.909C950.466 227.909 946.678 229.076 943.648 231.409C940.648 233.712 938.39 236.848 936.875 240.818C935.39 244.758 934.648 249.182 934.648 254.091C934.648 259.061 935.405 263.576 936.92 267.636C938.466 271.667 940.739 274.879 943.739 277.273C946.769 279.636 950.527 280.818 955.011 280.818ZM1035.97 290.455C1029.24 290.455 1023.44 288.97 1018.56 286C1013.71 283 1009.97 278.818 1007.33 273.455C1004.72 268.061 1003.42 261.788 1003.42 254.636C1003.42 247.485 1004.72 241.182 1007.33 235.727C1009.97 230.242 1013.63 225.97 1018.33 222.909C1023.06 219.818 1028.57 218.273 1034.88 218.273C1038.51 218.273 1042.1 218.879 1045.65 220.091C1049.19 221.303 1052.42 223.273 1055.33 226C1058.24 228.697 1060.56 232.273 1062.28 236.727C1064.01 241.182 1064.88 246.667 1064.88 253.182V257.727H1011.06V248.455H1053.97C1053.97 244.515 1053.18 241 1051.6 237.909C1050.06 234.818 1047.84 232.379 1044.97 230.591C1042.12 228.803 1038.75 227.909 1034.88 227.909C1030.6 227.909 1026.91 228.97 1023.78 231.091C1020.69 233.182 1018.31 235.909 1016.65 239.273C1014.98 242.636 1014.15 246.242 1014.15 250.091V256.273C1014.15 261.545 1015.06 266.015 1016.88 269.682C1018.72 273.318 1021.28 276.091 1024.56 278C1027.83 279.879 1031.63 280.818 1035.97 280.818C1038.78 280.818 1041.33 280.424 1043.6 279.636C1045.91 278.818 1047.89 277.606 1049.56 276C1051.22 274.364 1052.51 272.333 1053.42 269.909L1063.78 272.818C1062.69 276.333 1060.86 279.424 1058.28 282.091C1055.71 284.727 1052.53 286.788 1048.74 288.273C1044.95 289.727 1040.69 290.455 1035.97 290.455ZM269.818 374.182H280.545V449.091C280.545 453.394 279.803 457.121 278.318 460.273C276.864 463.424 274.652 465.864 271.682 467.591C268.742 469.318 265.03 470.182 260.545 470.182C260.182 470.182 259.818 470.182 259.455 470.182C259.091 470.182 258.727 470.182 258.364 470.182V460.182C258.727 460.182 259.061 460.182 259.364 460.182C259.667 460.182 260 460.182 260.364 460.182C263.636 460.182 266.03 459.212 267.545 457.273C269.061 455.364 269.818 452.636 269.818 449.091V374.182ZM275.091 362.545C273 362.545 271.197 361.833 269.682 360.409C268.197 358.985 267.455 357.273 267.455 355.273C267.455 353.273 268.197 351.561 269.682 350.136C271.197 348.712 273 348 275.091 348C277.182 348 278.97 348.712 280.455 350.136C281.97 351.561 282.727 353.273 282.727 355.273C282.727 357.273 281.97 358.985 280.455 360.409C278.97 361.833 277.182 362.545 275.091 362.545ZM328.557 445.455C322.254 445.455 316.723 443.955 311.966 440.955C307.239 437.955 303.542 433.758 300.875 428.364C298.239 422.97 296.92 416.667 296.92 409.455C296.92 402.182 298.239 395.833 300.875 390.409C303.542 384.985 307.239 380.773 311.966 377.773C316.723 374.773 322.254 373.273 328.557 373.273C334.86 373.273 340.375 374.773 345.102 377.773C349.86 380.773 353.557 384.985 356.193 390.409C358.86 395.833 360.193 402.182 360.193 409.455C360.193 416.667 358.86 422.97 356.193 428.364C353.557 433.758 349.86 437.955 345.102 440.955C340.375 443.955 334.86 445.455 328.557 445.455ZM328.557 435.818C333.345 435.818 337.284 434.591 340.375 432.136C343.466 429.682 345.754 426.455 347.239 422.455C348.723 418.455 349.466 414.121 349.466 409.455C349.466 404.788 348.723 400.439 347.239 396.409C345.754 392.379 343.466 389.121 340.375 386.636C337.284 384.152 333.345 382.909 328.557 382.909C323.769 382.909 319.83 384.152 316.739 386.636C313.648 389.121 311.36 392.379 309.875 396.409C308.39 400.439 307.648 404.788 307.648 409.455C307.648 414.121 308.39 418.455 309.875 422.455C311.36 426.455 313.648 429.682 316.739 432.136C319.83 434.591 323.769 435.818 328.557 435.818ZM420.568 415.455V374.182H431.295V444H420.568V432.182H419.841C418.205 435.727 415.659 438.742 412.205 441.227C408.75 443.682 404.386 444.909 399.114 444.909C394.75 444.909 390.871 443.955 387.477 442.045C384.083 440.106 381.417 437.197 379.477 433.318C377.538 429.409 376.568 424.485 376.568 418.545V374.182H387.295V417.818C387.295 422.909 388.72 426.97 391.568 430C394.447 433.03 398.114 434.545 402.568 434.545C405.235 434.545 407.947 433.864 410.705 432.5C413.492 431.136 415.826 429.045 417.705 426.227C419.614 423.409 420.568 419.818 420.568 415.455ZM480.216 445.455C473.489 445.455 467.686 443.97 462.807 441C457.958 438 454.216 433.818 451.58 428.455C448.973 423.061 447.67 416.788 447.67 409.636C447.67 402.485 448.973 396.182 451.58 390.727C454.216 385.242 457.883 380.97 462.58 377.909C467.307 374.818 472.822 373.273 479.125 373.273C482.761 373.273 486.352 373.879 489.898 375.091C493.443 376.303 496.67 378.273 499.58 381C502.489 383.697 504.807 387.273 506.534 391.727C508.261 396.182 509.125 401.667 509.125 408.182V412.727H455.307V403.455H498.216C498.216 399.515 497.428 396 495.852 392.909C494.307 389.818 492.095 387.379 489.216 385.591C486.367 383.803 483.004 382.909 479.125 382.909C474.852 382.909 471.155 383.97 468.034 386.091C464.943 388.182 462.564 390.909 460.898 394.273C459.231 397.636 458.398 401.242 458.398 405.091V411.273C458.398 416.545 459.307 421.015 461.125 424.682C462.973 428.318 465.534 431.091 468.807 433C472.08 434.879 475.883 435.818 480.216 435.818C483.034 435.818 485.58 435.424 487.852 434.636C490.155 433.818 492.14 432.606 493.807 431C495.473 429.364 496.761 427.333 497.67 424.909L508.034 427.818C506.943 431.333 505.11 434.424 502.534 437.091C499.958 439.727 496.777 441.788 492.989 443.273C489.201 444.727 484.943 445.455 480.216 445.455ZM569.443 415.455V374.182H580.17V444H569.443V432.182H568.716C567.08 435.727 564.534 438.742 561.08 441.227C557.625 443.682 553.261 444.909 547.989 444.909C543.625 444.909 539.746 443.955 536.352 442.045C532.958 440.106 530.292 437.197 528.352 433.318C526.413 429.409 525.443 424.485 525.443 418.545V374.182H536.17V417.818C536.17 422.909 537.595 426.97 540.443 430C543.322 433.03 546.989 434.545 551.443 434.545C554.11 434.545 556.822 433.864 559.58 432.5C562.367 431.136 564.701 429.045 566.58 426.227C568.489 423.409 569.443 419.818 569.443 415.455ZM599.818 444V374.182H610.182V384.727H610.909C612.182 381.273 614.485 378.47 617.818 376.318C621.152 374.167 624.909 373.091 629.091 373.091C629.879 373.091 630.864 373.106 632.045 373.136C633.227 373.167 634.121 373.212 634.727 373.273V384.182C634.364 384.091 633.53 383.955 632.227 383.773C630.955 383.561 629.606 383.455 628.182 383.455C624.788 383.455 621.758 384.167 619.091 385.591C616.455 386.985 614.364 388.924 612.818 391.409C611.303 393.864 610.545 396.667 610.545 399.818V444H599.818ZM696.898 389.818L687.261 392.545C686.655 390.939 685.761 389.379 684.58 387.864C683.428 386.318 681.852 385.045 679.852 384.045C677.852 383.045 675.292 382.545 672.17 382.545C667.898 382.545 664.337 383.53 661.489 385.5C658.67 387.439 657.261 389.909 657.261 392.909C657.261 395.576 658.231 397.682 660.17 399.227C662.11 400.773 665.14 402.061 669.261 403.091L679.625 405.636C685.867 407.152 690.519 409.47 693.58 412.591C696.64 415.682 698.17 419.667 698.17 424.545C698.17 428.545 697.019 432.121 694.716 435.273C692.443 438.424 689.261 440.909 685.17 442.727C681.08 444.545 676.322 445.455 670.898 445.455C663.777 445.455 657.883 443.909 653.216 440.818C648.549 437.727 645.595 433.212 644.352 427.273L654.534 424.727C655.504 428.485 657.337 431.303 660.034 433.182C662.761 435.061 666.322 436 670.716 436C675.716 436 679.686 434.939 682.625 432.818C685.595 430.667 687.08 428.091 687.08 425.091C687.08 422.667 686.231 420.636 684.534 419C682.837 417.333 680.231 416.091 676.716 415.273L665.08 412.545C658.686 411.03 653.989 408.682 650.989 405.5C648.019 402.288 646.534 398.273 646.534 393.455C646.534 389.515 647.64 386.03 649.852 383C652.095 379.97 655.14 377.591 658.989 375.864C662.867 374.136 667.261 373.273 672.17 373.273C679.08 373.273 684.504 374.788 688.443 377.818C692.413 380.848 695.231 384.848 696.898 389.818ZM758.136 444.727C755.894 444.727 753.97 443.924 752.364 442.318C750.758 440.712 749.955 438.788 749.955 436.545C749.955 434.303 750.758 432.379 752.364 430.773C753.97 429.167 755.894 428.364 758.136 428.364C760.379 428.364 762.303 429.167 763.909 430.773C765.515 432.379 766.318 434.303 766.318 436.545C766.318 438.03 765.939 439.394 765.182 440.636C764.455 441.879 763.47 442.879 762.227 443.636C761.015 444.364 759.652 444.727 758.136 444.727ZM793.386 444.727C791.144 444.727 789.22 443.924 787.614 442.318C786.008 440.712 785.205 438.788 785.205 436.545C785.205 434.303 786.008 432.379 787.614 430.773C789.22 429.167 791.144 428.364 793.386 428.364C795.629 428.364 797.553 429.167 799.159 430.773C800.765 432.379 801.568 434.303 801.568 436.545C801.568 438.03 801.189 439.394 800.432 440.636C799.705 441.879 798.72 442.879 797.477 443.636C796.265 444.364 794.902 444.727 793.386 444.727ZM828.636 444.727C826.394 444.727 824.47 443.924 822.864 442.318C821.258 440.712 820.455 438.788 820.455 436.545C820.455 434.303 821.258 432.379 822.864 430.773C824.47 429.167 826.394 428.364 828.636 428.364C830.879 428.364 832.803 429.167 834.409 430.773C836.015 432.379 836.818 434.303 836.818 436.545C836.818 438.03 836.439 439.394 835.682 440.636C834.955 441.879 833.97 442.879 832.727 443.636C831.515 444.364 830.152 444.727 828.636 444.727ZM275.091 505.909L302.727 584.273H303.818L331.455 505.909H343.273L309.091 599H297.455L263.273 505.909H275.091ZM378.182 600.455C371.879 600.455 366.348 598.955 361.591 595.955C356.864 592.955 353.167 588.758 350.5 583.364C347.864 577.97 346.545 571.667 346.545 564.455C346.545 557.182 347.864 550.833 350.5 545.409C353.167 539.985 356.864 535.773 361.591 532.773C366.348 529.773 371.879 528.273 378.182 528.273C384.485 528.273 390 529.773 394.727 532.773C399.485 535.773 403.182 539.985 405.818 545.409C408.485 550.833 409.818 557.182 409.818 564.455C409.818 571.667 408.485 577.97 405.818 583.364C403.182 588.758 399.485 592.955 394.727 595.955C390 598.955 384.485 600.455 378.182 600.455ZM378.182 590.818C382.97 590.818 386.909 589.591 390 587.136C393.091 584.682 395.379 581.455 396.864 577.455C398.348 573.455 399.091 569.121 399.091 564.455C399.091 559.788 398.348 555.439 396.864 551.409C395.379 547.379 393.091 544.121 390 541.636C386.909 539.152 382.97 537.909 378.182 537.909C373.394 537.909 369.455 539.152 366.364 541.636C363.273 544.121 360.985 547.379 359.5 551.409C358.015 555.439 357.273 559.788 357.273 564.455C357.273 569.121 358.015 573.455 359.5 577.455C360.985 581.455 363.273 584.682 366.364 587.136C369.455 589.591 373.394 590.818 378.182 590.818ZM470.193 570.455V529.182H480.92V599H470.193V587.182H469.466C467.83 590.727 465.284 593.742 461.83 596.227C458.375 598.682 454.011 599.909 448.739 599.909C444.375 599.909 440.496 598.955 437.102 597.045C433.708 595.106 431.042 592.197 429.102 588.318C427.163 584.409 426.193 579.485 426.193 573.545V529.182H436.92V572.818C436.92 577.909 438.345 581.97 441.193 585C444.072 588.03 447.739 589.545 452.193 589.545C454.86 589.545 457.572 588.864 460.33 587.5C463.117 586.136 465.451 584.045 467.33 581.227C469.239 578.409 470.193 574.818 470.193 570.455ZM550.023 544.818L540.386 547.545C539.78 545.939 538.886 544.379 537.705 542.864C536.553 541.318 534.977 540.045 532.977 539.045C530.977 538.045 528.417 537.545 525.295 537.545C521.023 537.545 517.462 538.53 514.614 540.5C511.795 542.439 510.386 544.909 510.386 547.909C510.386 550.576 511.356 552.682 513.295 554.227C515.235 555.773 518.265 557.061 522.386 558.091L532.75 560.636C538.992 562.152 543.644 564.47 546.705 567.591C549.765 570.682 551.295 574.667 551.295 579.545C551.295 583.545 550.144 587.121 547.841 590.273C545.568 593.424 542.386 595.909 538.295 597.727C534.205 599.545 529.447 600.455 524.023 600.455C516.902 600.455 511.008 598.909 506.341 595.818C501.674 592.727 498.72 588.212 497.477 582.273L507.659 579.727C508.629 583.485 510.462 586.303 513.159 588.182C515.886 590.061 519.447 591 523.841 591C528.841 591 532.811 589.939 535.75 587.818C538.72 585.667 540.205 583.091 540.205 580.091C540.205 577.667 539.356 575.636 537.659 574C535.962 572.333 533.356 571.091 529.841 570.273L518.205 567.545C511.811 566.03 507.114 563.682 504.114 560.5C501.144 557.288 499.659 553.273 499.659 548.455C499.659 544.515 500.765 541.03 502.977 538C505.22 534.97 508.265 532.591 512.114 530.864C515.992 529.136 520.386 528.273 525.295 528.273C532.205 528.273 537.629 529.788 541.568 532.818C545.538 535.848 548.356 539.848 550.023 544.818ZM632.716 600.455C625.989 600.455 620.186 598.97 615.307 596C610.458 593 606.716 588.818 604.08 583.455C601.473 578.061 600.17 571.788 600.17 564.636C600.17 557.485 601.473 551.182 604.08 545.727C606.716 540.242 610.383 535.97 615.08 532.909C619.807 529.818 625.322 528.273 631.625 528.273C635.261 528.273 638.852 528.879 642.398 530.091C645.943 531.303 649.17 533.273 652.08 536C654.989 538.697 657.307 542.273 659.034 546.727C660.761 551.182 661.625 556.667 661.625 563.182V567.727H607.807V558.455H650.716C650.716 554.515 649.928 551 648.352 547.909C646.807 544.818 644.595 542.379 641.716 540.591C638.867 538.803 635.504 537.909 631.625 537.909C627.352 537.909 623.655 538.97 620.534 541.091C617.443 543.182 615.064 545.909 613.398 549.273C611.731 552.636 610.898 556.242 610.898 560.091V566.273C610.898 571.545 611.807 576.015 613.625 579.682C615.473 583.318 618.034 586.091 621.307 588C624.58 589.879 628.383 590.818 632.716 590.818C635.534 590.818 638.08 590.424 640.352 589.636C642.655 588.818 644.64 587.606 646.307 586C647.973 584.364 649.261 582.333 650.17 579.909L660.534 582.818C659.443 586.333 657.61 589.424 655.034 592.091C652.458 594.727 649.277 596.788 645.489 598.273C641.701 599.727 637.443 600.455 632.716 600.455ZM640.534 520.818L631.08 508.091L621.625 520.818H611.443V520.091L626.17 501.182H635.989L650.716 520.091V520.818H640.534ZM708.307 529.182V538.273H672.125V529.182H708.307ZM682.67 512.455H693.398V579C693.398 582.03 693.837 584.303 694.716 585.818C695.625 587.303 696.777 588.303 698.17 588.818C699.595 589.303 701.095 589.545 702.67 589.545C703.852 589.545 704.822 589.485 705.58 589.364C706.337 589.212 706.943 589.091 707.398 589L709.58 598.636C708.852 598.909 707.837 599.182 706.534 599.455C705.231 599.758 703.58 599.909 701.58 599.909C698.549 599.909 695.58 599.258 692.67 597.955C689.792 596.652 687.398 594.667 685.489 592C683.61 589.333 682.67 585.97 682.67 581.909V512.455ZM752.966 600.455C746.239 600.455 740.436 598.97 735.557 596C730.708 593 726.966 588.818 724.33 583.455C721.723 578.061 720.42 571.788 720.42 564.636C720.42 557.485 721.723 551.182 724.33 545.727C726.966 540.242 730.633 535.97 735.33 532.909C740.057 529.818 745.572 528.273 751.875 528.273C755.511 528.273 759.102 528.879 762.648 530.091C766.193 531.303 769.42 533.273 772.33 536C775.239 538.697 777.557 542.273 779.284 546.727C781.011 551.182 781.875 556.667 781.875 563.182V567.727H728.057V558.455H770.966C770.966 554.515 770.178 551 768.602 547.909C767.057 544.818 764.845 542.379 761.966 540.591C759.117 538.803 755.754 537.909 751.875 537.909C747.602 537.909 743.905 538.97 740.784 541.091C737.693 543.182 735.314 545.909 733.648 549.273C731.981 552.636 731.148 556.242 731.148 560.091V566.273C731.148 571.545 732.057 576.015 733.875 579.682C735.723 583.318 738.284 586.091 741.557 588C744.83 589.879 748.633 590.818 752.966 590.818C755.784 590.818 758.33 590.424 760.602 589.636C762.905 588.818 764.89 587.606 766.557 586C768.223 584.364 769.511 582.333 770.42 579.909L780.784 582.818C779.693 586.333 777.86 589.424 775.284 592.091C772.708 594.727 769.527 596.788 765.739 598.273C761.951 599.727 757.693 600.455 752.966 600.455ZM847.648 544.818L838.011 547.545C837.405 545.939 836.511 544.379 835.33 542.864C834.178 541.318 832.602 540.045 830.602 539.045C828.602 538.045 826.042 537.545 822.92 537.545C818.648 537.545 815.087 538.53 812.239 540.5C809.42 542.439 808.011 544.909 808.011 547.909C808.011 550.576 808.981 552.682 810.92 554.227C812.86 555.773 815.89 557.061 820.011 558.091L830.375 560.636C836.617 562.152 841.269 564.47 844.33 567.591C847.39 570.682 848.92 574.667 848.92 579.545C848.92 583.545 847.769 587.121 845.466 590.273C843.193 593.424 840.011 595.909 835.92 597.727C831.83 599.545 827.072 600.455 821.648 600.455C814.527 600.455 808.633 598.909 803.966 595.818C799.299 592.727 796.345 588.212 795.102 582.273L805.284 579.727C806.254 583.485 808.087 586.303 810.784 588.182C813.511 590.061 817.072 591 821.466 591C826.466 591 830.436 589.939 833.375 587.818C836.345 585.667 837.83 583.091 837.83 580.091C837.83 577.667 836.981 575.636 835.284 574C833.587 572.333 830.981 571.091 827.466 570.273L815.83 567.545C809.436 566.03 804.739 563.682 801.739 560.5C798.769 557.288 797.284 553.273 797.284 548.455C797.284 544.515 798.39 541.03 800.602 538C802.845 534.97 805.89 532.591 809.739 530.864C813.617 529.136 818.011 528.273 822.92 528.273C829.83 528.273 835.254 529.788 839.193 532.818C843.163 535.848 845.981 539.848 847.648 544.818ZM290.364 755.636C285.939 755.636 281.924 754.803 278.318 753.136C274.712 751.439 271.848 749 269.727 745.818C267.606 742.606 266.545 738.727 266.545 734.182C266.545 730.182 267.333 726.939 268.909 724.455C270.485 721.939 272.591 719.97 275.227 718.545C277.864 717.121 280.773 716.061 283.955 715.364C287.167 714.636 290.394 714.061 293.636 713.636C297.879 713.091 301.318 712.682 303.955 712.409C306.621 712.106 308.561 711.606 309.773 710.909C311.015 710.212 311.636 709 311.636 707.273V706.909C311.636 702.424 310.409 698.939 307.955 696.455C305.53 693.97 301.848 692.727 296.909 692.727C291.788 692.727 287.773 693.848 284.864 696.091C281.955 698.333 279.909 700.727 278.727 703.273L268.545 699.636C270.364 695.394 272.788 692.091 275.818 689.727C278.879 687.333 282.212 685.667 285.818 684.727C289.455 683.758 293.03 683.273 296.545 683.273C298.788 683.273 301.364 683.545 304.273 684.091C307.212 684.606 310.045 685.682 312.773 687.318C315.53 688.955 317.818 691.424 319.636 694.727C321.455 698.03 322.364 702.455 322.364 708V754H311.636V744.545H311.091C310.364 746.061 309.152 747.682 307.455 749.409C305.758 751.136 303.5 752.606 300.682 753.818C297.864 755.03 294.424 755.636 290.364 755.636ZM292 746C296.242 746 299.818 745.167 302.727 743.5C305.667 741.833 307.879 739.682 309.364 737.045C310.879 734.409 311.636 731.636 311.636 728.727V718.909C311.182 719.455 310.182 719.955 308.636 720.409C307.121 720.833 305.364 721.212 303.364 721.545C301.394 721.848 299.47 722.121 297.591 722.364C295.742 722.576 294.242 722.758 293.091 722.909C290.303 723.273 287.697 723.864 285.273 724.682C282.879 725.47 280.939 726.667 279.455 728.273C278 729.848 277.273 732 277.273 734.727C277.273 738.455 278.652 741.273 281.409 743.182C284.197 745.061 287.727 746 292 746ZM370.307 755.455C363.761 755.455 358.125 753.909 353.398 750.818C348.67 747.727 345.034 743.47 342.489 738.045C339.943 732.621 338.67 726.424 338.67 719.455C338.67 712.364 339.973 706.106 342.58 700.682C345.216 695.227 348.883 690.97 353.58 687.909C358.307 684.818 363.822 683.273 370.125 683.273C375.034 683.273 379.458 684.182 383.398 686C387.337 687.818 390.564 690.364 393.08 693.636C395.595 696.909 397.155 700.727 397.761 705.091H387.034C386.216 701.909 384.398 699.091 381.58 696.636C378.792 694.152 375.034 692.909 370.307 692.909C366.125 692.909 362.458 694 359.307 696.182C356.186 698.333 353.746 701.379 351.989 705.318C350.261 709.227 349.398 713.818 349.398 719.091C349.398 724.485 350.246 729.182 351.943 733.182C353.67 737.182 356.095 740.288 359.216 742.5C362.367 744.712 366.064 745.818 370.307 745.818C373.095 745.818 375.625 745.333 377.898 744.364C380.17 743.394 382.095 742 383.67 740.182C385.246 738.364 386.367 736.182 387.034 733.636H397.761C397.155 737.758 395.655 741.47 393.261 744.773C390.898 748.045 387.761 750.652 383.852 752.591C379.973 754.5 375.458 755.455 370.307 755.455ZM443.807 684.182V693.273H407.625V684.182H443.807ZM418.17 667.455H428.898V734C428.898 737.03 429.337 739.303 430.216 740.818C431.125 742.303 432.277 743.303 433.67 743.818C435.095 744.303 436.595 744.545 438.17 744.545C439.352 744.545 440.322 744.485 441.08 744.364C441.837 744.212 442.443 744.091 442.898 744L445.08 753.636C444.352 753.909 443.337 754.182 442.034 754.455C440.731 754.758 439.08 754.909 437.08 754.909C434.049 754.909 431.08 754.258 428.17 752.955C425.292 751.652 422.898 749.667 420.989 747C419.11 744.333 418.17 740.97 418.17 736.909V667.455ZM503.943 725.455V684.182H514.67V754H503.943V742.182H503.216C501.58 745.727 499.034 748.742 495.58 751.227C492.125 753.682 487.761 754.909 482.489 754.909C478.125 754.909 474.246 753.955 470.852 752.045C467.458 750.106 464.792 747.197 462.852 743.318C460.913 739.409 459.943 734.485 459.943 728.545V684.182H470.67V727.818C470.67 732.909 472.095 736.97 474.943 740C477.822 743.03 481.489 744.545 485.943 744.545C488.61 744.545 491.322 743.864 494.08 742.5C496.867 741.136 499.201 739.045 501.08 736.227C502.989 733.409 503.943 729.818 503.943 725.455ZM563.591 755.455C556.864 755.455 551.061 753.97 546.182 751C541.333 748 537.591 743.818 534.955 738.455C532.348 733.061 531.045 726.788 531.045 719.636C531.045 712.485 532.348 706.182 534.955 700.727C537.591 695.242 541.258 690.97 545.955 687.909C550.682 684.818 556.197 683.273 562.5 683.273C566.136 683.273 569.727 683.879 573.273 685.091C576.818 686.303 580.045 688.273 582.955 691C585.864 693.697 588.182 697.273 589.909 701.727C591.636 706.182 592.5 711.667 592.5 718.182V722.727H538.682V713.455H581.591C581.591 709.515 580.803 706 579.227 702.909C577.682 699.818 575.47 697.379 572.591 695.591C569.742 693.803 566.379 692.909 562.5 692.909C558.227 692.909 554.53 693.97 551.409 696.091C548.318 698.182 545.939 700.909 544.273 704.273C542.606 707.636 541.773 711.242 541.773 715.091V721.273C541.773 726.545 542.682 731.015 544.5 734.682C546.348 738.318 548.909 741.091 552.182 743C555.455 744.879 559.258 745.818 563.591 745.818C566.409 745.818 568.955 745.424 571.227 744.636C573.53 743.818 575.515 742.606 577.182 741C578.848 739.364 580.136 737.333 581.045 734.909L591.409 737.818C590.318 741.333 588.485 744.424 585.909 747.091C583.333 749.727 580.152 751.788 576.364 753.273C572.576 754.727 568.318 755.455 563.591 755.455ZM619.545 660.909V754H608.818V660.909H619.545ZM649.92 660.909V754H639.193V660.909H649.92ZM698.841 755.455C692.114 755.455 686.311 753.97 681.432 751C676.583 748 672.841 743.818 670.205 738.455C667.598 733.061 666.295 726.788 666.295 719.636C666.295 712.485 667.598 706.182 670.205 700.727C672.841 695.242 676.508 690.97 681.205 687.909C685.932 684.818 691.447 683.273 697.75 683.273C701.386 683.273 704.977 683.879 708.523 685.091C712.068 686.303 715.295 688.273 718.205 691C721.114 693.697 723.432 697.273 725.159 701.727C726.886 706.182 727.75 711.667 727.75 718.182V722.727H673.932V713.455H716.841C716.841 709.515 716.053 706 714.477 702.909C712.932 699.818 710.72 697.379 707.841 695.591C704.992 693.803 701.629 692.909 697.75 692.909C693.477 692.909 689.78 693.97 686.659 696.091C683.568 698.182 681.189 700.909 679.523 704.273C677.856 707.636 677.023 711.242 677.023 715.091V721.273C677.023 726.545 677.932 731.015 679.75 734.682C681.598 738.318 684.159 741.091 687.432 743C690.705 744.879 694.508 745.818 698.841 745.818C701.659 745.818 704.205 745.424 706.477 744.636C708.78 743.818 710.765 742.606 712.432 741C714.098 739.364 715.386 737.333 716.295 734.909L726.659 737.818C725.568 741.333 723.735 744.424 721.159 747.091C718.583 749.727 715.402 751.788 711.614 753.273C707.826 754.727 703.568 755.455 698.841 755.455ZM744.068 754V684.182H754.432V695.091H755.341C756.795 691.364 759.144 688.47 762.386 686.409C765.629 684.318 769.523 683.273 774.068 683.273C778.674 683.273 782.508 684.318 785.568 686.409C788.659 688.47 791.068 691.364 792.795 695.091H793.523C795.311 691.485 797.992 688.621 801.568 686.5C805.144 684.348 809.432 683.273 814.432 683.273C820.674 683.273 825.78 685.227 829.75 689.136C833.72 693.015 835.705 699.061 835.705 707.273V754H824.977V707.273C824.977 702.121 823.568 698.439 820.75 696.227C817.932 694.015 814.614 692.909 810.795 692.909C805.886 692.909 802.083 694.394 799.386 697.364C796.689 700.303 795.341 704.03 795.341 708.545V754H784.432V706.182C784.432 702.212 783.144 699.015 780.568 696.591C777.992 694.136 774.674 692.909 770.614 692.909C767.826 692.909 765.22 693.652 762.795 695.136C760.402 696.621 758.462 698.682 756.977 701.318C755.523 703.924 754.795 706.939 754.795 710.364V754H744.068ZM884.591 755.455C877.864 755.455 872.061 753.97 867.182 751C862.333 748 858.591 743.818 855.955 738.455C853.348 733.061 852.045 726.788 852.045 719.636C852.045 712.485 853.348 706.182 855.955 700.727C858.591 695.242 862.258 690.97 866.955 687.909C871.682 684.818 877.197 683.273 883.5 683.273C887.136 683.273 890.727 683.879 894.273 685.091C897.818 686.303 901.045 688.273 903.955 691C906.864 693.697 909.182 697.273 910.909 701.727C912.636 706.182 913.5 711.667 913.5 718.182V722.727H859.682V713.455H902.591C902.591 709.515 901.803 706 900.227 702.909C898.682 699.818 896.47 697.379 893.591 695.591C890.742 693.803 887.379 692.909 883.5 692.909C879.227 692.909 875.53 693.97 872.409 696.091C869.318 698.182 866.939 700.909 865.273 704.273C863.606 707.636 862.773 711.242 862.773 715.091V721.273C862.773 726.545 863.682 731.015 865.5 734.682C867.348 738.318 869.909 741.091 873.182 743C876.455 744.879 880.258 745.818 884.591 745.818C887.409 745.818 889.955 745.424 892.227 744.636C894.53 743.818 896.515 742.606 898.182 741C899.848 739.364 901.136 737.333 902.045 734.909L912.409 737.818C911.318 741.333 909.485 744.424 906.909 747.091C904.333 749.727 901.152 751.788 897.364 753.273C893.576 754.727 889.318 755.455 884.591 755.455ZM940.545 712V754H929.818V684.182H940.182V695.091H941.091C942.727 691.545 945.212 688.697 948.545 686.545C951.879 684.364 956.182 683.273 961.455 683.273C966.182 683.273 970.318 684.242 973.864 686.182C977.409 688.091 980.167 691 982.136 694.909C984.106 698.788 985.091 703.697 985.091 709.636V754H974.364V710.364C974.364 704.879 972.939 700.606 970.091 697.545C967.242 694.455 963.333 692.909 958.364 692.909C954.939 692.909 951.879 693.652 949.182 695.136C946.515 696.621 944.409 698.788 942.864 701.636C941.318 704.485 940.545 707.939 940.545 712ZM1035.06 684.182V693.273H998.875V684.182H1035.06ZM1009.42 667.455H1020.15V734C1020.15 737.03 1020.59 739.303 1021.47 740.818C1022.38 742.303 1023.53 743.303 1024.92 743.818C1026.34 744.303 1027.84 744.545 1029.42 744.545C1030.6 744.545 1031.57 744.485 1032.33 744.364C1033.09 744.212 1033.69 744.091 1034.15 744L1036.33 753.636C1035.6 753.909 1034.59 754.182 1033.28 754.455C1031.98 754.758 1030.33 754.909 1028.33 754.909C1025.3 754.909 1022.33 754.258 1019.42 752.955C1016.54 751.652 1014.15 749.667 1012.24 747C1010.36 744.333 1009.42 740.97 1009.42 736.909V667.455ZM1119.74 660.909V754H1108.47V672.727H1107.92L1085.19 687.818V676.364L1108.47 660.909H1119.74Z" fill="black"/>
</svg>
